SplineFontDB: 3.2
FontName: WilliasBlack
FullName: Willias Black
FamilyName: Willias
Weight: Black
Copyright: Copyright (c) 2022, marco
UComments: "2022-11-6: Created with FontForge (http://fontforge.org)"
Version: 001.000
ItalicAngle: 0
UnderlinePosition: -100
UnderlineWidth: 50
Ascent: 800
Descent: 200
InvalidEm: 0
LayerCount: 2
Layer: 0 0 "Back" 1
Layer: 1 0 "Fore" 0
XUID: [1021 501 -1863293109 31748]
StyleMap: 0x0000
FSType: 0
OS2Version: 0
OS2_WeightWidthSlopeOnly: 0
OS2_UseTypoMetrics: 1
CreationTime: 1667733671
ModificationTime: 1671659767
PfmFamily: 17
TTFWeight: 900
TTFWidth: 5
LineGap: 90
VLineGap: 90
OS2TypoAscent: 0
OS2TypoAOffset: 1
OS2TypoDescent: 0
OS2TypoDOffset: 1
OS2TypoLinegap: 90
OS2WinAscent: 0
OS2WinAOffset: 1
OS2WinDescent: 0
OS2WinDOffset: 1
HheadAscent: 0
HheadAOffset: 1
HheadDescent: 0
HheadDOffset: 1
OS2Vendor: 'PfEd'
Lookup: 4 0 1 "'liga' Standard Ligatures in Latin lookup 0" { "'liga' Standard Ligatures in Latin lookup 0-1"  } ['liga' ('DFLT' <'dflt' > 'latn' <'AZE ' 'CAT ' 'CRT ' 'KAZ ' 'MOL ' 'ROM ' 'TAT ' 'TRK ' 'dflt' > ) ]
Lookup: 1 0 0 "Single Substitution lookup 33" { "Single Substitution lookup 33 subtable" ("ss01") } []
Lookup: 4 0 1 "'dlig' Discretionary Ligatures in Latin lookup 0" { "'dlig' Discretionary Ligatures in Latin lookup 0-1"  } ['dlig' ('DFLT' <'dflt' > 'latn' <'dflt' > ) ]
Lookup: 1 0 0 "'ss02' Style Set 2 in Latin lookup 1" { "'ss02' Style Set 2 in Latin lookup 1-1"  } ['ss02' ('DFLT' <'dflt' > 'latn' <'dflt' > ) ]
Lookup: 1 0 0 "'ss01' Style Set 1 in Latin lookup 0" { "'ss01' Style Set 1 in Latin lookup 0-1"  } ['ss01' ('DFLT' <'dflt' > 'latn' <'dflt' > ) ]
Lookup: 6 0 0 "'calt' Contextual Alternates in Latin lookup 32" { "'calt' Contextual Alternates in Latin lookup 32 contextual 0"  "'calt' Contextual Alternates in Latin lookup 32 contextual 1"  } ['calt' ('DFLT' <'dflt' > 'latn' <'AZE ' 'CAT ' 'CRT ' 'KAZ ' 'MOL ' 'ROM ' 'TAT ' 'TRK ' 'dflt' > ) ]

StartChar: A
Encoding: 65 65 0
Width: 611
Flags: W
HStem: 163.96 145.41<220.24 344>
AnchorPoint: "Anchor-2" 288 6 basechar 0
AnchorPoint: "Anchor-3" 438 28 basechar 0
AnchorPoint: "Anchor-0" 306 709 basechar 0
LayerCount: 2
Fore
SplineSet
285.439453125 534.690429688 m 1
 220.240234375 309.370117188 l 0
 344 308.059570312 l 1
 285.439453125 534.690429688 l 1
215.759765625 686.650390625 m 9
 411.040039062 682.719726562 l 25
 621.83984375 6.2802734375 l 0
 406.16015625 -13.7197265625 l 0
 361.279296875 167.889648438 l 25
 210.719726562 163.959960938 l 1
 165.83984375 -13.7197265625 l 0
 -10 6.2802734375 l 0
 215.759765625 686.650390625 l 9
EndSplineSet
Validated: 1
Substitution2: "'ss01' Style Set 1 in Latin lookup 0-1" A.ss01
EndChar

StartChar: B
Encoding: 66 66 1
Width: 652
Flags: W
HStem: -11 124<234.291 414.078> 571 133<179 372.253>
VStem: 20 154<404 570.926> 422 222<117.612 266.118>
AnchorPoint: "Anchor-2" 305 -24 basechar 0
AnchorPoint: "Anchor-0" 310 742 basechar 0
LayerCount: 2
Fore
SplineSet
239 286 m 25
 229 112 l 9
 229 112 344 113 417 113 c 25
 417 113 420 217 422 284 c 25
 422 284 310 285 239 286 c 25
179 571 m 25
 179 571 176 469 174 404 c 25
 174 404 293 418 369 427 c 25
 369 427 374 515 378 572 c 25
 378 572 257 571 179 571 c 25
20 686 m 17
 79 696 164 704 346 704 c 0
 488 704 600 660 600 528 c 16
 600 396 483 362 483 362 c 0
 483 362 644 325 644 192 c 0
 644 9 439 -11 304 -11 c 16
 169 -11 24 0 24 0 c 25
 20 686 l 17
EndSplineSet
Validated: 1
Substitution2: "'ss01' Style Set 1 in Latin lookup 0-1" B.ss01
Substitution2: "Single Substitution lookup 33 subtable" B.ss01
EndChar

StartChar: C
Encoding: 67 67 2
Width: 698
Flags: W
HStem: -21 179<249.865 493.581> 564 151<263.814 464.206>
VStem: 15 230<210.405 324.765>
AnchorPoint: "Anchor-0" 372 739 basechar 0
AnchorPoint: "Anchor-2" 368 -54 basechar 0
LayerCount: 2
Fore
SplineSet
466 564 m 1
 386 564 262 563 262 563 c 1
 245 158 l 1
 496 165 l 1
 491 275 l 1
 688 265 l 0
 688 265 685 -21 366 -21 c 0
 87 -21 15 193 15 351 c 16
 15 509 118 715 372 715 c 0
 686 715 687 420 687 420 c 1
 597 420 466 422 466 422 c 17
 466 564 l 1
EndSplineSet
Validated: 1
Substitution2: "Single Substitution lookup 33 subtable" C.ss01
Substitution2: "'ss01' Style Set 1 in Latin lookup 0-1" C.ss01
EndChar

StartChar: D
Encoding: 68 68 3
Width: 676
Flags: W
HStem: 0 167<217.093 416.263> 502 183<367.391 427.32>
VStem: 24 193<165 524.84> 431 230<221.06 496.855>
AnchorPoint: "Anchor-2" 305 -24 basechar 0
AnchorPoint: "Anchor-0" 302 709 basechar 0
LayerCount: 2
Fore
SplineSet
222 525 m 9
 222 525 219 305 217 165 c 25
 217 165 345 166 427 167 c 25
 427 167 429 375 431 502 c 25
 222 525 l 9
20 679 m 17
 20 679 85 685 257 685 c 0
 429 685 663 655 661 355 c 16
 659 55 400 0 265 0 c 16
 130 0 24 -1 24 -1 c 25
 22 264 20 679 20 679 c 17
EndSplineSet
Validated: 33
Substitution2: "Single Substitution lookup 33 subtable" D.ss01
Substitution2: "'ss01' Style Set 1 in Latin lookup 0-1" D.ss01
EndChar

StartChar: E
Encoding: 69 69 4
Width: 593
Flags: W
HStem: 0 170<183 567> 284 150<239 515> 554 135<239 560.761> 670 20G<561 561>
VStem: 20 163<170 284>
AnchorPoint: "Anchor-2" 298 -14 basechar 0
AnchorPoint: "Anchor-3" 498 28 basechar 0
AnchorPoint: "Anchor-0" 284 709 basechar 0
LayerCount: 2
Fore
SplineSet
22 689 m 25xe8
 232 689 561 690 561 690 c 25xd8
 561 637 561 554 561 554 c 25
 435 554 239 554 239 554 c 25
 239 507 239 434 239 434 c 25
 348 432 519 430 519 430 c 25
 517 379 515 280 515 280 c 25
 384 282 179 284 179 284 c 1
 183 170 l 17
 567 170 l 1
 569 100 573 0 573 0 c 25
 357 0 20 1 20 1 c 25
 21 269 22 689 22 689 c 25xe8
EndSplineSet
Validated: 1
Substitution2: "Single Substitution lookup 33 subtable" E.ss01
Substitution2: "'ss01' Style Set 1 in Latin lookup 0-1" E.ss01
EndChar

StartChar: F
Encoding: 70 70 5
Width: 586
Flags: W
HStem: 681 20G<560 561>
VStem: 20 229<0 253>
AnchorPoint: "Anchor-0" 284 709 basechar 0
LayerCount: 2
Fore
SplineSet
21 695 m 25
 231 697 560 701 560 701 c 25
 562 644 566 554 566 554 c 25
 419 556 188 558 188 558 c 25
 188 499 187 408 187 408 c 25
 316 408 517 407 517 407 c 25
 517 344 517 245 517 245 c 25
 411 248 246 253 246 253 c 25
 247 154 249 -1 249 -1 c 25
 160 -1 20 0 20 0 c 25
 20 271 21 695 21 695 c 25
EndSplineSet
Validated: 1
Substitution2: "Single Substitution lookup 33 subtable" F.ss01
Substitution2: "'ss01' Style Set 1 in Latin lookup 0-1" F.ss01
EndChar

StartChar: G
Encoding: 71 71 6
Width: 715
Flags: W
HStem: -34 178<253.633 431.939> 0 21G<558.161 695> 242 122<383 489> 544 166<246.595 434.997>
VStem: 15 232<181.521 474.263>
AnchorPoint: "Anchor-2" 368 -44 basechar 0
AnchorPoint: "Anchor-0" 372 739 basechar 0
LayerCount: 2
Fore
SplineSet
444 544 m 25xb8
 366 544 243 544 243 544 c 25
 247 144 l 1xb8
 483 149 l 1
 489 242 l 1
 381 240 l 1
 383 364 l 25
 695 352 l 25
 695 0 l 0
 573 0 l 25x78
 527 62 l 25
 527 62 469 -34 327 -34 c 0
 85 -34 15 176 15 320 c 16
 15 464 70 710 370 710 c 16
 670 710 672 438 672 438 c 25
 583 437 445 435 445 435 c 25
 445 478 444 544 444 544 c 25xb8
EndSplineSet
Validated: 1
Substitution2: "Single Substitution lookup 33 subtable" G.ss01
Substitution2: "'ss01' Style Set 1 in Latin lookup 0-1" G.ss01
EndChar

StartChar: H
Encoding: 72 72 7
Width: 647
Flags: W
HStem: 0 21G<20 238.072 433.708 627> 274 150<239 399> 675 20G<21 178.074>
VStem: 20 218<0 278> 21 158<426 694> 399 221<424 686> 434 193<0 274>
AnchorPoint: "Anchor-0" 284 709 basechar 0
LayerCount: 2
Fore
SplineSet
21 694 m 17xe8
 178 695 l 25
 179 426 l 25
 399 424 l 25
 395 688 l 25
 620 686 l 25xec
 627 0 l 25
 434 0 l 25
 430 274 l 25
 239 278 l 25
 238 0 l 25
 20 0 l 25xf2
 21 694 l 17xe8
EndSplineSet
Validated: 1
Substitution2: "Single Substitution lookup 33 subtable" H.ss01
Substitution2: "'ss01' Style Set 1 in Latin lookup 0-1" H.ss01
EndChar

StartChar: I
Encoding: 73 73 8
Width: 264
Flags: W
HStem: 0 21G<21.5 244> 671 20G<234 236>
VStem: 20 224
AnchorPoint: "Anchor-3" 158 28 basechar 0
AnchorPoint: "Anchor-0" 124 709 basechar 0
LayerCount: 2
Fore
SplineSet
20 680 m 17
 103 685 234 691 234 691 c 25
 238 418 244 0 244 0 c 25
 157 0 22 0 22 0 c 25
 21 261 20 680 20 680 c 17
EndSplineSet
Validated: 1
EndChar

StartChar: J
Encoding: 74 74 9
Width: 511
Flags: W
HStem: -11 158<206.199 277.682>
VStem: 284.762 206<147.19 315>
AnchorPoint: "Anchor-0" 387 709 basechar 0
LayerCount: 2
Fore
SplineSet
278.76171875 677 m 25
 361.76171875 676 488.76171875 675 490.76171875 675 c 0
 492.76171875 675 490.76171875 315 490.76171875 315 c 0
 490.76171875 183 487.76171875 -11 232.76171875 -11 c 0
 -62.23828125 -11 20.76171875 313 20.76171875 313 c 25
 90.76171875 304 198.76171875 291 198.76171875 291 c 17
 194.76171875 147 l 25
 233.76171875 145 284.76171875 141 284.76171875 141 c 25
 282.76171875 370 278.76171875 677 278.76171875 677 c 25
EndSplineSet
Validated: 33
EndChar

StartChar: K
Encoding: 75 75 10
Width: 679
Flags: W
HStem: 0 21G<23 24>
VStem: 24 181<1.05098 135>
AnchorPoint: "Anchor-0" 344 709 basechar 0
AnchorPoint: "Anchor-2" 330 -2 basechar 0
LayerCount: 2
Fore
SplineSet
20 672 m 25
 105 672 237 673 237 673 c 25
 240 573 245 386 245 386 c 25
 342 482 453 661 453 661 c 25
 533 661 659 660 659 660 c 25
 576 562 467 400 467 400 c 25
 554 241 689 3 689 3 c 25
 586 -6 445 -20 445 -20 c 25
 395 92 318 276 318 276 c 25
 274 237 205 135 205 135 c 25
 208 71 212 1 212 1 c 25
 139 1 24 0 24 0 c 25
 22 262 20 672 20 672 c 25
EndSplineSet
Validated: 1
EndChar

StartChar: L
Encoding: 76 76 11
Width: 546
Flags: W
HStem: 0 152<236 520>
VStem: 24 212<152 658.379>
AnchorPoint: "Anchor-2" 278 -14 basechar 0
AnchorPoint: "Anchor-0" 124 709 basechar 0
LayerCount: 2
Fore
SplineSet
20 658 m 25
 105 666 238 679 238 679 c 25
 236 152 l 25
 520 156 l 25
 526 0 l 0
 24 0 l 0
 20 658 l 25
EndSplineSet
Validated: 1
EndChar

StartChar: M
Encoding: 77 77 12
Width: 796
Flags: W
HStem: 0 16G<277 471 594 786>
AnchorPoint: "Anchor-2" 386 -14 basechar 0
AnchorPoint: "Anchor-0" 402 709 basechar 0
LayerCount: 2
Fore
SplineSet
46 668 m 25
 144 669 296 671 296 671 c 25
 337 510 402 257 402 257 c 25
 444 421 510 677 510 677 c 25
 607 675 758 671 758 671 c 25
 769 409 786 5 786 5 c 21
 595 -5 l 29
 593 165 590 436 590 436 c 25
 544 266 471 0 471 0 c 25
 404 0 300 0 300 0 c 25
 254 158 183 406 183 406 c 25
 183 248 184 -5 184 -5 c 21
 10 5 l 29
 24 266 46 668 46 668 c 25
EndSplineSet
Validated: 1
Substitution2: "Single Substitution lookup 33 subtable" M.ss01
Substitution2: "'ss01' Style Set 1 in Latin lookup 0-1" M.ss01
EndChar

StartChar: N
Encoding: 78 78 13
Width: 692
Flags: W
HStem: 0 21G<21 177> 673 20G<251 303>
VStem: 21 156<0.200668 440> 517 147<383.085 580.087>
AnchorPoint: "Anchor-2" 358 -14 basechar 0
AnchorPoint: "Anchor-0" 375 709 basechar 0
LayerCount: 2
Fore
SplineSet
20 690 m 25
 110 691 251 693 251 693 c 25
 355 535 517 269 517 269 c 25
 511 423 502 685 502 685 c 25
 565 686 664 687 664 687 c 25
 667 426 672 -1 672 -1 c 25
 584 -3 446 -7 446 -7 c 25
 341 160 178 440 178 440 c 25
 178 276 177 0 177 0 c 25
 116 0 21 0 21 0 c 25
 21 261 20 690 20 690 c 25
EndSplineSet
Validated: 1
Substitution2: "Single Substitution lookup 33 subtable" N.ss01
Substitution2: "'ss01' Style Set 1 in Latin lookup 0-1" N.ss01
EndChar

StartChar: O
Encoding: 79 79 14
Width: 712
Flags: W
HStem: -37 187<236.906 483.339> 500 195<255.469 470.989>
VStem: 15 218<171.601 451.897> 474 223<275.818 477.746>
AnchorPoint: "Anchor-2" 368 -34 basechar 0
AnchorPoint: "Anchor-3" 368 28 basechar 0
AnchorPoint: "Anchor-0" 375 709 basechar 0
LayerCount: 2
Fore
SplineSet
240 500 m 13
 233 148 l 13
 233 148 383 149 485 150 c 25
 474 496 l 9
 240 500 l 13
375 695 m 0
 575 695 697 549 697 345 c 8
 697 141 579 -37 365 -37 c 0
 191 -37 15 47 15 311 c 0
 15 595 225 695 375 695 c 0
EndSplineSet
Substitution2: "Single Substitution lookup 33 subtable" O.ss01
Substitution2: "'ss01' Style Set 1 in Latin lookup 0-1" O.ss01
EndChar

StartChar: P
Encoding: 80 80 15
Width: 623
Flags: W
HStem: 0 21G<20 238> 551 163<169 380.525>
VStem: 20 218<0 189> 20 210<27 216> 20 145<366 550.912>
AnchorPoint: "Anchor-2" 297 -18 basechar 0
AnchorPoint: "Anchor-0" 310 742 basechar 0
LayerCount: 2
Fore
SplineSet
169 551 m 25xc8
 169 551 167 430 165 366 c 25
 165 366 303 365 391 365 c 25
 391 365 385 487 381 553 c 25
 381 553 252 552 169 551 c 25xc8
20 708 m 17
 20 708 190 714 294 714 c 0
 398 714 608 670 608 460 c 0
 608 170 230 216 230 216 c 25xd0
 238 0 l 0
 20 0 l 25xe0
 20 708 l 17
EndSplineSet
Validated: 33
Substitution2: "Single Substitution lookup 33 subtable" P.ss01
Substitution2: "'ss01' Style Set 1 in Latin lookup 0-1" P.ss01
EndChar

StartChar: Q
Encoding: 81 81 16
Width: 722
Flags: W
HStem: -185 143<521 650> -33 178<243.152 357> 503 178<251.588 471.875>
VStem: 15 228<163.99 455.641> 479 228<201.714 481.798>
LayerCount: 2
Fore
SplineSet
249 503 m 25
 249 503 245 281 243 139 c 25
 243 139 386 143 477 145 c 25
 477 145 478 358 479 495 c 25
 479 495 339 500 249 503 c 25
15 332 m 4
 15 555 189 681 365 681 c 4
 491 681 709 627 707 347 c 20
 705 67 519 2 519 0 c 20
 519 -2 521 -42 521 -42 c 29
 650 -43 l 29
 651 -182 l 29
 651 -182 597 -185 521 -185 c 4
 384.21484375 -185 376.270507812 -147.083984375 365 -102 c 4
 359 -78 357 -33 357 -33 c 4
 110.932617188 -33 15 89 15 332 c 4
EndSplineSet
Validated: 33
EndChar

StartChar: R
Encoding: 82 82 17
Width: 654
Flags: W
HStem: 0 21G<20 200.907> 210 174<238.086 390> 556 147<246.52 427.859>
VStem: 22 216<377 555.912> 428 202<407.93 549.492>
AnchorPoint: "Anchor-2" 298 -14 basechar 0
AnchorPoint: "Anchor-0" 310 742 basechar 0
LayerCount: 2
Fore
SplineSet
246 556 m 25
 246 556 241 435 238 377 c 25
 238 377 356 381 432 384 c 25
 432 384 430 497 428 550 c 25
 428 550 317 554 246 556 c 25
20 0 m 25
 20 0 21 431 22 681 c 25
 22 681 132 703 310 703 c 8
 488 703 630 649 630 497 c 0
 630 355 510 336 510 336 c 17
 600 307 614 241 614 135 c 0
 614 47 639 0 639 0 c 0
 408 -14 l 1
 390 210 l 25
 200 216 l 1
 201 0 l 25
 201 0 91 0 20 0 c 25
EndSplineSet
Validated: 1
Substitution2: "Single Substitution lookup 33 subtable" R.ss01
Substitution2: "'ss01' Style Set 1 in Latin lookup 0-1" R.ss01
EndChar

StartChar: S
Encoding: 83 83 18
Width: 708
Flags: W
HStem: -29 148<242.851 418.667> 484 21G<613.5 656> 552 158<241.973 431.002>
VStem: 32 200<450.289 554.135> 470 223<130.995 233.136>
AnchorPoint: "Anchor-2" 341 -54 basechar 0
AnchorPoint: "Anchor-0" 352 739 basechar 0
LayerCount: 2
Fore
SplineSet
439 552 m 25
 358 554 232 556 232 556 c 25
 232 449 l 25
 232 449 292.952148438 447.344726562 368 446 c 0
 647 441 693 305 693 221 c 16
 693 137 671 -29 339 -29 c 0
 52.6025390625 -29 15 105 15 221 c 9
 241 219 l 25
 239 119 l 25
 470 128 l 25
 465 234 l 25
 465 234 429 236 334 244 c 0
 70.470703125 266.192382812 32 425 32 473 c 16
 32 521 40 710 342 710 c 0
 605 710 656 586 656 484 c 9
 571 485 437 486 437 486 c 25
 438 516 439 552 439 552 c 25
EndSplineSet
Validated: 1
Substitution2: "Single Substitution lookup 33 subtable" S.ss01
Substitution2: "'ss01' Style Set 1 in Latin lookup 0-1" S.ss01
EndChar

StartChar: T
Encoding: 84 84 19
Width: 616
Flags: W
HStem: 482 21G<20 21.5> 674 20G<27 138>
AnchorPoint: "Anchor-0" 316 709 basechar 0
AnchorPoint: "Anchor-2" 318 -34 basechar 0
LayerCount: 2
Fore
SplineSet
27 694 m 25
 249 691 596 686 596 686 c 25
 593 626 588 532 588 532 c 25
 524 531 414 530 414 530 c 25
 419 324 426 1 426 1 c 25
 336 -2 216 -7 216 -7 c 25
 220 190 226 498 226 498 c 25
 150 492 20 482 20 482 c 25
 23 565 27 694 27 694 c 25
EndSplineSet
Validated: 1
Substitution2: "Single Substitution lookup 33 subtable" T.ss01
Substitution2: "'ss01' Style Set 1 in Latin lookup 0-1" T.ss01
EndChar

StartChar: U
Encoding: 85 85 20
Width: 632
Flags: W
HStem: -30 188<244.982 409.25>
VStem: 20 216<159.334 658.291> 434 178<166.172 665.893>
AnchorPoint: "Anchor-2" 308 -34 basechar 0
AnchorPoint: "Anchor-3" 308 28 basechar 0
AnchorPoint: "Anchor-0" 338 709 basechar 0
LayerCount: 2
Fore
SplineSet
32 676 m 25
 113 678 240 682 240 682 c 25
 236 158 l 25
 434 166 l 25
 428 670 l 25
 606 666 l 25
 606 666 612 520 612 292 c 0
 612 113 550 -30 308 -30 c 16
 66 -30 20 142 20 278 c 16
 20 414 32 676 32 676 c 25
EndSplineSet
Validated: 1
Substitution2: "Single Substitution lookup 33 subtable" U.ss01
Substitution2: "'ss01' Style Set 1 in Latin lookup 0-1" U.ss01
EndChar

StartChar: V
Encoding: 86 86 21
Width: 596
Flags: W
HStem: 675 20G<200 224.5>
AnchorPoint: "Anchor-0" 331 709 basechar 0
AnchorPoint: "Anchor-2" 308 -14 basechar 0
LayerCount: 2
Fore
SplineSet
-10 671 m 25
 68 680 200 695 200 695 c 17
 249 503 332 173 332 173 c 25
 373 360 438 683 438 683 c 25
 496 683 606 683 606 683 c 25
 536 409 426 -19 426 -19 c 25
 341 -17 198 -13 198 -13 c 25
 117 254 -10 671 -10 671 c 25
EndSplineSet
Validated: 1
EndChar

StartChar: i
Encoding: 105 105 22
Width: 227
Flags: W
HStem: 0 21G<22 207> 505 184<53.8878 170.608>
VStem: 20 183<537.275 656.731>
AnchorPoint: "Anchor-3" 138 28 basechar 0
LayerCount: 2
Fore
SplineSet
112 689 m 0
 164 689 203 649 203 596 c 8
 203 543 161 505 117 505 c 0
 83 505 20 524 20 603 c 0
 20 652 60 689 112 689 c 0
25 446 m 29
 90 450 191 455 191 455 c 29
 197 278 207 0 207 0 c 21
 21 0 l 29
 23 174 25 446 25 446 c 29
EndSplineSet
Validated: 1
EndChar

StartChar: o
Encoding: 111 111 23
Width: 559
Flags: W
HStem: -25 144<189.28 354.395> 358 137<196.213 338.384>
VStem: 15 181<190.7 356.348> 361 183<140.587 205.5>
AnchorPoint: "Anchor-2" 286 -34 basechar 0
AnchorPoint: "Anchor-3" 288 28 basechar 0
AnchorPoint: "Anchor-0" 284 519 basechar 0
LayerCount: 2
Fore
SplineSet
196 358 m 9
 186 119 l 25
 361 125 l 25
 341 355 l 25
 196 358 l 9
15 248 m 0
 15 400 113 495 285 495 c 0
 457 495 544 348 544 239 c 16
 544 130 461 -25 286 -25 c 16
 111 -25 15 96 15 248 c 0
EndSplineSet
Validated: 1
Substitution2: "Single Substitution lookup 33 subtable" o.ss01
Substitution2: "'ss01' Style Set 1 in Latin lookup 0-1" o.ss01
EndChar

StartChar: less
Encoding: 60 60 25
Width: 366
Flags: W
HStem: 190 328
VStem: 23 323
LayerCount: 2
Fore
SplineSet
330 518 m 1
 340 396 l 1
 138 344 l 25
 346 314 l 1
 318 190 l 1
 23 284 l 25
 20 397 l 1
 330 518 l 1
EndSplineSet
Validated: 1
EndChar

StartChar: m
Encoding: 109 109 26
Width: 879
Flags: W
HStem: 0 21G<20 203 345 534> 318 172<574.807 669> 340 141<234.393 345.92> 448 20G<25 149.933>
VStem: 20 183<0 340> 345 189<0 314> 669 188<0 317.922>
AnchorPoint: "Anchor-0" 444 499 basechar 0
AnchorPoint: "Anchor-2" 438 -14 basechar 0
LayerCount: 2
Fore
SplineSet
25 465 m 17xae
 147 468 l 1x9e
 158 393 l 25
 158 393 205 481 329 481 c 0xae
 453 481 498 398 498 398 c 25
 498 398 543 490 673 490 c 0
 833 490 853 388 857 284 c 16
 861 180 858 -2 858 -2 c 1
 675 0 l 25
 669 318 l 25xce
 529 314 l 0
 534 0 l 25
 345 0 l 25
 351 340 l 25
 197 340 l 25
 203 0 l 25
 20 0 l 25
 25 465 l 17xae
EndSplineSet
Validated: 33
Substitution2: "Single Substitution lookup 33 subtable" m.ss01
Substitution2: "'ss01' Style Set 1 in Latin lookup 0-1" m.ss01
EndChar

StartChar: W
Encoding: 87 87 27
Width: 964
Flags: W
HStem: 670 20G<164 202>
AnchorPoint: "Anchor-2" 478 -14 basechar 0
AnchorPoint: "Anchor-0" 506 709 basechar 0
LayerCount: 2
Fore
SplineSet
8 646 m 25
 8 646 126 673 202 690 c 25
 202 690 250 371 280 180 c 25
 280 180 353 487 406 664 c 25
 406 664 534 668 616 670 c 25
 616 670 672 344 702 168 c 25
 702 168 767 486 808 664 c 25
 808 664 895 654 950 648 c 25
 950 648 868 251 816 10 c 25
 816 10 665 -11 568 -20 c 9
 568 -20 518 252 486 426 c 25
 486 426 427 149 376 -28 c 25
 376 -28 225 -21 142 -16 c 25
 142 -16 60 388 8 646 c 25
EndSplineSet
Validated: 1
EndChar

StartChar: X
Encoding: 88 88 28
Width: 688
Flags: W
HStem: 0 21G<442.795 698>
AnchorPoint: "Anchor-0" 371 709 basechar 0
AnchorPoint: "Anchor-2" 328 -14 basechar 0
LayerCount: 2
Fore
SplineSet
-10 653 m 9
 239 666 l 9
 362 471 l 9
 490 672 l 9
 670 650 l 1
 668.568902711 652.692707984 453 343 453 343 c 9
 453 343 602 143 698 8 c 25
 445 0 l 1
 440.590766593 2.18883763468 319 204 319 204 c 9
 183 -30 l 9
 0 10 l 9
 0 10 134 209 219 342 c 25
 -10 653 l 9
EndSplineSet
Validated: 37
EndChar

StartChar: Y
Encoding: 89 89 29
Width: 588
Flags: W
AnchorPoint: "Anchor-2" 298 -14 basechar 0
AnchorPoint: "Anchor-0" 315 709 basechar 0
LayerCount: 2
Fore
SplineSet
-7 662 m 1
 208 682 l 1
 248 594 320 446 320 446 c 17
 320 446 423.502929688 678.146484375 424 680 c 1
 598 660 l 17
 398 276 l 25
 405 168 415 0 415 0 c 25
 325 -3 185 -8 185 -8 c 1
 185 104 186 270 186 270 c 1
 113 424 -7 662 -7 662 c 1
EndSplineSet
Validated: 1
EndChar

StartChar: Z
Encoding: 90 90 30
Width: 641
Flags: W
HStem: -1 160<279 617.849>
AnchorPoint: "Anchor-2" 328 -14 basechar 0
AnchorPoint: "Anchor-0" 321 709 basechar 0
LayerCount: 2
Fore
SplineSet
29 658 m 25
 257 659 613 660 613 660 c 25
 615 584 617 466 617 466 c 25
 485 338 279 159 279 159 c 25
 411 158 618 156 618 156 c 25
 619 103 621 -1 621 -1 c 25
 381 -1 5 0 5 0 c 25
 7 62 10 160 10 160 c 25
 157 299 387 516 387 516 c 25
 245 509 22 498 22 498 c 25
 25 560 29 658 29 658 c 25
EndSplineSet
Validated: 1
EndChar

StartChar: e
Encoding: 101 101 31
Width: 545
Flags: W
HStem: -26 106<245.775 350.679> 187 84<243 332> 349 127<178.713 332.25>
VStem: 15 162<270 341.167>
AnchorPoint: "Anchor-2" 294 -34 basechar 0
AnchorPoint: "Anchor-3" 298 28 basechar 0
AnchorPoint: "Anchor-0" 270 499 basechar 0
LayerCount: 2
Fore
SplineSet
15 242 m 0
 15 366 102 476 272 476 c 0
 552 476 530 198 530 198 c 9
 243 187 l 25
 244 80 l 25
 353 86 l 25
 356 154 l 25
 528 152 l 25
 528 152 524 -26 291 -26 c 0
 88 -26 15 118 15 242 c 0
178 349 m 9
 177 270 l 9
 177 270 264 271 332 271 c 25
 333 354 l 9
 178 349 l 9
EndSplineSet
Validated: 33
Substitution2: "Single Substitution lookup 33 subtable" e.ss01
Substitution2: "'ss01' Style Set 1 in Latin lookup 0-1" e.ss01
EndChar

StartChar: z
Encoding: 122 122 32
Width: 483
Flags: W
AnchorPoint: "Anchor-2" 236 -24 basechar 0
AnchorPoint: "Anchor-0" 240 506 basechar 0
LayerCount: 2
Fore
SplineSet
39 462 m 9
 31 340 l 9
 257 338 l 9
 3 94 l 9
 27 -2 l 9
 463 0 l 9
 460 132 l 1
 251 134 l 9
 439 320 l 9
 432 462 l 9
 39 462 l 9
EndSplineSet
Validated: 9
EndChar

StartChar: a
Encoding: 97 97 33
Width: 553
Flags: W
HStem: 471 20G<158 365.186>
VStem: 15 179<94.6332 180.573> 383 147<291 356>
AnchorPoint: "Anchor-2" 288 6 basechar 0
AnchorPoint: "Anchor-3" 428 28 basechar 0
AnchorPoint: "Anchor-0" 280 517 basechar 0
LayerCount: 2
Fore
SplineSet
195 183 m 25
 195 183 194 129 194 94 c 25
 194 94 283 104 340 110 c 25
 340 110 338 160 336 192 c 25
 336 192 250 187 195 183 c 25
25 332 m 17
 25 332 35 491 281 491 c 0
 449.372961436 491 530 400 530 318 c 0
 530 245 523 192 523 141 c 0
 523 67 557 -7 557 -7 c 1
 393 -21 l 25
 350 36 l 1
 350 36 298 -23 169 -23 c 0
 70 -23 15 49 15 127 c 0
 15 254.11328125 181.950013881 297 272 297 c 0
 332 297 383 291 383 291 c 9
 385 356 l 1
 230 382 l 25
 226 316 l 1
 25 332 l 17
EndSplineSet
Validated: 1
Substitution2: "Single Substitution lookup 33 subtable" a.ss01
Substitution2: "'ss01' Style Set 1 in Latin lookup 0-1" a.ss01
EndChar

StartChar: b
Encoding: 98 98 34
Width: 562
Flags: W
HStem: -14 149<227.836 339.809> 0 21G<20 171.146> 476 20G<328 386> 682 20G<24.8575 62>
VStem: 20 154<137 343.908> 25 185<458 699> 329 218<138.779 341.826>
AnchorPoint: "Anchor-2" 302 -32 basechar 0
AnchorPoint: "Anchor-0" 114 727 basechar 0
LayerCount: 2
Fore
SplineSet
176 344 m 25xba
 176 344 175 218 174 137 c 25
 174 137 275 136 340 135 c 25
 340 135 333 262 329 343 c 25
 329 343 236 344 176 344 c 25xba
25 702 m 25x76
 99 701 214 699 214 699 c 25
 210 458 l 25
 210 458 299 496 357 496 c 16
 415 496 547 466 547 256 c 16
 547 46 377 -14 304 -14 c 16xb6
 231 -14 186 41 186 41 c 25
 157 0 l 25
 20 0 l 25x7a
 25 702 l 25x76
EndSplineSet
Validated: 1
Substitution2: "Single Substitution lookup 33 subtable" b.ss01
Substitution2: "'ss01' Style Set 1 in Latin lookup 0-1" b.ss01
EndChar

StartChar: d
Encoding: 100 100 35
Width: 553
Flags: W
HStem: -23 160<212.882 334.657> 0 21G<403.341 521.364> 334 135<205.116 346.966>
VStem: 15 188<180.778 329.613> 360 173<554.769 660>
AnchorPoint: "Anchor-0" 454 727 basechar 0
AnchorPoint: "Anchor-2" 245 -32 basechar 0
AnchorPoint: "Anchor-4" 547 546 basechar 0
LayerCount: 2
Fore
SplineSet
203 334 m 13xb8
 212 137 l 13
 367 137 l 9
 379 333 l 9
 203 334 l 13xb8
360 670 m 17
 533 660 l 25
 521 0 l 25
 417 0 l 25x78
 389 41 l 25
 389 41 339 -23 245 -23 c 16
 151 -23 15 41 15 241 c 16
 15 441 199 469 250 469 c 16
 301 469 347 456 347 456 c 17
 360 670 l 17
EndSplineSet
Substitution2: "Single Substitution lookup 33 subtable" d.ss01
Substitution2: "'ss01' Style Set 1 in Latin lookup 0-1" d.ss01
EndChar

StartChar: exclam
Encoding: 33 33 36
Width: 255
Flags: W
HStem: -8.22363 197.489<56.4437 197.568>
VStem: 20 215.466<28.5196 151.696> 63.5303 163.054<320.931 666.899>
LayerCount: 2
Fore
SplineSet
127.075195312 189.265625 m 0xc0
 209.948242188 189.265625 235.465820312 128.977539062 235.465820312 87.896484375 c 0
 235.465820312 34.7314453125 203.37109375 -8.2236328125 129.706054688 -8.2236328125 c 0
 56.041015625 -8.2236328125 20 37.1484375 20 90.3115234375 c 0
 20 167.642578125 70.509765625 189.265625 127.075195312 189.265625 c 0xc0
34.01953125 700 m 1
 207.583984375 711 l 1
 207.583984375 711 226.583984375 622 226.583984375 501 c 0
 226.583984375 379.760742188 186.698242188 249.719726562 186.698242188 249.719726562 c 1
 48.583984375 230 l 5
 48.583984375 230 63.5302734375 323.73828125 63.5302734375 471 c 0xa0
 63.5302734375 594 34.01953125 700 34.01953125 700 c 1
EndSplineSet
Validated: 1
EndChar

StartChar: c
Encoding: 99 99 37
Width: 543
Flags: W
HStem: -20 136<200.612 323> 353 146<211.355 336.561>
VStem: 15 193<202.182 346.467>
AnchorPoint: "Anchor-2" 265 -54 basechar 0
AnchorPoint: "Anchor-0" 291 529 basechar 0
LayerCount: 2
Fore
SplineSet
208 353 m 9
 197 116 l 1
 359 125 l 9
 361 207 l 9
 533 207 l 9
 533 207 531 -20 263 -20 c 0
 55 -20 15 162 15 254 c 8
 15 346 83 499 291 499 c 8
 499 499 529 278 529 278 c 25
 335 280 l 25
 337 353 l 1
 208 353 l 9
EndSplineSet
Validated: 1
Substitution2: "Single Substitution lookup 33 subtable" c.ss01
Substitution2: "'ss01' Style Set 1 in Latin lookup 0-1" c.ss01
EndChar

StartChar: s
Encoding: 115 115 38
Width: 512
Flags: W
HStem: -33 113<189.758 341.133> 379 115<170.194 300.79>
VStem: 15 151<320.047 374.498> 344 153<81.7842 154>
AnchorPoint: "Anchor-0" 261 529 basechar 0
AnchorPoint: "Anchor-2" 268 -74 basechar 0
LayerCount: 2
Fore
SplineSet
167 379 m 9
 166 317 l 25
 166 317 244 317 342 308 c 8
 440 299 497 226 497 138 c 8
 497 50 424 -33 268 -33 c 0
 32 -33 24 140 24 140 c 25
 190 137 l 25
 188 87 l 25
 344 80 l 1
 347 154 l 25
 347 154 292 155 214 159 c 0
 136 163 15 213 15 337 c 8
 15 461 166 494 243 494 c 0
 469 494 469 342 469 342 c 25
 306 338 l 25
 305 378 l 25
 167 379 l 9
EndSplineSet
Validated: 1
Substitution2: "Single Substitution lookup 33 subtable" s.ss01
Substitution2: "'ss01' Style Set 1 in Latin lookup 0-1" s.ss01
EndChar

StartChar: f
Encoding: 102 102 39
Width: 423
Flags: W
HStem: 0 21G<69 276> 316 139<265 403> 326 120<-10 77> 506 222<292 383.281>
VStem: 69 207<0 191.333> 71 142<456 608.333> 81 184<136.667 314> 287 168<507.02 613.676>
AnchorPoint: "Anchor-0" 284 757 basechar 0
LayerCount: 2
Fore
SplineSet
-10 446 m 17xb3
 77 445 l 29
 77 445 71 478 71 556 c 20
 71 634 124 728 288 728 c 4
 452 728 455 591 455 563 c 20
 455 535 452 507 452 507 c 5
 292 506 l 29
 287 614 l 29
 213 609 l 29xb5
 209 456 l 29
 403 455 l 25
 403 316 l 25
 265 314 l 25xd3
 276 0 l 25
 69 0 l 25xd9
 81 328 l 25
 -10 326 l 25
 -10 446 l 17xb3
EndSplineSet
Validated: 1
Substitution2: "Single Substitution lookup 33 subtable" f.ss01
Substitution2: "'ss01' Style Set 1 in Latin lookup 0-1" f.ss01
EndChar

StartChar: g
Encoding: 103 103 40
Width: 563
Flags: W
HStem: -250 134<227 365.25> -22 140<202.004 351.299> 324 169<203.392 348.626> 462 20G<417.679 533>
VStem: 15 186<126.922 323.742> 385 158<-97.1623 18>
AnchorPoint: "Anchor-0" 291 529 basechar 0
LayerCount: 2
Fore
SplineSet
201 324 m 9xec
 201 118 l 9
 353 117 l 9
 349 326 l 9
 201 324 l 9xec
15 244 m 0
 15 434 167 493 261 493 c 0xec
 355 493 399 429 399 429 c 25
 429 482 l 25xdc
 533 479 l 25
 533 479 543 207 543 18 c 16
 543 -171 411.003246719 -250 257 -250 c 0
 135 -250 80.2314453125 -214.688476562 44 -143 c 0
 25.4306640625 -106.2578125 21 -60 21 -60 c 1
 187 -48 l 1
 227 -116 l 25
 385 -108 l 25
 381 18 l 25
 381 18 343 -25 241 -22 c 16
 139 -19 15 64 15 244 c 0
EndSplineSet
Validated: 33
Substitution2: "Single Substitution lookup 33 subtable" g.ss01
Substitution2: "'ss01' Style Set 1 in Latin lookup 0-1" g.ss01
EndChar

StartChar: h
Encoding: 104 104 41
Width: 494
Flags: W
HStem: 0 21G<20 173.756> 672 20G<91.875 209.699>
VStem: 20 154<6 328> 21 185<426 660> 300 174<-0.835144 324.047>
AnchorPoint: "Anchor-2" 240 -2 basechar 0
AnchorPoint: "Anchor-0" 114 727 basechar 0
LayerCount: 2
Fore
SplineSet
21 660 m 17xd8
 210 692 l 25
 206 426 l 25xd8
 206 426 267 478 353 478 c 16
 439 478 474 398 474 312 c 16
 474 226 471 -1 471 -1 c 17
 299 -7 l 17
 300 328 l 17
 170 328 l 17
 174 0 l 17
 20 6 l 17xe8
 21 660 l 17xd8
EndSplineSet
Validated: 1
Substitution2: "Single Substitution lookup 33 subtable" h.ss01
Substitution2: "'ss01' Style Set 1 in Latin lookup 0-1" h.ss01
EndChar

StartChar: j
Encoding: 106 106 42
Width: 212
Flags: W
HStem: -213 130<-70.9599 27> 489 200<44.0176 168.717>
VStem: 1 208<531.132 647.468> 27 165<-82.9958 448>
LayerCount: 2
Fore
SplineSet
107 689 m 0xe0
 174 689 209 628 209 590 c 8
 209 552 177 489 111 489 c 8
 45 489 1 540 1 592 c 0
 1 644 40 689 107 689 c 0xe0
20 448 m 21
 189 457 l 13
 189 457 192 170 192 -16 c 4
 192 -178.02734375 96 -213 40 -213 c 20
 -16 -213 -71 -199 -71 -199 c 29
 -74 -82 l 29
 27 -83 l 29xd0
 20 448 l 21
EndSplineSet
Validated: 1
EndChar

StartChar: t
Encoding: 116 116 43
Width: 433
Flags: W
HStem: -22 125<224.877 297.92> 334 135<231 387> 346 105<6 77>
VStem: 55 166<104.902 333.12> 301 124<102.915 189>
AnchorPoint: "Anchor-0" 184 604 basechar 0
AnchorPoint: "Anchor-1" 308 556 basechar 0
AnchorPoint: "Anchor-2" 232 -38 basechar 0
LayerCount: 2
Fore
SplineSet
129 573 m 17xb8
 232 576 l 25
 231 469 l 29
 387 475 l 29
 388 329 l 29
 223 334 l 29xd8
 221 103 l 25
 301 100 l 25
 303 189 l 1
 420 190 l 1
 420 190 425 152 425 126 c 0
 425 23 363 -22 231 -22 c 0
 99 -22 55 56 55 134 c 16
 55 212 77 346 77 346 c 29
 2 346 l 29
 6 451 l 29
 98 447 l 29
 129 573 l 17xb8
EndSplineSet
Validated: 1
Substitution2: "Single Substitution lookup 33 subtable" t.ss01
Substitution2: "'ss02' Style Set 2 in Latin lookup 1-1" t.ss02
Substitution2: "'ss01' Style Set 1 in Latin lookup 0-1" t.ss01
EndChar

StartChar: k
Encoding: 107 107 44
Width: 546
Flags: W
HStem: 0 20G<20.2044 181 332 556> 466 20G<354.749 455.053> 665 20G<26.7956 201>
VStem: 20 157<0.0618134 139> 27 174<299 685>
AnchorPoint: "Anchor-0" 114 727 basechar 0
AnchorPoint: "Anchor-2" 260 -2 basechar 0
LayerCount: 2
Fore
SplineSet
27 685 m 17xe8
 201 685 l 17xe8
 194 299 l 17
 374 486 l 17
 528 448 l 17
 374 314 l 17
 556 14 l 17
 352 -1 l 25
 312 79 250 203 250 203 c 17
 177 139 l 25
 179 85 181 0 181 0 c 17
 20 0 l 17xf0
 27 685 l 17xe8
EndSplineSet
Validated: 1
EndChar

StartChar: l
Encoding: 108 108 45
Width: 219
Flags: W
HStem: 0 21G<20 199> 665 20G<25.8248 186>
VStem: 20 179<0 365.615> 26 160<313.385 679>
AnchorPoint: "Anchor-2" 116 -14 basechar 0
AnchorPoint: "Anchor-0" 113 709 basechar 0
LayerCount: 2
Fore
SplineSet
26 685 m 17xd0
 186 679 l 25xd0
 199 0 l 25
 20 0 l 25xe0
 26 685 l 17xd0
EndSplineSet
Validated: 1
EndChar

StartChar: n
Encoding: 110 110 46
Width: 532
Flags: W
HStem: 0 21G<25.7363 196> 334 152<248.473 343>
VStem: 26 170<0 331> 343 169<0.142483 332.216>
AnchorPoint: "Anchor-2" 268 -14 basechar 0
AnchorPoint: "Anchor-0" 284 499 basechar 0
LayerCount: 2
Fore
SplineSet
20 455 m 1
 152 456 l 1
 164 419 l 1
 164 419 249 486 357 486 c 0
 465 486 512 418 512 307 c 16
 512 196 508 0 508 0 c 25
 339 -5 l 25
 343 334 l 25
 191 331 l 25
 196 0 l 25
 26 0 l 25
 20 455 l 1
EndSplineSet
Validated: 1
Substitution2: "Single Substitution lookup 33 subtable" n.ss01
Substitution2: "'ss01' Style Set 1 in Latin lookup 0-1" n.ss01
EndChar

StartChar: p
Encoding: 112 112 47
Width: 550
Flags: W
HStem: -14 140<209.023 340.18> 322 165<222.923 336.523> 444 20G<136 139.273>
VStem: 20 170<168.111 319> 26 155<125 275.889> 344 191<127.01 319.763>
AnchorPoint: "Anchor-2" 286 -54 basechar 0
AnchorPoint: "Anchor-0" 284 519 basechar 0
LayerCount: 2
Fore
SplineSet
190 319 m 1xd4
 181 125 l 25xcc
 344 126 l 1
 338 322 l 25
 190 319 l 1xd4
20 456 m 25xd4
 65 459 136 464 136 464 c 25xb4
 145 409 l 25
 145 409 218 487 306 487 c 16
 394 487 535 422 535 233 c 16
 535 44 367 -14 304 -14 c 16
 241 -14 209 8 209 8 c 25
 205 -212 l 25
 26 -211 l 25xcc
 20 456 l 25xd4
EndSplineSet
Validated: 1
Substitution2: "Single Substitution lookup 33 subtable" p.ss01
Substitution2: "'ss01' Style Set 1 in Latin lookup 0-1" p.ss01
EndChar

StartChar: q
Encoding: 113 113 48
Width: 585
Flags: W
HStem: -34 166<217.711 307.77> 322 160<225.443 359.269> 440 20G<451.333 561>
VStem: 15 202<135.701 320.241> 367 198<-225 31> 395 166<127 316>
LayerCount: 2
Fore
SplineSet
221 322 m 9xd4
 217 132 l 25
 395 127 l 25
 389 316 l 25
 221 322 l 9xd4
255 482 m 0
 388 482 434 400 434 400 c 25
 460 460 l 25
 561 452 l 25xb4
 565 -225 l 25
 367 -226 l 25xb8
 369 31 l 25
 369 31 308 -34 228 -34 c 0
 118 -34 15 59 15 218 c 0
 15 377 92 482 255 482 c 0
EndSplineSet
Validated: 1
EndChar

StartChar: w
Encoding: 119 119 49
Width: 792
Flags: W
HStem: 0 21G<132.249 330.484 459.194 671.137> 473 20G<51.7037 192.162 337 525.142 653.118 788>
AnchorPoint: "Anchor-2" 398 -14 basechar 0
AnchorPoint: "Anchor-0" 427 509 basechar 0
LayerCount: 2
Fore
SplineSet
4 466 m 17
 188 493 l 25
 260 147 l 25
 337 479 l 25
 521 482 l 25
 591 144 l 25
 657 484 l 25
 788 475 l 25
 666 0 l 25
 465 0 l 25
 393 248 l 25
 325 0 l 25
 138 0 l 25
 4 466 l 17
EndSplineSet
Validated: 1
EndChar

StartChar: r
Encoding: 114 114 50
Width: 442
Flags: W
HStem: 0 21G<27.6529 212> 444 20G<20 155.692>
VStem: 20 185<57.625 336> 28 184<0 336>
AnchorPoint: "Anchor-2" 118 -14 basechar 0
AnchorPoint: "Anchor-0" 234 519 basechar 0
LayerCount: 2
Fore
SplineSet
20 461 m 17xe0
 152 464 l 25
 164 399 l 25
 164 399 207 482 292 482 c 0
 377 482 414 416 425 366 c 16
 436 316 431 240 431 240 c 1
 271 240 l 17
 272 336 l 0
 205 336 l 25xe0
 212 0 l 25
 28 0 l 25xd0
 20 461 l 17xe0
EndSplineSet
Validated: 33
Substitution2: "Single Substitution lookup 33 subtable" r.ss01
Substitution2: "'ss02' Style Set 2 in Latin lookup 1-1" r.ss02
Substitution2: "'ss01' Style Set 1 in Latin lookup 0-1" r.ss01
EndChar

StartChar: y
Encoding: 121 121 51
Width: 488
Flags: W
HStem: -264 182<69.5371 130> -264 113<134.981 194.132>
AnchorPoint: "Anchor-2" 426 -64 basechar 0
AnchorPoint: "Anchor-0" 273 499 basechar 0
LayerCount: 2
Fore
SplineSet
0 465 m 9x40
 195 -45 l 25
 197 -146 l 25
 134 -151 l 25x40
 130 -82 l 25x80
 0 -84 l 1
 0 -84 -5.4375 -167.299804688 28 -204 c 0
 69 -249 92 -264 154 -264 c 0
 284.477539062 -264 337.96484375 -140.958984375 377 33 c 0
 423 238 488 452 488 452 c 1
 346 480 l 25
 276 132 l 25
 185 474 l 25
 0 465 l 9x40
EndSplineSet
Validated: 41
EndChar

StartChar: u
Encoding: 117 117 52
Width: 529
Flags: W
HStem: 0 21G<351.213 509> 439 20G<26 194.708 329.308 505>
VStem: 20 170<118.986 455.908> 334 175<134 455>
AnchorPoint: "Anchor-2" 258 -34 basechar 0
AnchorPoint: "Anchor-3" 408 28 basechar 0
AnchorPoint: "Anchor-0" 268 499 basechar 0
LayerCount: 2
Fore
SplineSet
26 456 m 17
 195 459 l 25
 190 117 l 25
 334 134 l 25
 329 459 l 25
 505 455 l 25
 509 0 l 25
 361 0 l 0
 338 47 l 25
 338 47 267 -35 173 -35 c 16
 79 -35 20 16 20 173 c 16
 20 330 26 456 26 456 c 17
EndSplineSet
Validated: 1
Substitution2: "Single Substitution lookup 33 subtable" u.ss01
Substitution2: "'ss01' Style Set 1 in Latin lookup 0-1" u.ss01
EndChar

StartChar: x
Encoding: 120 120 53
Width: 497
Flags: W
AnchorPoint: "Anchor-0" 277 506 basechar 0
AnchorPoint: "Anchor-2" 233 -24 basechar 0
LayerCount: 2
Fore
SplineSet
12 459 m 9
 151 243 l 25
 151 243 -10 1 -10 0 c 8
 -10 -1 140 -36 140 -36 c 25
 224 137 l 25
 290 -14 l 25
 507 0 l 25
 370 262 l 25
 482 464 l 25
 344 474 l 25
 271 342 l 25
 203 496 l 17
 12 459 l 9
EndSplineSet
Validated: 9
EndChar

StartChar: v
Encoding: 118 118 54
Width: 470
Flags: W
HStem: 0 21G<146.807 333.552> 464 20G<44.8571 186.727 333.155 480>
AnchorPoint: "Anchor-0" 260 506 basechar 0
AnchorPoint: "Anchor-2" 243 -24 basechar 0
LayerCount: 2
Fore
SplineSet
-10 456 m 17
 182 484 l 25
 260 154 l 25
 338 476 l 25
 480 467 l 25
 327 0 l 25
 154 0 l 25
 -10 456 l 17
EndSplineSet
Validated: 1
EndChar

StartChar: seven
Encoding: 55 55 55
Width: 497
Flags: W
HStem: 529 169<22 297> 536 165<22 297>
LayerCount: 2
Fore
SplineSet
20 698 m 17x80
 476 701 l 25
 477 562 l 17
 395 411 354.443068285 292.561397092 259 -4 c 9
 55 20 l 17
 117.03125 192.000976562 202.33203125 364.001953125 297 536 c 13x40
 22 529 l 25
 20 698 l 17x80
EndSplineSet
Validated: 1
EndChar

StartChar: two
Encoding: 50 50 56
Width: 526
Flags: W
HStem: 0 170<217.75 496> 0 162<178 456.25> 568 149<192.216 317.393>
VStem: 10 183<438 561.579> 15 163<163.836 221> 326 185<415 565.014>
LayerCount: 2
Fore
SplineSet
10 432 m 17x74
 14 618 89 717 258 717 c 0
 427 717 511 608 511 500 c 0
 511 415.946289062 477.92578125 321.73828125 353 276 c 4
 239.858398438 234.576171875 180 221 180 221 c 25
 178 162 l 25x6c
 496 170 l 25xac
 497 0 l 25
 24 0 l 1
 24 0 15 100 15 167 c 0x6c
 15 285 63 344 165 372 c 0
 267 400 326 415 326 415 c 1
 322 568 l 25
 192 566 l 25
 193 438 l 25
 10 432 l 17x74
EndSplineSet
Validated: 1
EndChar

StartChar: one
Encoding: 49 49 57
Width: 317
Flags: W
HStem: 0 21G<112.962 297> 529 129<12 110.279>
VStem: 112 177<87.375 533> 113 184<0 533>
LayerCount: 2
Fore
SplineSet
12 658 m 17xe0
 157 667 289 699 289 699 c 25xe0
 297 0 l 25
 113 0 l 25xd0
 112 533 l 17
 80 527 44 525.623046875 10 529 c 9
 12 658 l 17xe0
EndSplineSet
EndChar

StartChar: backslash
Encoding: 92 92 58
Width: 424
Flags: W
LayerCount: 2
Fore
SplineSet
97.6455078125 745.204101562 m 1
 97.6455078125 745.204101562 177.806640625 510.40625 229 381 c 0
 304.674804688 189.708007812 414.62109375 -68.9140625 414.62109375 -68.9140625 c 1
 319.180664062 -89.9599609375 l 1
 319.180664062 -89.9599609375 237.969726562 182.166015625 169.484375 345.060546875 c 0
 99.18359375 512.272460938 10 718.217773438 10 718.217773438 c 1
 97.6455078125 745.204101562 l 1
EndSplineSet
Validated: 1
EndChar

StartChar: three
Encoding: 51 51 59
Width: 571
Flags: W
HStem: -17 147<213.912 354.221> 277 158<196 329> 458 21G<15 200.823> 569 149<201.234 327.795>
VStem: 333 184<440.45 568.426> 357 199<137.099 277.186>
LayerCount: 2
Fore
SplineSet
15 463 m 17xf8
 24 626 136 718 277 718 c 0
 418 718 517 627 517 527 c 0xf8
 517 397 406 372 406 372 c 29
 406 372 556 346 556 195 c 0
 556 104 493 -17 269 -17 c 0
 15 -17 10 222 10 222 c 25
 209 224 l 25
 207 130 l 1
 357 133 l 1xf4
 358 280 l 1
 196 277 l 1
 194 435 l 25
 329 430 l 1
 333 569 l 25
 200 571 l 25
 201 458 l 25
 15 463 l 17xf8
EndSplineSet
Validated: 1
EndChar

StartChar: four
Encoding: 52 52 60
Width: 592
Flags: W
HStem: 0 21G<264 472> 168 139<153 267> 171 151<467 570>
VStem: 264 208<0 168> 267 198<0 168> 305 162<322 520.375> 313 157<336.625 551>
LayerCount: 2
Fore
SplineSet
313 551 m 9xc2
 153 307 l 25
 305 306 l 25xc4
 313 551 l 9xc2
294 705 m 17
 470 690 l 25xc2
 467 322 l 25xa4
 570 326 l 25
 572 170 l 25
 465 171 l 29xa8
 472 0 l 29
 264 0 l 25xb0
 267 168 l 25xc8
 16 165 l 25
 10 312 l 25
 294 705 l 17
EndSplineSet
Validated: 1
EndChar

StartChar: five
Encoding: 53 53 61
Width: 545
Flags: W
HStem: -12 135<190.013 324.334> 324 141<187.694 331.958> 549 161<147 467>
VStem: 330 200<139.189 322.235>
LayerCount: 2
Fore
SplineSet
147 549 m 17
 147 417 l 25
 147 417 194 465 294 465 c 0
 464 465 530 342 530 238 c 0
 530 134 460 -12 253 -12 c 0
 6 -12 13 222 13 222 c 25
 193 222 l 25
 187 123 l 25
 330 124 l 25
 332 324 l 25
 164 329 l 25
 153 280 l 25
 10 286 l 25
 41 710 l 25
 478 710 l 25
 467 548 l 25
 147 549 l 17
EndSplineSet
Validated: 33
EndChar

StartChar: six
Encoding: 54 54 62
Width: 578
Flags: W
HStem: -18 153<202.011 357.251> 295 154<258.934 350> 494 21G<378.437 549> 566 149<217.412 372.052>
VStem: 15 192<275.571 299 402 523.745>
LayerCount: 2
Fore
SplineSet
207 299 m 1
 200 135 l 1
 361 137 l 1
 350 295 l 1
 207 299 l 1
300 715 m 0
 545 715 549 500 549 500 c 25
 379 494 l 25
 377 565 l 25
 213 566 l 25
 211 402 l 25
 211 402 277 449 356 449 c 16
 435 449 563 410 563 258 c 16
 563 106 473 -18 283 -18 c 16
 93 -18 15 157 15 340 c 16
 15 523 55 715 300 715 c 0
EndSplineSet
Validated: 1
Substitution2: "Single Substitution lookup 33 subtable" six.ss01
Substitution2: "'ss01' Style Set 1 in Latin lookup 0-1" six.ss01
EndChar

StartChar: eight
Encoding: 56 56 63
Width: 607
Flags: W
HStem: -16 21G<205 380> -16 21G<205 380> 294.371 141.629<227.8 366.75> 571 163<230.656 366.414>
VStem: 15 200.253<131.402 280.997> 27 200.8<440.051 568.951> 372.65 184.35<456.31 576.221> 391.146 205.854<150.639 221.739>
LayerCount: 2
Fore
SplineSet
213.370117188 294.37109375 m 5x39
 215.252929688 128.307617188 l 5
 391.145507812 151.564453125 l 5
 376.231445312 301.077148438 l 5
 213.370117188 294.37109375 l 5x39
224 571 m 1
 227.799804688 436 l 25
 366.75 434 l 1
 372.650390625 577 l 25x36
 224 571 l 1
27 525 m 0
 27 630 111 734 295 734 c 0
 479 734 557 635 557 534 c 0xb6
 557 423 453 382 453 382 c 25
 453 382 597 368 597 210 c 0
 597 72 475 -16 285 -16 c 0
 125 -16 15 70 15 190 c 0xb9
 15 330 131 367 131 367 c 25
 131 367 27 400 27 525 c 0
EndSplineSet
EndChar

StartChar: nine
Encoding: 57 57 64
Width: 591
Flags: W
HStem: -18 154<229.578 386.181> 258 160<218.064 359.24> 577 159<230.31 367.231>
VStem: 389 187<202.219 298>
LayerCount: 2
Fore
SplineSet
230 577 m 9
 218 418 l 1
 382 412 l 25
 371 581 l 1
 230 577 l 9
576 374 m 0
 576 112 464 -18 272 -18 c 0
 31 -18 31 225 31 225 c 25
 219 215 l 29
 221 136 l 25
 389 138 l 25
 395 298 l 25
 395 298 337 258 245 258 c 0
 153 258 15 312 15 486 c 8
 15 660 149 736 299 736 c 0
 449 736 576 636 576 374 c 0
EndSplineSet
Validated: 1
Substitution2: "Single Substitution lookup 33 subtable" nine.ss01
Substitution2: "'ss01' Style Set 1 in Latin lookup 0-1" nine.ss01
EndChar

StartChar: zero
Encoding: 48 48 65
Width: 585
Flags: W
HStem: -7 177<228.625 353.328> 556 166<210.687 365.903>
VStem: 15 195<188.614 525.532> 372 198<349.077 529.501>
LayerCount: 2
Fore
SplineSet
206 556 m 9
 210 178 l 9
 359 170 l 9
 372 558 l 9
 206 556 l 9
15 367 m 4
 15 592 110 722 288 722 c 0
 466 722 570 604 570 364 c 20
 570 124 478 -7 286 -7 c 16
 94 -7 15 142 15 367 c 4
EndSplineSet
Validated: 1
Substitution2: "Single Substitution lookup 33 subtable" zero.ss01
Substitution2: "'ss01' Style Set 1 in Latin lookup 0-1" zero.ss01
EndChar

StartChar: question
Encoding: 63 63 66
Width: 547
Flags: W
HStem: 0 200<158.475 307.056> 232 184<164 304> 487 21G<10 191.626> 592 136<192.812 348.146>
VStem: 114 235<43.8911 160.661> 347 185<423.676 586.577>
LayerCount: 2
Fore
SplineSet
230 200 m 0xf8
 299 200 349 159 349 105 c 0
 349 51 314 0 236 0 c 8
 158 0 114 48 114 108 c 0
 114 168 161 200 230 200 c 0xf8
10 492 m 17
 26 689 166 728 282 728 c 0
 398 728 532 683 532 507 c 0
 532 346.704005024 415.332533393 308 350 308 c 0
 323 308 304 312 304 312 c 1
 312 238 l 1
 164 232 l 1
 148 416 l 1
 347 420 l 25xf4
 351 592 l 25
 190 594 l 25
 192 487 l 25
 10 492 l 17
EndSplineSet
Validated: 1
EndChar

StartChar: ampersand
Encoding: 38 38 67
Width: 616
Flags: W
HStem: -11 149<200.225 315.848> 594 111<240.715 343>
VStem: 9 187<140.605 286> 75 158<470.86 593.407> 352 125<473.161 567.778>
LayerCount: 2
Fore
SplineSet
200 286 m 13xe8
 196 138 l 29
 363 142 l 29
 242 302 l 29
 200 286 l 13xe8
238 594 m 5
 233 468 l 29xd8
 352 469 l 29
 343 596 l 29
 238 594 l 5
75 542 m 4
 75 664 216 705 279 705 c 4
 342 705 477 677 477 540 c 20
 477 403 343 367 343 367 c 29
 436 263 l 29
 429 368 l 29
 554 370 l 29
 554 370 562 338 562 297 c 4
 562 206 499 173 499 173 c 29
 608 18 l 29
 422 -6 l 29
 383 61 l 29
 383 61 337 -11 205 -11 c 4
 103 -11 9 58 9 194 c 4xe8
 9 370 171 392 171 392 c 29
 171 392 75 420 75 542 c 4
EndSplineSet
Validated: 1
EndChar

StartChar: period
Encoding: 46 46 68
Width: 276
Flags: W
HStem: 0 226<71.9028 211.474>
VStem: 20 236<51.0358 178.495>
LayerCount: 2
Fore
SplineSet
140 226 m 0
 214 226 256 175 256 115 c 8
 256 55 219 0 143 0 c 8
 67 0 20 58 20 114 c 0
 20 170 66 226 140 226 c 0
EndSplineSet
Validated: 1
EndChar

StartChar: slash
Encoding: 47 47 69
Width: 424
Flags: W
LayerCount: 2
Fore
SplineSet
326.975585938 749.204101562 m 1
 414.62109375 718.217773438 l 1
 414.62109375 718.217773438 325.4375 512.272460938 255.13671875 345.060546875 c 0
 186.651367188 182.166015625 105.440429688 -89.9599609375 105.440429688 -89.9599609375 c 5
 10 -56.9140625 l 5
 10 -56.9140625 108.541015625 166.309570312 184.215820312 357.6015625 c 0
 235.409179688 487.0078125 326.975585938 749.204101562 326.975585938 749.204101562 c 1
EndSplineSet
Validated: 1
EndChar

StartChar: comma
Encoding: 44 44 70
Width: 267
Flags: W
HStem: -4 221<65.7207 151.105>
VStem: 151 96<-47.0005 2>
LayerCount: 2
Fore
SplineSet
20 98 m 0
 20 186 87 217 133 217 c 0
 179 217 247 185 247 59 c 0
 247 -177 48 -140 48 -140 c 25
 43 -48 l 25
 151 -50 l 1
 152 2 l 1
 152 2 134.3046875 -4 109 -4 c 0
 57 -4 20 29.2841796875 20 98 c 0
EndSplineSet
Validated: 33
EndChar

StartChar: at
Encoding: 64 64 71
Width: 732
Flags: W
HStem: -2 72<194.029 520.978> 151.8 99.6299<306.247 386.117> 164 67.1328<531.472 631.128> 381.81 97.1709<313.177 382.884> 586 71<245.98 526.845>
VStem: 15 60<179.758 421.775> 182.03 123<252.887 357.437> 387.44 134.56<257.58 375.66> 663 54<267.433 471.592>
LayerCount: 2
Fore
SplineSet
15 301 m 0xbf80
 15 512 133 657 381 657 c 0
 601 657 717 563.89453125 717 378 c 0
 717 222 651.870117188 164 577 164 c 0xbf80
 504.58984375 164 469 226 469 226 c 1
 469 226 437 151.799804688 336.629882812 151.799804688 c 0xdf80
 239.705078125 151.799804688 181.661132812 232.857421875 182.030273438 319.080078125 c 0
 182.344726562 392.633789062 225.080078125 478.98046875 332.08984375 478.98046875 c 0
 401.831054688 478.98046875 437.870117188 433.469726562 437.870117188 433.469726562 c 1
 437.247070312 473.567382812 l 1
 537 470 l 1
 537 470 522 368 522 286 c 0
 522 254 538.49609375 231.1328125 581 231.1328125 c 0
 623 231.1328125 663 258.520507812 663 377 c 0
 663 521 553 586 377 586 c 0
 210.263671875 586 75 508 75 294 c 0
 75 119.954029061 176 70 335 70 c 0
 520 70 645 122 645 122 c 1
 659 66 l 1
 659 66 525 -2 337 -2 c 0
 119 -2 15 90 15 301 c 0xbf80
313.639648438 381.809570312 m 1
 305.030273438 251.4296875 l 25xdf80
 387.440429688 257.580078125 l 25
 383.75 375.66015625 l 25
 313.639648438 381.809570312 l 1
EndSplineSet
EndChar

StartChar: percent
Encoding: 37 37 72
Width: 699
Flags: W
HStem: -38 113.025<480.536 570.272> 213.625 98.375<486.414 569.156> 323 118.725<150.286 227.609> 539 56<335.415 475.05> 566.568 107.432<143.051 232.796>
VStem: 15 131.932<442.617 566.188> 230.942 107.058<444.272 550.993> 362 116.7<75.9062 212.274> 569.35 114.65<78.7093 209.912>
LayerCount: 2
Fore
SplineSet
142.645507812 566.568359375 m 1xef80
 146.931640625 441.724609375 l 25
 230.942382812 441.724609375 l 25
 233.514648438 564.540039062 l 25
 142.645507812 566.568359375 l 1xef80
483.599609375 213.625 m 1
 478.700195312 75.025390625 l 25
 573.025390625 76.2626953125 l 25
 569.349609375 209.912109375 l 25
 483.599609375 213.625 l 1
528 312 m 0
 648 312 684 228 684 146 c 0
 684 64 642 -38 518 -38 c 8
 394 -38 362 62 362 132 c 0
 362 202 408 312 528 312 c 0
180 674 m 0
 249.754882812 674 311 618 311 618 c 1
 311 618 342.180664062 595 394 595 c 0
 501 595 569 699 569 699 c 25
 671 666 l 25
 671 666 525 506 371 300 c 8
 217 94 115 -46 115 -46 c 5
 37 4 l 29
 37 4 171.875976562 132.340820312 341 367 c 0
 421 478 511 583 511 583 c 1
 511 583 458 539 403 539 c 0xf780
 348 539 335 551 335 551 c 1
 335 551 338 541 338 497 c 0
 338 453 297 323 177 323 c 0
 57 323 15 429 15 510 c 0
 15 591 76 674 180 674 c 0
EndSplineSet
Validated: 1
EndChar

StartChar: asterisk
Encoding: 42 42 73
Width: 363
Flags: W
HStem: 397 316 664 20G<78.4646 111.481>
VStem: 20 319
LayerCount: 2
Fore
SplineSet
164 713 m 1xa0
 287 678 l 25
 235 593 l 1
 334 612 l 29
 339 515 l 1
 233 530 l 25
 300 424 l 25
 187 397 l 25xa0
 173 508 l 25
 90 407 l 25
 20 504 l 25
 126 550 l 25
 25 585 l 25
 92 684 l 1x60
 167 607 l 25
 164 713 l 1xa0
EndSplineSet
Validated: 1
EndChar

StartChar: parenright
Encoding: 41 41 74
Width: 224
Flags: W
VStem: 145 64<204.354 410.49>
LayerCount: 2
Fore
SplineSet
31 703 m 1
 101 716 l 25
 101 716 209 560 209 306 c 16
 209 52 83 -170 83 -170 c 1
 15 -152 l 25
 15 -152 145 240 145 308 c 4
 145 376 31 703 31 703 c 1
EndSplineSet
Validated: 1
EndChar

StartChar: parenleft
Encoding: 40 40 75
Width: 236
Flags: W
VStem: 15 78<156.767 406.387>
LayerCount: 2
Fore
SplineSet
167 730 m 5
 221 686 l 25
 221 686 93 418 93 286 c 16
 93 154 219 -146 219 -146 c 25
 159 -170 l 29
 159 -170 15 80 15 290 c 16
 15 500 167 730 167 730 c 5
EndSplineSet
Validated: 1
EndChar

StartChar: hyphen
Encoding: 45 45 76
Width: 291
Flags: W
HStem: 190 130<26 265>
VStem: 20 251<190 320>
LayerCount: 2
Fore
SplineSet
26 320 m 5
 265 325 l 29
 271 185 l 29
 20 190 l 29
 26 320 l 5
EndSplineSet
Validated: 1
EndChar

StartChar: plus
Encoding: 43 43 77
Width: 425
Flags: W
HStem: 286.409 130.149<30.8457 150.15> 286.409 119.304<275.651 399.604>
VStem: 143.953 128.6<156.259 286.409>
LayerCount: 2
Fore
SplineSet
153.249023438 549.806640625 m 1xa0
 284.948242188 552.90625 l 25
 275.651367188 405.712890625 l 29
 405.80078125 410.361328125 l 29
 399.603515625 281.760742188 l 29
 271.00390625 286.409179688 l 29x60
 272.552734375 156.258789062 l 25
 143.953125 154.709960938 l 25
 150.150390625 286.409179688 l 29
 20 287.958007812 l 29
 30.845703125 418.107421875 l 29
 159.446289062 416.55859375 l 29
 153.249023438 549.806640625 l 1xa0
EndSplineSet
Validated: 1
EndChar

StartChar: equal
Encoding: 61 61 78
Width: 391
Flags: W
HStem: 179 129<40 323.125> 186 130<65.875 360> 380 130<26 365>
LayerCount: 2
Fore
SplineSet
23 308 m 5xa0
 366 316 l 5
 360 186 l 5x60
 40 179 l 5
 23 308 l 5xa0
26 510 m 1
 365 515 l 25
 371 375 l 25
 20 380 l 25
 26 510 l 1
EndSplineSet
Validated: 1
EndChar

StartChar: colon
Encoding: 58 58 79
Width: 276
Flags: W
HStem: 0 226<71.5625 206.743> 270 224<66.3749 202.906>
VStem: 20 236<50.7678 175.653> 21 228<316.227 447.438>
LayerCount: 2
Fore
SplineSet
134 494 m 4xd0
 208 494 249 445 249 385 c 4
 249 325 209 270 133 270 c 4
 57 270 21 324 21 380 c 4
 21 436 60 494 134 494 c 4xd0
143 226 m 4
 217 226 256 183 256 123 c 4
 256 63 215 0 139 0 c 4
 63 0 20 47 20 114 c 4xe0
 20 170 69 226 143 226 c 4
EndSplineSet
Validated: 1
EndChar

StartChar: semicolon
Encoding: 59 59 80
Width: 267
Flags: W
HStem: -4 221<65.5479 151.525> 269 225<66.8984 200.151>
VStem: 21 226<24.8174 160.093 314.33 448.054>
LayerCount: 2
Fore
SplineSet
128 494 m 0
 202 494 246 442 246 382 c 0
 246 322 213 269 137 269 c 0
 61 269 21 325 21 381 c 0
 21 437 54 494 128 494 c 0
21 90 m 0
 21 178 77 217 123 217 c 0
 169 217 247 192 247 66 c 0
 247 -170 51 -138 51 -138 c 1
 52 -48 l 1
 155 -43 l 1
 152 2 l 1
 152 2 134.3046875 -4 109 -4 c 0
 57 -4 21 21.2841796875 21 90 c 0
EndSplineSet
Validated: 33
EndChar

StartChar: dollar
Encoding: 36 36 81
Width: 592
Flags: W
HStem: 83 123<340 425.47> 298 150<326 419.028> 479 21G<398.355 542> 541 106<174.601 238>
VStem: 29 143<447.881 542.331> 215 127<-7 83> 238 106<647 732> 243 83<209 298> 255 71<448 541> 426 147<207.08 291.579>
LayerCount: 2
Fore
SplineSet
326 298 m 1xf940
 324 207 l 25
 426 206 l 25
 423 295 l 25
 326 298 l 1xf940
174 545 m 1
 172 447 l 25
 256 446 l 25
 255 541 l 25xf8c0
 174 545 l 1
29 482 m 0
 29 616 185 647 238 647 c 9
 236 732 l 25
 345 732 l 25
 344 645 l 1xfa40
 344 645 368.838867188 643.118164062 418 634 c 0
 542 611 542 486 542 486 c 1
 399 479 l 25
 397 541 l 25
 326 542 l 25xf8c0
 325 448 l 17
 443.275390625 445.232421875 573 409 573 266 c 0
 573 125 456.298867344 85.2638848291 340 83 c 9
 342 -9 l 25
 215 -7 l 1xfc40
 219 102 l 25
 219 102 193.941548082 103.033340413 161 106 c 0
 27.302488125 118.040569689 26 254 26 254 c 25
 171 258 l 25
 169 208 l 25
 244 209 l 25
 243 298 l 17xf940
 143.3125 307.490234375 29 353 29 482 c 0
EndSplineSet
Validated: 1
EndChar

StartChar: cent
Encoding: 162 162 82
Width: 592
Flags: W
VStem: 15 160<253.151 436.778> 244 110<635 719> 251 85<248 490>
LayerCount: 2
Fore
SplineSet
184 491 m 9xa0
 175 247 l 9
 251 248 l 9
 246 490 l 9
 184 491 l 9xa0
15 366 m 0
 15 620 240 631 240 631 c 25
 244 719 l 25
 354 719 l 17xc0
 352 635 l 1
 352 635 391.604719576 634.025222428 425 626 c 0
 554 595 569 432 569 432 c 25
 397 423 l 25
 396 492 l 25
 341 491 l 25
 336 245 l 25xa0
 410 244 l 25
 414 308 l 25
 568 313 l 1
 568 313 557.1875 186.572265625 485 140 c 0
 423 100 354 100 354 100 c 1xc0
 368 -18 l 25
 225 -19 l 25
 232 86 l 25
 232 86 15 109 15 366 c 0
EndSplineSet
Validated: 1
EndChar

StartChar: emdash
Encoding: 8212 8212 83
Width: 600
Flags: W
HStem: 187 107<22 577>
LayerCount: 2
Fore
SplineSet
20 296 m 1
 580 294 l 25
 577 187 l 25
 22 193 l 25
 20 296 l 1
EndSplineSet
Validated: 1
EndChar

StartChar: grave
Encoding: 96 96 84
Width: 208
Flags: W
HStem: 442.55 212.45
VStem: 20 168
LayerCount: 2
Fore
SplineSet
136 655 m 1
 146.056640625 591.75 166.545898438 525.577148438 188 457 c 9
 141.922851562 442.549804688 l 1
 94.3486328125 494.122070312 48.6494140625 578.836914062 20 633 c 0
 136 655 l 1
EndSplineSet
Validated: 1
EndChar

StartChar: greater
Encoding: 62 62 85
Width: 367
Flags: W
VStem: 20 327
LayerCount: 2
Fore
SplineSet
29 523 m 1
 342 404 l 1
 347 284 l 1
 20 184 l 5
 24 314 l 1
 245 348 l 25
 33 396 l 1
 29 523 l 1
EndSplineSet
Validated: 1
EndChar

StartChar: quoteright
Encoding: 8217 8217 86
Width: 267
Flags: W
HStem: 477 215<66.2675 140.168>
VStem: 141 106<432.815 482>
LayerCount: 2
Fore
SplineSet
20 578 m 0
 20 666 92 692 138 692 c 0
 184 692 247 665 247 539 c 0
 247 303 42 338 42 338 c 25
 43 432 l 1
 141 430 l 1
 142 482 l 1
 142 482 129.3046875 477 104 477 c 0
 52 477 20 509.284179688 20 578 c 0
EndSplineSet
Validated: 33
EndChar

StartChar: quoteleft
Encoding: 8216 8216 87
Width: 267
Flags: W
HStem: 338 215<125.009 201.031> 672 20G<224.787 225>
VStem: 20 226<384.777 522.818>
LayerCount: 2
Fore
SplineSet
246 452 m 0
 246 374 190 338 124 338 c 0
 78 338 20 365 20 481 c 0
 20 727 225 692 225 692 c 25
 224 598 l 1
 130 591 l 1
 125 548 l 1
 125 548 137.6953125 553 163 553 c 0
 215 553 246 510.715820312 246 452 c 0
EndSplineSet
Validated: 33
EndChar

StartChar: quotedblleft
Encoding: 8220 8220 88
Width: 519
Flags: W
HStem: 338 215<125.009 201.031 378.402 456.669> 672 20G<224.787 225>
VStem: 20 226<384.777 522.818>
LayerCount: 2
Fore
SplineSet
501 459 m 0
 501 381 451 337 385 337 c 0
 339 337 272 365 272 481 c 0
 272 727 472 697 472 697 c 5
 477 590 l 1
 376 589 l 1
 377 548 l 1
 377 548 392.6953125 554 418 554 c 0
 470 554 501 517.715820312 501 459 c 0
246 452 m 0
 246 374 190 338 124 338 c 0
 78 338 20 365 20 481 c 0
 20 727 225 692 225 692 c 25
 224 598 l 1
 130 591 l 1
 125 548 l 1
 125 548 137.6953125 553 163 553 c 0
 215 553 246 510.715820312 246 452 c 0
EndSplineSet
Validated: 33
EndChar

StartChar: quotedblright
Encoding: 8221 8221 89
Width: 517
Flags: W
HStem: 475 217<313.342 391.987> 477 215<66.2675 140.168>
VStem: 141 106<432.815 482> 266 231<498.702 635.408>
LayerCount: 2
Fore
SplineSet
266 571 m 0xb0
 266 659 332 692 378 692 c 0
 424 692 497 665 497 539 c 0
 497 303 298 338 298 338 c 1
 288 424 l 1
 400 440 l 5
 392 482 l 1
 392 482 374.3046875 475 349 475 c 0
 297 475 266 502.284179688 266 571 c 0xb0
20 578 m 0
 20 666 92 692 138 692 c 0
 184 692 247 665 247 539 c 0
 247 303 42 338 42 338 c 25
 43 432 l 1
 141 430 l 1
 142 482 l 1
 142 482 129.3046875 477 104 477 c 0x70
 52 477 20 509.284179688 20 578 c 0
EndSplineSet
Validated: 33
EndChar

StartChar: dagger
Encoding: 8224 8224 90
Width: 524
Flags: W
HStem: 332 171<26 144.444>
LayerCount: 2
Fore
SplineSet
170 719 m 1
 368 719 l 1
 348 509 l 1
 498 515 l 1
 504 327 l 29
 344 339 l 29
 374 -217 l 25
 164 -223 l 25
 180 341 l 1
 20 332 l 25
 26 503 l 1
 188 503 l 25
 170 719 l 1
EndSplineSet
Validated: 1
EndChar

StartChar: daggerdbl
Encoding: 8225 8225 91
Width: 524
Flags: W
HStem: 30 175<26 162.208 359.365 498> 30.3584 166.38<26 173.925> 358 167<404.833 498> 363 150<26 152.222> 372 141<57.7778 190 350 419>
VStem: 173.925 185.44<-94.0226 24.2314> 183 177<579 719> 190 144<201.135 370> 192 158<519 659>
LayerCount: 2
Fore
SplineSet
183 719 m 1x0a
 360 719 l 1x0a
 350 519 l 1x0880
 498 525 l 1
 504 358 l 1
 334 370 l 1
 339.8203125 201.134765625 l 5
 498 205 l 5
 504 30 l 5xa1
 359.365234375 24.2314453125 l 5
 374 -223 l 1
 164 -219 l 1
 173.924804688 30.3583984375 l 5x44
 20 31 l 5
 26 203 l 5
 186.758789062 196.73828125 l 5
 190 372 l 1x49
 20 363 l 1
 26 513 l 1x11
 192 513 l 1x0880
 183 719 l 1x0a
EndSplineSet
Validated: 1
EndChar

StartChar: numbersign
Encoding: 35 35 92
Width: 663
Flags: W
HStem: 172 68<226.046 367.607 452.114 596.092> 447 62<75.707 217.211 299.817 445.274 524.846 640.532> 664 20G<504.425 585.087>
LayerCount: 2
Fore
SplineSet
289.3203125 445 m 1
 226.045898438 240 l 25
 380.18359375 234 l 25
 445.274414062 447 l 25
 289.3203125 445 l 1
281.100585938 689 m 1
 355.100585938 689 l 1
 355.100585938 689 325.594726562 582 299.75390625 513 c 25
 299.75390625 513 386.594726562 514 456.70703125 515 c 25
 456.70703125 515 491.594726562 618 517.255859375 684 c 25
 585.086914062 683 l 1
 585.086914062 683 550.594726562 577 524.845703125 509 c 25
 643.845703125 509 l 1
 643.845703125 509 641.594726562 471 640.274414062 447 c 25
 510.206054688 450 l 1
 452.114257812 237 l 9
 596.091796875 238 l 9
 600.727539062 167 l 9
 441.534179688 166 l 9
 441.534179688 166 418.594726562 64 403.365234375 -1 c 25
 403.365234375 -1 351.594726562 -2 322.411132812 -3 c 25
 322.411132812 -3 349.594726562 103 367.673828125 170 c 25
 367.673828125 170 275.594726562 171 210.266601562 172 c 25
 210.266601562 172 176.594726562 65 155.686523438 -3 c 25
 155.686523438 -3 103.594726562 -1 76.8876953125 0 c 25
 76.8876953125 0 111.594726562 109 133.515625 178 c 25
 133.515625 178 66.5947265625 177 23.5205078125 176 c 25
 23.5205078125 176 21.5947265625 216 20 242 c 25
 20 242 101.594726562 241 154.045898438 240 c 25
 217.274414062 447 l 9
 217.274414062 447 130.594726562 448 75.2275390625 449 c 25
 75.2275390625 449 75.5947265625 489 75.70703125 515 c 25
 231.799804688 511 l 1
 281.100585938 689 l 1
EndSplineSet
Validated: 1
EndChar

StartChar: quotesingle
Encoding: 39 39 93
Width: 214
Flags: W
HStem: 402.55 270.635<45.4629 171.077>
VStem: 45.4629 125.614<407.34 478.448>
LayerCount: 2
Fore
SplineSet
20 666 m 5
 45.462890625 407.33984375 l 29
 171.077148438 402.549804688 l 29
 194.842773438 673.184570312 l 4
 20 666 l 5
EndSplineSet
Validated: 9
EndChar

StartChar: quotedbl
Encoding: 34 34 94
Width: 416
Flags: W
LayerCount: 2
Fore
SplineSet
227 650 m 1
 227.385742188 413.790039062 l 1
 346 409 l 1
 393 656 l 0
 227 650 l 1
17 660 m 1
 55.462890625 407.33984375 l 1
 177 416 l 5
 185 662 l 0
 17 660 l 1
EndSplineSet
Validated: 9
EndChar

StartChar: sterling
Encoding: 163 163 95
Width: 600
Flags: W
HStem: 0 170<382.833 576> 0 158<242 439.167> 473 21G<383.301 568> 600 135<276.041 386.777>
VStem: 81 191<437.25 600>
LayerCount: 2
Fore
SplineSet
15 0 m 1x78
 77 164 86 274 86 274 c 1
 27 272 l 1
 32 416 l 1
 88 418 l 1
 88 418 81 476 81 542 c 0
 81 608 128 735 318 735 c 0
 589 735 568 475 568 475 c 1
 382 473 l 1
 390 596 l 1
 272 600 l 1
 264 414 l 1
 410 418 l 1
 410 418 402 278 402 276 c 8
 402 274 260 274 260 274 c 1
 242 158 l 1x78
 580 170 l 1
 576 0 l 0xb8
 15 0 l 1x78
EndSplineSet
Validated: 33
EndChar

StartChar: A.ss01
Encoding: 65536 -1 96
Width: 630
Flags: W
HStem: -15 21G<-10 177.432 396.978 640> 170 129.37<230.24 344> 530 156<53 166> 563 127<451 570>
AnchorPoint: "Anchor-3" 438 28 basechar 0
AnchorPoint: "Anchor-2" 288 -14 basechar 0
AnchorPoint: "Anchor-0" 294 709 basechar 0
LayerCount: 2
Fore
SplineSet
291.439453125 514.690429688 m 5xc0
 230.240234375 299.370117188 l 4
 344 300.059570312 l 5
 291.439453125 514.690429688 l 5xc0
50 686 m 1xe0
 570 690 l 25
 574 558 l 25
 451 563 l 25xd0
 640 5 l 25
 401 -15 l 25
 364 169 l 25
 214 170 l 25
 173 -15 l 25
 -10 5 l 25
 166 530 l 25
 53 530 l 25
 50 686 l 1xe0
EndSplineSet
Validated: 1
EndChar

StartChar: E.ss01
Encoding: 65537 -1 97
Width: 603
Flags: W
HStem: 0 148<243 582> 282 143<241 518.834> 670 20G<571 571>
AnchorPoint: "Anchor-3" 498 28 basechar 0
AnchorPoint: "Anchor-2" 298 -14 basechar 0
AnchorPoint: "Anchor-0" 284 709 basechar 0
LayerCount: 2
Fore
SplineSet
22 689 m 25
 232 689 571 690 571 690 c 25
 571 637 571 542 571 542 c 25
 445 542 181 544 181 544 c 25
 181 497 181 425 181 425 c 25
 290 423 519 423 519 423 c 17
 519 278 l 17
 241 282 l 1
 243 148 l 17
 583 151 l 1
 582 0 l 25
 366 0 20 1 20 1 c 25
 21 269 22 689 22 689 c 25
EndSplineSet
Validated: 1
EndChar

StartChar: H.ss01
Encoding: 65538 -1 98
Width: 647
Flags: W
HStem: 0 21G<20 238 421 627> 283 154<280 424> 289 157<234 400> 666 20G<449 624.087> 675 20G<21 240.277>
VStem: 20 218<0 289 446 529> 421 206<0 283> 448 176<437 678>
AnchorPoint: "Anchor-0" 312 709 basechar 0
LayerCount: 2
Fore
SplineSet
21 694 m 17xa6
 241 695 l 25
 232 446 l 29xae
 448 437 l 29
 449 678 l 25
 624 686 l 25xd5
 627 0 l 25
 421 0 l 25
 424 283 l 29xd6
 234 289 l 29
 238 0 l 25
 20 0 l 25
 21 694 l 17xa6
EndSplineSet
EndChar

StartChar: N.ss01
Encoding: 65539 -1 99
Width: 692
Flags: W
HStem: 0 21G<21 197.524>
VStem: 21 176<0 267.273> 493 171<351.451 685>
AnchorPoint: "Anchor-2" 308 -14 basechar 0
AnchorPoint: "Anchor-0" 398 709 basechar 0
LayerCount: 2
Fore
SplineSet
22 697 m 17
 251 693 l 1
 355 535 493 249 493 249 c 17
 494 685 l 25
 557 686 664 687 664 687 c 25
 667 426 672 -11 672 -11 c 17
 446 3 l 25
 341 170 208 420 208 420 c 17
 197 0 l 25
 136 0 21 0 21 0 c 1
 21 261 22 697 22 697 c 17
EndSplineSet
Validated: 1
EndChar

StartChar: O.ss01
Encoding: 65540 -1 100
Width: 712
Flags: W
HStem: -37 181<244.618 466.724> 512 183<393.8 480.204>
VStem: 15 215<289 470.052> 482 215<281.636 468.875>
AnchorPoint: "Anchor-3" 368 28 basechar 0
AnchorPoint: "Anchor-2" 368 -54 basechar 0
AnchorPoint: "Anchor-0" 375 709 basechar 0
LayerCount: 2
Fore
SplineSet
230 492 m 5
 242 144 l 1
 471 150 l 1
 482 512 l 5
 230 492 l 5
385 695 m 0
 585 695 697 529 697 325 c 8
 697 121 579 -37 365 -37 c 0
 191 -37 15 67 15 331 c 0
 15 615 235 695 385 695 c 0
EndSplineSet
EndChar

StartChar: P.ss01
Encoding: 65541 -1 101
Width: 623
Flags: W
HStem: 0 21G<20 218.187> 205 176<220.03 381.15> 546.12 167.88<180.33 378.622>
VStem: 20 198<0 214> 378.71 229.29<382.799 537.401>
AnchorPoint: "Anchor-0" 310 742 basechar 0
AnchorPoint: "Anchor-2" 297 -18 basechar 0
LayerCount: 2
Fore
SplineSet
180.330078125 546.120117188 m 25
 180.330078125 546.120117188 174.879882812 429.959960938 171.610351562 374.280273438 c 25
 171.610351562 374.280273438 300.23046875 378.120117188 383.0703125 381 c 25
 383.0703125 381 380.889648438 489.48046875 378.709960938 540.360351562 c 25
 378.709960938 540.360351562 257.719726562 544.200195312 180.330078125 546.120117188 c 25
20 698 m 17
 20 698 140 714 244 714 c 0
 449 714 608 660 608 450 c 0
 608 252.473632812 444.163085938 205.934570312 331 205 c 0
 260.834960938 204.419921875 220 214 220 214 c 9
 218 0 l 0
 20 0 l 25
 20 698 l 17
EndSplineSet
Validated: 33
EndChar

StartChar: R.ss01
Encoding: 65542 -1 102
Width: 654
Flags: W
HStem: 0 21G<20 240.907> 216 160.127<240 392.347> 541.345 161.655<183.337 390.396>
VStem: 22 160.236<376.127 541.27> 392.001 237.999<408.969 537.202> 400 224<-3.5 210>
AnchorPoint: "Anchor-0" 310 742 basechar 0
AnchorPoint: "Anchor-2" 321 -14 basechar 0
LayerCount: 2
Fore
SplineSet
181.1640625 541.344726562 m 25xf8
 181.1640625 541.344726562 181.360351562 438.719726562 182.236328125 376.126953125 c 25
 392.346679688 377.634765625 l 9
 392.346679688 377.634765625 391.919921875 479.040039062 392.000976562 539.715820312 c 25
 392.000976562 539.715820312 262 540.639648438 181.1640625 541.344726562 c 25xf8
20 0 m 25
 20 0 21 431 22 681 c 25
 22 681 132 703 310 703 c 8
 488 703 630 649 630 497 c 0xf8
 630 355 495 317 495 317 c 1
 585 288 624 235 624 129 c 0
 624 41 649 -40 649 -40 c 0
 408 -34 l 1
 400 210 l 25xf4
 240 216 l 1
 241 0 l 25
 241 0 91 0 20 0 c 25
EndSplineSet
Validated: 33
EndChar

StartChar: S.ss01
Encoding: 65543 -1 103
Width: 685
Flags: W
HStem: -29 157<285.889 441.773> 484 21G<593.5 636> 552 158<236.618 411.002>
VStem: 32 200<429.434 553.306> 450 220<128 251.606>
AnchorPoint: "Anchor-0" 352 739 basechar 0
AnchorPoint: "Anchor-2" 341 -54 basechar 0
LayerCount: 2
Fore
SplineSet
419 552 m 25
 338 554 232 556 232 556 c 25
 232 429 l 25
 232 429 292.961588667 427.795177305 368 426 c 0
 577 421 670 351 670 207 c 0
 670 67 571 -29 359 -29 c 0
 72.6025390625 -29 15 105 15 221 c 9
 241 219 l 25
 239 119 l 25
 450 128 l 25
 445 254 l 25
 445 254 409.227870949 258.626580646 334 264 c 0
 124 279 32 377 32 483 c 4
 32 577 98 710 322 710 c 0
 585 710 636 586 636 484 c 9
 551 485 417 486 417 486 c 25
 418 516 419 552 419 552 c 25
EndSplineSet
EndChar

StartChar: T.ss01
Encoding: 65544 -1 104
Width: 616
Flags: W
HStem: 492 202<31 212.938>
VStem: 216 200<1 435.375> 224 200<64.625 498>
AnchorPoint: "Anchor-2" 318 -34 basechar 0
AnchorPoint: "Anchor-0" 316 709 basechar 0
LayerCount: 2
Fore
SplineSet
31 694 m 25xa0
 253 691 596 686 596 686 c 17
 593 512 l 17
 424 510 l 17xa0
 416 1 l 17
 216 -3 l 17xc0
 224 498 l 17
 30 492 l 17
 31 694 l 25xa0
EndSplineSet
Validated: 1
EndChar

StartChar: a.ss01
Encoding: 65545 -1 105
Width: 523
Flags: W
HStem: -23 135.411<194.108 279.162> 0 21G<347.043 519> 191.604 101.396<192.061 321.983> 373 118<190.591 318.39>
VStem: 15 179.108<112.461 189.521> 322 181<290 369.54> 356 141<118.464 198>
AnchorPoint: "Anchor-3" 408 28 basechar 0
AnchorPoint: "Anchor-2" 268 -14 basechar 0
AnchorPoint: "Anchor-0" 280 517 basechar 0
LayerCount: 2
Fore
SplineSet
190.231445312 191.604492188 m 1xba
 194.108398438 112.411132812 l 1
 356 117 l 1
 358 198 l 1
 190.231445312 191.604492188 l 1xba
25 322 m 1
 25 322 35 491 281 491 c 0
 449.372961436 491 503 408 503 306 c 0xbc
 503 233 497 204 497 153 c 0
 497 79 519 3 519 3 c 1
 354 0 l 1x7a
 338 46 l 1
 338 46 298 -23 169 -23 c 0
 70 -23 15 49 15 127 c 0
 15 254.11328125 127 293 239 293 c 0
 299 293 322 290 322 290 c 1xbc
 320 373 l 1
 186 371 l 1
 181 317 l 1
 25 322 l 1
EndSplineSet
Validated: 1
EndChar

StartChar: b.ss01
Encoding: 65546 -1 106
Width: 562
Flags: W
HStem: -24 159.19<211.908 336.29> 0 21G<20 141.146> 469 20G<318 396>
VStem: 20 154<137 324.252> 25 175<438 679> 335.581 211.419<137.552 317.691>
AnchorPoint: "Anchor-0" 114 727 basechar 0
AnchorPoint: "Anchor-2" 302 -32 basechar 0
LayerCount: 2
Fore
SplineSet
176.099609375 324.334960938 m 25xb4
 176.099609375 324.334960938 175 210 174 137 c 25
 174 137 274 136 340.716796875 135.190429688 c 25
 340.716796875 135.190429688 338 250 335.581054688 323.4296875 c 25
 335.581054688 323.4296875 240 324 176.099609375 324.334960938 c 25xb4
25 682 m 25x6c
 99 681 204 679 204 679 c 25
 200 438 l 25
 200 438 279 489 357 489 c 0
 435 489 547 436 547 256 c 0
 547 46 397 -24 304 -24 c 0xac
 201 -24 156 41 156 41 c 25
 127 0 l 25
 20 0 l 25x74
 25 682 l 25x6c
EndSplineSet
Validated: 1
EndChar

StartChar: e.ss01
Encoding: 65547 -1 107
Width: 545
Flags: W
HStem: -26 113<194.013 316.864> 187 88<216 351> 358 118<221.731 342.501>
VStem: 15 179<114.807 187>
AnchorPoint: "Anchor-3" 288 28 basechar 0
AnchorPoint: "Anchor-2" 284 -54 basechar 0
AnchorPoint: "Anchor-0" 270 499 basechar 0
LayerCount: 2
Fore
SplineSet
15 222 m 0
 15 346 90 476 280 476 c 0
 572 476 530 186 530 186 c 9
 193 187 l 25
 194 87 l 25
 325 90 l 25
 328 146 l 25
 518 144 l 25
 518 144 516 -26 286 -26 c 0
 86 -26 15 98 15 222 c 0
218 358 m 1
 216 275 l 1
 351 274 l 1
 350 359 l 1
 218 358 l 1
EndSplineSet
Validated: 33
EndChar

StartChar: f.ss01
Encoding: 65548 -1 108
Width: 423
Flags: W
HStem: 0 21G<69 246> 314 132<240 401> 316 150<-10 62> 599 129<235.725 299.581>
VStem: 61 170<465.017 599> 69 177<0 314> 302 133<516 597.483>
AnchorPoint: "Anchor-0" 265 757 basechar 0
LayerCount: 2
Fore
SplineSet
-10 466 m 17xb6
 62 465 l 25
 62 465 61 488 61 566 c 16
 61 644 124 728 268 728 c 0
 412 728 435 591 435 563 c 16
 435 535 432 507 432 507 c 1
 300 516 l 25
 302 600 l 25
 231 599 l 25
 230 446 l 25
 401 451 l 25
 403 311 l 25
 240 314 l 25xda
 246 0 l 25
 69 0 l 25
 71 318 l 25
 -10 316 l 25
 -10 466 l 17xb6
EndSplineSet
Validated: 1
EndChar

StartChar: g.ss01
Encoding: 65549 -1 109
Width: 563
Flags: W
HStem: -270 128<189.986 333.899> -20 157.104<219.437 307.552> 324.815 168.185<223.441 348.626> 462 20G<417.679 533>
VStem: 15 204.437<137.165 321.509> 334 209<-117.162 16.0085>
AnchorPoint: "Anchor-0" 291 529 basechar 0
LayerCount: 2
Fore
SplineSet
219.436523438 324.815429688 m 9xec
 219.436523438 137.103515625 l 9
 381.998046875 140.131835938 l 9
 378.42578125 318.758789062 l 9
 219.436523438 324.815429688 l 9xec
15 234 m 0
 15 424 167 493 261 493 c 0xec
 355 493 399 429 399 429 c 25
 429 482 l 25xdc
 533 479 l 25
 533 479 543 187 543 -2 c 16
 543 -191 411.002929688 -270 257 -270 c 0
 81 -270 31 -187 21 -60 c 1
 187 -48 l 1
 185 -142 l 1
 334 -136 l 1
 331 18 l 1
 331 18 292.048828125 -20 220 -20 c 0
 118 -20 15 54 15 234 c 0
EndSplineSet
Validated: 1
EndChar

StartChar: h.ss01
Encoding: 65550 -1 110
Width: 494
Flags: W
HStem: 0 21G<20 173.748> 458 20G<310 396>
VStem: 20 154<6 318> 21 163<426 664> 290 184<8 316.027>
AnchorPoint: "Anchor-0" 105 727 basechar 0
AnchorPoint: "Anchor-2" 231 -2 basechar 0
LayerCount: 2
Fore
SplineSet
21 664 m 17xd8
 188 667 l 25
 184 426 l 25xd8
 184 426 267 478 353 478 c 16
 439 478 474 398 474 312 c 0
 474 226 474 8 474 8 c 1
 290 -19 l 1
 293 320 l 1
 170 318 l 17
 174 0 l 17
 20 6 l 17xe8
 21 664 l 17xd8
EndSplineSet
Validated: 1
EndChar

StartChar: m.ss01
Encoding: 65551 -1 111
Width: 879
Flags: W
HStem: 0 21G<28.7143 202.636> 330 154<252.433 350.743 563.921 659> 457 20G<25 168.308>
VStem: 20 183<21 330> 345 189<7 328> 659 198<-1.86769 327.478>
AnchorPoint: "Anchor-2" 438 -14 basechar 0
AnchorPoint: "Anchor-0" 444 499 basechar 0
LayerCount: 2
Fore
SplineSet
25 465 m 1xdc
 160 477 l 1xbc
 187 412 l 1
 187 412 241 484 345 484 c 0
 469 484 498 398 498 398 c 1
 498 398 543 490 673 490 c 0
 833 490 853 388 857 284 c 16
 861 180 858 -2 858 -2 c 1
 665 -5 l 25
 659 329 l 25
 529 328 l 0
 534 0 l 25
 345 7 l 25
 351 330 l 25
 197 330 l 25
 203 0 l 25
 20 21 l 25
 25 465 l 1xdc
EndSplineSet
Validated: 33
EndChar

StartChar: n.ss01
Encoding: 65552 -1 112
Width: 532
Flags: W
HStem: 0 21G<339 508> 330 150<260.307 343>
VStem: 26 180<0 325> 343 169<1 327.235>
AnchorPoint: "Anchor-2" 268 -14 basechar 0
AnchorPoint: "Anchor-0" 284 499 basechar 0
LayerCount: 2
Fore
SplineSet
20 448 m 1
 152 449 l 1
 164 399 l 1
 164 399 249 480 357 480 c 0
 465 480 512 418 512 307 c 16
 512 196 508 0 508 0 c 25
 339 1 l 25
 343 330 l 25
 201 325 l 25
 206 -7 l 25
 26 0 l 25
 20 448 l 1
EndSplineSet
Validated: 1
EndChar

StartChar: o.ss01
Encoding: 65553 -1 113
Width: 559
Flags: W
HStem: -25 133<197.981 349.314> 345 160<189.548 352.514>
VStem: 15 172<160.667 340.396> 351 193<139.941 340.436>
AnchorPoint: "Anchor-3" 268 28 basechar 0
AnchorPoint: "Anchor-2" 266 -54 basechar 0
AnchorPoint: "Anchor-0" 284 519 basechar 0
LayerCount: 2
Fore
SplineSet
187 345 m 5
 196 108 l 29
 351 115 l 5
 354 345 l 29
 187 345 l 5
15 248 m 4
 15 400 113 505 285 505 c 4
 457 505 544 358 544 249 c 4
 544 120 461 -25 266 -25 c 4
 91 -25 15 96 15 248 c 4
EndSplineSet
Validated: 1
EndChar

StartChar: p.ss01
Encoding: 65554 -1 114
Width: 570
Flags: W
HStem: -14 143<215 366.849> 327 150<242.923 365.73> 444 20G<156 158.769>
VStem: 20 195<128 324> 20 171<-225 16> 369 186<133.431 325.7>
AnchorPoint: "Anchor-0" 324 519 basechar 0
AnchorPoint: "Anchor-2" 306 -54 basechar 0
LayerCount: 2
Fore
SplineSet
214 324 m 1xd4
 215 128 l 25
 369 129 l 1
 368 327 l 25
 214 324 l 1xd4
20 456 m 1xcc
 65 459 156 464 156 464 c 25xac
 165 399 l 1
 165 399 238 477 326 477 c 16
 414 477 555 422 555 233 c 0
 555 44 397 -14 304 -14 c 0
 241 -14 185 16 185 16 c 1
 191 -226 l 1
 20 -225 l 1
 20 456 l 1xcc
EndSplineSet
Validated: 1
EndChar

StartChar: r.ss01
Encoding: 65555 -1 115
Width: 442
Flags: W
HStem: 0 21G<24.9093 208>
VStem: 25 183<0 326>
AnchorPoint: "Anchor-0" 292 519 basechar 0
AnchorPoint: "Anchor-2" 111 -14 basechar 0
LayerCount: 2
Fore
SplineSet
23 441 m 17
 142 444 l 25
 144 399 l 25
 144 399 207 487 292 487 c 0
 377 487 414 440 425 390 c 16
 436 340 431 240 431 240 c 1
 271 240 l 25
 272 326 l 0
 205 326 l 25
 208 0 l 25
 25 0 l 25
 23 441 l 17
EndSplineSet
Validated: 33
EndChar

StartChar: r.ss02
Encoding: 65556 -1 116
Width: 342
Flags: W
HStem: 0 21G<17.6632 192.196> 306 176<220.295 332> 455 20G<10.3368 134>
VStem: 10 185<59.375 306> 18 174<0 306>
AnchorPoint: "Anchor-0" 244 519 basechar 0
AnchorPoint: "Anchor-2" 98 -14 basechar 0
LayerCount: 2
Fore
SplineSet
332 482 m 1xd0
 332 306 l 0
 195 306 l 25xd0
 192 0 l 25
 18 0 l 1xc8
 10 475 l 1xb0
 134 470 l 1
 146 387 l 1
 174 452 246 482 332 482 c 1xd0
EndSplineSet
Validated: 1
EndChar

StartChar: s.ss01
Encoding: 65557 -1 117
Width: 503
Flags: W
HStem: -33 120<169.455 300.045> 379 115<193.366 309.341>
VStem: 15 175<299.369 379> 306 182<86.5406 177.521>
AnchorPoint: "Anchor-2" 238 -74 basechar 0
AnchorPoint: "Anchor-0" 242 529 basechar 0
LayerCount: 2
Fore
SplineSet
191 379 m 1
 190 298 l 1
 190 298 238 296 336 287 c 0
 434 278 488 227 488 139 c 0
 488 51 394 -33 238 -33 c 0
 2 -33 24 140 24 140 c 25
 160 137 l 25
 162 87 l 25
 304 86 l 1
 306 178 l 1
 306 178 252.102539062 176 174 176 c 0
 124 176 15 213 15 337 c 0
 15 461 166 494 243 494 c 0
 469 494 469 322 469 322 c 25
 309 320 l 25
 311 381 l 1
 191 379 l 1
EndSplineSet
Validated: 33
EndChar

StartChar: t.ss01
Encoding: 65558 -1 118
Width: 417
Flags: W
HStem: -22 125<224.88 289.017> 334 133<231 387> 346 107<6 77>
VStem: 60 161<103.349 332.289> 291 118<102.137 189>
AnchorPoint: "Anchor-2" 232 -38 basechar 0
AnchorPoint: "Anchor-1" 308 556 basechar 0
AnchorPoint: "Anchor-0" 194 634 basechar 0
LayerCount: 2
Fore
SplineSet
149 603 m 21xb8
 232 606 l 29
 231 467 l 29
 387 467 l 29
 388 331 l 29
 223 334 l 29xd8
 221 103 l 29
 291 100 l 29
 293 189 l 5
 394 190 l 5
 394 190 409 152 409 106 c 4
 409 23 343 -22 231 -22 c 4
 99 -22 60 47 60 125 c 20
 60 203 77 346 77 346 c 29
 6 346 l 29
 6 453 l 29
 98 454 l 29
 149 603 l 21xb8
EndSplineSet
Validated: 1
EndChar

StartChar: u.ss01
Encoding: 65559 -1 119
Width: 529
Flags: W
HStem: -35 162<190 255.256> 0 21G<359.929 509>
VStem: 16 174<127.564 451.882> 337 172<129 450>
AnchorPoint: "Anchor-3" 408 28 basechar 0
AnchorPoint: "Anchor-2" 258 -54 basechar 0
AnchorPoint: "Anchor-0" 268 499 basechar 0
LayerCount: 2
Fore
SplineSet
26 452 m 17xb0
 195 455 l 25
 190 127 l 25xb0
 337 129 l 25
 334 450 l 25
 505 453 l 25
 509 0 l 25
 361 0 l 0x70
 358 56 l 25
 358 56 264 -35 170 -35 c 0
 76 -35 16 16 16 133 c 0
 16 290 26 452 26 452 c 17xb0
EndSplineSet
Validated: 1
EndChar

StartChar: yen
Encoding: 165 165 120
Width: 588
Flags: W
HStem: 109 79.6348<66 185.243 408.381 538.54> 239.955 77.0449<62 162.728 422.457 530.557>
VStem: 185 230<0 109.251>
LayerCount: 2
Fore
SplineSet
-7 662 m 1
 208 682 l 1
 248 594 320 446 320 446 c 1
 320 446 423.502929688 678.146484375 424 680 c 2
 598 660 l 1
 422.457276832 322.957971518 l 1
 546 325 l 1
 545.440429688 237.780273438 l 1
 380.405273438 238.431640625 l 1
 381.376953125 223.08203125 382.375976562 207.146484375 383.373046875 191.12109375 c 1
 538.540039062 192.115234375 l 1
 542 110 l 1
 408.381049532 109.719287919 l 1
 412.126042923 48.2824788989 415 -3.57353036051e-15 415 0 c 1
 325 -3 185 -8 185 -8 c 1
 185 27.9455641228 185.103004112 69.45335029 185.242895534 109.250510285 c 1
 66 109 l 1
 65.2001953125 188.634765625 l 1
 205.33984375 189.51953125 l 5
 206.998046875 208.91796875 208.466796875 226.008789062 209.619140625 239.39453125 c 5
 61.0595703125 239.955078125 l 1
 62 317 l 1
 162.728403504 318.664932289 l 1
 90.0853663459 469.447356747 -7 662 -7 662 c 1
EndSplineSet
Validated: 1
EndChar

StartChar: exclamdown
Encoding: 161 161 121
Width: 255
VWidth: 770
Flags: W
HStem: 283.511 197.489<57.8981 199.022>
VStem: 20 215.466<321.081 444.257> 28.8818 163.054<-194.123 151.846>
LayerCount: 2
Fore
SplineSet
128.390625 283.510742188 m 0xc0
 45.517578125 283.510742188 20 343.798828125 20 384.879882812 c 0
 20 438.044921875 52.0947265625 481 125.759765625 481 c 0
 199.424804688 481 235.465820312 435.627929688 235.465820312 382.46484375 c 0
 235.465820312 305.133789062 184.956054688 283.510742188 128.390625 283.510742188 c 0xc0
221.446289062 -227.223632812 m 1
 47.8818359375 -238.223632812 l 1
 47.8818359375 -238.223632812 28.8818359375 -149.223632812 28.8818359375 -28.2236328125 c 0
 28.8818359375 93.015625 68.767578125 223.056640625 68.767578125 223.056640625 c 1
 206.881835938 242.776367188 l 5
 206.881835938 242.776367188 191.935546875 149.038085938 191.935546875 1.7763671875 c 0xa0
 191.935546875 -121.223632812 221.446289062 -227.223632812 221.446289062 -227.223632812 c 1
EndSplineSet
Validated: 1
EndChar

StartChar: questiondown
Encoding: 191 191 122
Width: 547
VWidth: 770
Flags: W
HStem: -230 136<198.854 354.188> 82 184<243 383> 298 200<239.944 388.525>
VStem: 15 181<-88.577 74.3244> 198 235<337.339 454.109>
LayerCount: 2
Fore
SplineSet
317 298 m 0
 248 298 198 339 198 393 c 0
 198 447 233 498 311 498 c 8
 389 498 433 450 433 390 c 0
 433 330 386 298 317 298 c 0
537 6 m 17
 521 -191 381 -230 265 -230 c 0
 149 -230 15 -185 15 -9 c 0
 15 151.295898438 131.666992188 190 197 190 c 0
 224 190 243 186 243 186 c 1
 235 260 l 1
 383 266 l 1
 399 82 l 1
 200 78 l 25
 196 -94 l 25
 357 -96 l 25
 355 11 l 25
 537 6 l 17
EndSplineSet
Validated: 1
EndChar

StartChar: mu
Encoding: 181 181 123
Width: 529
Flags: W
HStem: -20 139<219.5 319.079> 443 20G<31.645 195>
VStem: 20 172<-209 20.6709> 349 156<339 449>
LayerCount: 2
Fore
SplineSet
188.772460938 20.6708984375 m 1
 192 -209 l 1
 20 -213 l 1
 32 463 l 1
 195 459 l 1
 204 127 l 1
 328 119 l 1
 349 449 l 1
 505 455 l 1
 509 0 l 1
 367 -9 l 1
 348 37 l 1
 348 37 318 -20 264 -20 c 0
 218.36328125 -20 188.772460938 20.6708984375 188.772460938 20.6708984375 c 1
EndSplineSet
Validated: 1
EndChar

StartChar: section
Encoding: 167 167 124
Width: 512
Flags: W
HStem: -44 123<189.758 322.629> 599 115<188.804 309.641>
VStem: 15 151.03<310.25 381.254> 347 150<316.105 390>
LayerCount: 2
Fore
SplineSet
187 599 m 1
 186 537 l 1
 186 537 224 537 322 528 c 0
 420 519 497 466 497 378 c 0
 497 337.811523438 481.775390625 278.666015625 400.373046875 247.993164062 c 1
 480.637695312 216.9921875 497 174.149414062 497 127 c 0
 497 39 424 -44 268 -44 c 0
 32 -44 24 129 24 129 c 1
 190 131 l 1
 188 86 l 1
 324 79 l 1
 327 139 l 1
 327 139 292 142 214 148 c 0
 136.127555277 153.990188056 15 192 15 316 c 0
 15 396 101.53515625 433.717773438 101.53515625 433.717773438 c 1
 38.5341796875 462.020507812 15 502.313476562 15 557 c 0
 15 681 166 714 243 714 c 0
 469 714 478 544 478 544 c 5
 316 558 l 1
 315 598 l 1
 187 599 l 1
340 315 m 1
 347 390 l 1
 159.649414062 395.5546875 l 1
 166.030273438 306.662109375 l 1
 340 315 l 1
EndSplineSet
EndChar

StartChar: bar
Encoding: 124 124 125
Width: 151
Flags: W
VStem: 41.3467 70.6797<88.3369 560.836>
LayerCount: 2
Fore
SplineSet
38.59765625 705.90625 m 5
 131.522460938 703.557617188 l 5
 131.522460938 703.557617188 117.40234375 505.23046875 112.026367188 323.921875 c 4
 106.7890625 147.29296875 123.9375 -144.903320312 123.9375 -144.903320312 c 5
 20 -145.440429688 l 5
 20 -145.440429688 39.6279296875 104.375 41.3466796875 310.083984375 c 4
 42.5107421875 449.244140625 38.59765625 705.90625 38.59765625 705.90625 c 5
EndSplineSet
Validated: 33
EndChar

StartChar: bracketleft
Encoding: 91 91 126
Width: 247
Flags: W
HStem: -172 68<128 221>
VStem: 45 69<63.3233 138.836 387.164 519.583>
LayerCount: 2
Fore
SplineSet
20 676 m 1
 223 718 l 1
 227 640 l 1
 117 622 l 0
 131.1796875 386 127.655273438 140 114 -96 c 1
 226 -104 l 1
 221 -172 l 1
 27 -164 l 1
 27 -164 45 80 45 290 c 0
 45 500 20 676 20 676 c 1
EndSplineSet
Validated: 33
EndChar

StartChar: bracketright
Encoding: 93 93 127
Width: 247
Flags: W
HStem: 650 68<26 119>
VStem: 140 62<30.5485 139.889>
LayerCount: 2
Fore
SplineSet
227 -140 m 1
 34 -162 l 1
 40 -94 l 1
 140 -86 l 4
 125.8203125 150 119.344726562 406 133 642 c 5
 21 650 l 1
 26 718 l 1
 220 710 l 1
 220 710 202 466 202 256 c 0
 202 46 227 -140 227 -140 c 1
EndSplineSet
Validated: 33
EndChar

StartChar: braceleft
Encoding: 123 123 128
Width: 240
Flags: W
HStem: 228 67<24.272 88.8178>
VStem: 39.8877 77.9697<-25.818 117.464 440.652 584.379> 90.9111 68.1387<138.338 226.189> 98.6846 64.6689<300.563 407.689>
LayerCount: 2
Fore
SplineSet
171 730 m 1x90
 225 686 l 1
 225 686 122.165039062 620 122.165039062 512 c 0
 122.165039062 455.810546875 161.771484375 390.974609375 163.353515625 341 c 0x90
 165 289 137 266 137 266 c 1
 137 266 159.049804688 242 159.049804688 208 c 4xa0
 159.049804688 152.852539062 117.857421875 132.958007812 117.857421875 58 c 0
 117.857421875 -44 223 -146 223 -146 c 1
 163 -170 l 1
 163 -170 39.8876953125 -53.2607421875 39.8876953125 44 c 0xc0
 39.8876953125 113.090820312 90.9111328125 137.850585938 90.9111328125 194.840820312 c 0xa0
 90.9111328125 218.705078125 73 228 59 228 c 0
 41 228 24.259765625 226.594726562 24.259765625 226.594726562 c 1
 20 298 l 1
 20 298 34 295 53 295 c 0
 80 295 98.669921875 308.133789062 98.6845703125 340.732421875 c 0
 98.7099609375 398.240234375 41.8779296875 432.61328125 41.8779296875 534 c 0
 41.8779296875 660.680664062 171 730 171 730 c 1x90
EndSplineSet
Validated: 33
EndChar

StartChar: dieresis
Encoding: 168 168 129
Width: 393
Flags: W
HStem: 484.303 170.064<49.2975 161.467 236.173 348.342>
VStem: 20 166.971<513.703 626.533> 206.875 166.971<513.703 626.533>
LayerCount: 2
Fore
SplineSet
291.775390625 654.3671875 m 4
 344.129882812 654.3671875 373.845703125 615.990234375 373.845703125 570.83984375 c 12
 373.845703125 525.690429688 347.66796875 484.302734375 293.897460938 484.302734375 c 12
 240.127929688 484.302734375 206.875 527.947265625 206.875 570.087890625 c 4
 206.875 612.227539062 239.419921875 654.3671875 291.775390625 654.3671875 c 4
104.900390625 654.3671875 m 0
 157.254882812 654.3671875 186.970703125 615.990234375 186.970703125 570.83984375 c 8
 186.970703125 525.690429688 160.79296875 484.302734375 107.022460938 484.302734375 c 8
 53.2529296875 484.302734375 20 527.947265625 20 570.087890625 c 0
 20 612.227539062 52.544921875 654.3671875 104.900390625 654.3671875 c 0
EndSplineSet
Validated: 1
EndChar

StartChar: degree
Encoding: 176 176 130
Width: 321
Flags: W
HStem: 382.8 93.2002<122.324 191.538> 573 95.7998<124.036 188.453>
VStem: 15.6152 290.949
LayerCount: 2
Fore
SplineSet
121.46484375 573 m 5
 118.46484375 476 l 5
 195.46484375 474 l 5
 189.46484375 574 l 5
 121.46484375 573 l 5
15.615234375 532.950195312 m 0
 23.4189453125 620.49609375 71.765625 665.64453125 164.115234375 668.799804688 c 0
 254.60546875 671.891601562 302.961914062 597.142578125 306.564453125 528 c 0
 309.984375 462.36328125 265.46484375 386 164.665039062 382.799804688 c 0
 68.4638671875 379.745117188 8.193359375 449.6796875 15.615234375 532.950195312 c 0
EndSplineSet
Validated: 33
EndChar

StartChar: acute
Encoding: 180 180 131
Width: 208
Flags: W
HStem: 452.55 212.45<72 91.3333>
LayerCount: 2
Fore
SplineSet
72 665 m 1
 69.5791015625 600.459960938 49.6015625 534.201171875 20 467 c 9
 76.0771484375 452.549804688 l 5
 132.1328125 502.703125 166.78515625 567.592773438 188 623 c 4
 72 665 l 1
EndSplineSet
Validated: 9
EndChar

StartChar: cedilla
Encoding: 184 184 132
Width: 256
Flags: W
HStem: -206 62<97.1683 152.094>
VStem: 155 81.1211<-143.141 -69.7448>
LayerCount: 2
Fore
SplineSet
168.12109375 30 m 1
 153 -22 l 1
 153 -22 236.12109375 -29 236.12109375 -111 c 0
 236.12109375 -152 200.12109375 -206 126.12109375 -206 c 0
 12.12109375 -206 20.12109375 -96 20.12109375 -96 c 25
 99.12109375 -97 l 1
 97 -144 l 1
 155 -144 l 1
 154 -69 l 1
 90.12109375 -73 l 5
 96.12109375 35 l 1
 168.12109375 30 l 1
EndSplineSet
Validated: 33
EndChar

StartChar: brokenbar
Encoding: 166 166 133
Width: 151
Flags: W
VStem: 41.3467 70.6797<-143.865 244.529 320.103 703.544>
LayerCount: 2
Fore
SplineSet
28.59765625 246.90625 m 1
 125.522460938 244.557617188 l 1
 125.522460938 244.557617188 117.40234375 206.23046875 112.026367188 84.921875 c 0
 104.203024346 -91.611394358 123.9375 -143.903320312 123.9375 -143.903320312 c 1
 30 -149.440429688 l 1
 30 -149.440429688 39.6279296875 -134.625 41.3466796875 71.083984375 c 0
 42.5107421875 210.244140625 28.59765625 246.90625 28.59765625 246.90625 c 1
28.59765625 705.90625 m 1
 121.522460938 703.557617188 l 1
 121.522460938 703.557617188 117.40234375 685.23046875 112.026367188 503.921875 c 0
 106.7890625 327.29296875 133.9375 320.096679688 133.9375 320.096679688 c 5
 30 314.559570312 l 1
 30 314.559570312 39.6279296875 324.375 41.3466796875 490.083984375 c 0
 42.7900354732 629.241524067 28.59765625 705.90625 28.59765625 705.90625 c 1
EndSplineSet
Validated: 33
EndChar

StartChar: copyright
Encoding: 169 169 134
Width: 712
Flags: W
HStem: -37 78<250.927 470.56> 80.9004 125.3<280.406 451.007> 490.4 105.699<290.17 430.445> 626.6 68.4004<246.5 476.922>
VStem: 15 67.0596<208.094 461.049> 116 161<221.025 372.959> 634.48 62.5195<224.206 463.452>
LayerCount: 2
Fore
SplineSet
365.559570312 626.599609375 m 4
 244.059570312 626.599609375 82.0595703125 562.599609375 82.0595703125 335.400390625 c 4
 82.0595703125 124.200195312 224.620117188 41 365.559570312 41 c 4
 538.900390625 41 634.48046875 183.400390625 634.48046875 346.599609375 c 20
 634.48046875 509.799804688 527.559570312 626.599609375 365.559570312 626.599609375 c 4
431.700195312 490.400390625 m 1
 375.700195312 490.400390625 288.900390625 489.700195312 288.900390625 489.700195312 c 1
 277 206.200195312 l 1
 452.700195312 211.099609375 l 1
 449.200195312 288.099609375 l 1
 587.099609375 281.099609375 l 0
 587.099609375 281.099609375 585 80.900390625 361.700195312 80.900390625 c 0
 166.400390625 80.900390625 116 230.700195312 116 341.299804688 c 16
 116 451.900390625 188.099609375 596.099609375 365.900390625 596.099609375 c 0
 585.700195312 596.099609375 586.400390625 389.599609375 586.400390625 389.599609375 c 1
 523.400390625 389.599609375 431.700195312 391 431.700195312 391 c 17
 431.700195312 490.400390625 l 1
365 695 m 0
 565 695 697 549 697 345 c 8
 697 141 579 -37 365 -37 c 0
 191 -37 15 67 15 331 c 0
 15 615 215 695 365 695 c 0
EndSplineSet
Validated: 1
EndChar

StartChar: registered
Encoding: 174 174 135
Width: 712
Flags: W
HStem: -37 64.1816<245.135 474.677> 247.882 119.017<314.105 408.022> 484.546 100.548<319.997 431.698> 621.896 73.1045<232.181 461.62>
VStem: 15 60.5195<197.597 461.186> 169 145.054<362.11 484.486> 408.022 141.216<126.018 246.814> 434.014 128.168<373.241 480.094> 636.941 60.0586<206.607 444.505>
LayerCount: 2
Fore
SplineSet
355.407226562 621.895507812 m 0xfc80
 212.327148438 621.895507812 75.51953125 556.899414062 75.51953125 326.163085938 c 0
 75.51953125 111.676757812 220.40234375 27.181640625 363.639648438 27.181640625 c 0
 539.803710938 27.181640625 636.94140625 163.673828125 636.94140625 329.413085938 c 16
 636.94140625 495.153320312 520.046875 621.895507812 355.407226562 621.895507812 c 0xfc80
319.525390625 484.545898438 m 29
 319.525390625 484.545898438 316.10546875 401.782226562 314.053710938 362.110351562 c 29
 314.053710938 362.110351562 384.765625 364.845703125 436.75 366.8984375 c 29
 436.75 366.8984375 435.381835938 444.189453125 434.013671875 480.44140625 c 29xfd80
 434.013671875 480.44140625 368.08984375 483.177734375 319.525390625 484.545898438 c 29
168 104 m 1
 168 104 168.315429688 393 169 564 c 1
 169 564 241.55078125 585.09375 363.301757812 585.09375 c 0
 485.053710938 585.09375 562.181640625 548.158203125 562.181640625 444.189453125 c 0xfd80
 562.181640625 347.0625 480.1015625 334.065429688 480.1015625 334.065429688 c 17
 539 321 549.23828125 269.0859375 549.23828125 196.58203125 c 0
 549.23828125 136.389648438 567 119 567 119 c 0
 416 109 l 1
 408.022460938 247.881835938 l 1xfe80
 288.0625 251.986328125 l 1
 288.74609375 104.2421875 l 1
 288.74609375 104.2421875 216.564453125 104 168 104 c 1
355 695 m 0
 555 695 697 539 697 335 c 8
 697 131 579 -37 365 -37 c 0
 191 -37 15 67 15 331 c 0
 15 615 205 695 355 695 c 0
EndSplineSet
Validated: 1
EndChar

StartChar: macron
Encoding: 175 175 136
Width: 291
Flags: W
HStem: 550 80<26 265>
VStem: 20 251
LayerCount: 2
Fore
SplineSet
26 630 m 1
 265 635 l 25
 271 545 l 29
 20 550 l 29
 26 630 l 1
EndSplineSet
Validated: 1
EndChar

StartChar: braceright
Encoding: 125 125 137
Width: 235
Flags: W
HStem: 248 69<161.334 213.987>
VStem: 70.9502 88.1387<164.988 245.933> 76.6465 64.6689<319.417 421.106> 117.835 70.2871<430.961 586.291> 122.143 77.9697<-25.818 136.328>
LayerCount: 2
Fore
SplineSet
69 730 m 1x90
 69 730 188.122070312 660.680664062 188.122070312 534 c 0x90
 188.122070312 432.61328125 141.290039062 408.240234375 141.315429688 350.732421875 c 0xa0
 141.330078125 318.133789062 165.34765625 317 177 317 c 0
 196 317 214 318 214 318 c 1
 215.740234375 246.594726562 l 1
 215.740234375 246.594726562 209 248 191 248 c 0
 177 248 159.088867188 238.705078125 159.088867188 214.840820312 c 0xc0
 159.088867188 157.850585938 200.112304688 113.090820312 200.112304688 44 c 0
 200.112304688 -53.2607421875 77 -170 77 -170 c 1
 17 -146 l 1
 17 -146 122.142578125 -44 122.142578125 58 c 0x88
 122.142578125 132.958007812 70.9501953125 182.852539062 70.9501953125 238 c 0xc0
 70.9501953125 272 107 278 107 278 c 1
 107 278 75 299 76.646484375 351 c 0xa0
 78.228515625 400.974609375 117.834960938 445.810546875 117.834960938 502 c 0
 117.834960938 610 15 686 15 686 c 1
 69 730 l 1x90
EndSplineSet
Validated: 33
EndChar

StartChar: guillemotleft
Encoding: 171 171 138
Width: 467
Flags: W
LayerCount: 2
Fore
SplineSet
435 507 m 1
 447 408 l 1
 360 344 l 5
 443 296 l 1
 417 181 l 1
 253 284 l 5
 241 379 l 5
 435 507 l 1
225 517 m 1
 227 396 l 1
 140 348 l 1
 223 320 l 1
 225 186 l 1
 20 284 l 1
 29 405 l 1
 225 517 l 1
EndSplineSet
EndChar

StartChar: asciitilde
Encoding: 126 126 139
Width: 480
Flags: W
HStem: 205.61 247.26
LayerCount: 2
Fore
SplineSet
20 229.384765625 m 21
 32.6796875 392.639648438 72.3046875 452.870117188 176.915039062 452.870117188 c 4
 281.525390625 452.870117188 298.959960938 322.900390625 298.959960938 322.900390625 c 29
 340.169921875 319.73046875 l 5
 343.33984375 427.509765625 l 29
 460.629882812 424.33984375 l 5
 460.629882812 424.33984375 460.629882812 205.610351562 324.3203125 205.610351562 c 4
 214.955078125 205.610351562 189.594726562 313.389648438 189.594726562 313.389648438 c 29
 140.459960938 316.559570312 l 29
 137.290039062 224.629882812 l 29
 20 229.384765625 l 21
EndSplineSet
Validated: 1
EndChar

StartChar: asciicircum
Encoding: 94 94 140
Width: 356
Flags: W
HStem: 409 277
VStem: 20 316
LayerCount: 2
Fore
SplineSet
133 686 m 5
 217 687 l 29
 336 448 l 29
 230 409 l 29
 170 556 l 29
 107 412 l 29
 20 442 l 29
 133 686 l 5
EndSplineSet
Validated: 1
EndChar

StartChar: underscore
Encoding: 95 95 141
Width: 730
Flags: W
HStem: -113 107<22 707>
LayerCount: 2
Fore
SplineSet
20 -4 m 5
 710 -6 l 29
 707 -113 l 29
 22 -107 l 29
 20 -4 l 5
EndSplineSet
Validated: 1
EndChar

StartChar: zero.ss01
Encoding: 65560 -1 142
Width: 585
Flags: W
HStem: -7 179.19<212.556 372.418> 549.31 176.69<226.38 359.836>
VStem: 15 192.36<176.313 340.551> 382.78 187.22<179.784 299.049>
LayerCount: 2
Fore
SplineSet
223.040039062 549.309570312 m 5
 207.360351562 172.190429688 l 5
 382.780273438 179.629882812 l 5
 361.219726562 547.450195312 l 5
 223.040039062 549.309570312 l 5
15 347 m 0
 15 552 119 726 297 726 c 0
 475 726 570 574 570 354 c 0
 570 114 479 -7 287 -7 c 16
 95 -7 15 112 15 347 c 0
EndSplineSet
EndChar

StartChar: guillemotright
Encoding: 187 187 143
Width: 467
Flags: W
LayerCount: 2
Fore
SplineSet
32 507 m 1
 226 379 l 5
 214 284 l 5
 50 181 l 1
 24 296 l 1
 107 344 l 5
 20 408 l 1
 32 507 l 1
242 517 m 1
 438 405 l 1
 447 284 l 1
 242 186 l 1
 244 320 l 1
 327 348 l 1
 240 396 l 1
 242 517 l 1
EndSplineSet
EndChar

StartChar: guilsinglleft
Encoding: 8249 8249 144
Width: 247
Flags: W
HStem: 186 332
VStem: 23 204
LayerCount: 2
Fore
SplineSet
203 518 m 1
 223 414 l 1
 131 348 l 1
 227 312 l 1
 216 186 l 1
 23 287 l 5
 20 405 l 1
 203 518 l 1
EndSplineSet
Validated: 1
EndChar

StartChar: guilsinglright
Encoding: 8250 8250 145
Width: 240
Flags: W
HStem: 181 326
VStem: 20 200
LayerCount: 2
Fore
SplineSet
28 507 m 1
 210 393 l 1
 220 264 l 1
 46 181 l 1
 20 296 l 1
 134 331 l 1
 20 380 l 1
 28 507 l 1
EndSplineSet
Validated: 1
EndChar

StartChar: exclamdbl
Encoding: 8252 8252 146
Width: 510
HStem: -8.22363 197.489<56.4437 197.568 307.828 452.222>
VStem: 20 215.466<28.5196 151.696> 73.5303 163.054<338.264 624.756> 274 216<25.5025 150.987> 320 151.584<315.258 673.856>
LayerCount: 2
Fore
SplineSet
127.075195312 189.265625 m 0xc0
 209.948242188 189.265625 235.465820312 128.977539062 235.465820312 87.896484375 c 0
 235.465820312 34.7314453125 203.37109375 -8.2236328125 129.706054688 -8.2236328125 c 0
 56.041015625 -8.2236328125 20 37.1484375 20 90.3115234375 c 0
 20 167.642578125 70.509765625 189.265625 127.075195312 189.265625 c 0xc0
34.01953125 690 m 1
 207.583984375 711 l 1
 207.583984375 711 236.583984375 622 236.583984375 501 c 0
 236.583984375 339.760742188 180 252 180 252 c 1
 48.583984375 230 l 1
 48.583984375 230 73.5302734375 303.73828125 73.5302734375 451 c 0xa0
 73.5302734375 574 34.01953125 690 34.01953125 690 c 1
370 194 m 0
 452.873046875 194 490 137.081054688 490 96 c 0
 490 42.8349609375 466.665039062 -13 393 -13 c 0
 319.334960938 -13 274 28.8369140625 274 82 c 0x90
 274 159.331054688 313.434570312 194 370 194 c 0
290 712 m 1
 462.583984375 700 l 1
 462.583984375 700 471.583984375 622 471.583984375 501 c 0
 471.583984375 379.760742188 431.698242188 239.719726562 431.698242188 239.719726562 c 1
 303.583984375 251 l 1
 303.583984375 251 320 320.73828125 320 468 c 0x88
 320 591 290 712 290 712 c 1
EndSplineSet
Validated: 1
LCarets2: 1 0
Ligature2: "'liga' Standard Ligatures in Latin lookup 0-1" exclam exclam
EndChar

StartChar: perthousand
Encoding: 8240 8240 147
Width: 919
Flags: W
HStem: -38 114.263<480.767 571.537 724.236 790.272> -38 105<703.162 770.79> 203.912 108.088<706.378 778.948> 213.625 98.375<486.425 567.494> 323 118.725<150.286 227.609> 539 56<335.415 475.05> 566.568 107.432<143.051 232.796>
VStem: 15 131.932<442.617 566.188> 230.942 107.058<444.272 550.993> 362 116.7<75.9062 212.274> 573.025 128.975<76.2627 196> 793.025 110.975<76.7185 137.148>
LayerCount: 2
Fore
SplineSet
180 674 m 0x0bf0
 249.754882812 674 311 618 311 618 c 1
 311 618 342.180664062 595 394 595 c 0
 501 595 569 699 569 699 c 1
 671 666 l 1
 671 666 525 506 371 300 c 0
 217 94 115 -46 115 -46 c 1
 37 4 l 1
 37 4 171.875976562 132.340820312 341 367 c 0
 421 478 511 583 511 583 c 1
 511 583 458 539 403 539 c 0x0df0
 348 539 335 551 335 551 c 1
 335 551 338 541 338 497 c 0
 338 453 297 323 177 323 c 0
 57 323 15 429 15 510 c 0
 15 591 76 674 180 674 c 0x0bf0
483.599609375 213.625 m 1x99f0
 478.700195312 75.025390625 l 1
 573.025390625 76.2626953125 l 1
 569.349609375 209.912109375 l 1
 483.599609375 213.625 l 1x99f0
142.645507812 566.568359375 m 1x0bf0
 146.931640625 441.724609375 l 1
 230.942382812 441.724609375 l 1
 233.514648438 564.540039062 l 1
 142.645507812 566.568359375 l 1x0bf0
768 312 m 0x29f0
 888 312 904 208 904 126 c 0
 904 44 862 -38 738 -38 c 0
 674.566348647 -38 643.059533345 -11.8304622527 627.414754093 23.1050799063 c 1
 606.401274884 -12.5688931932 569.916190846 -38 508 -38 c 0
 384 -38 362 62 362 132 c 0
 362 202 398 312 518 312 c 0x99f0
 589.472862272 312 624.051940912 282.201174759 640.330791996 240.774499533 c 1
 663.816566687 280.651176481 703.938732545 312 768 312 c 0x29f0
697 196 m 1
 702 67 l 1x69f0
 793.025390625 76.2626953125 l 1
 778.349609375 203.912109375 l 1xa9f0
 697 196 l 1
EndSplineSet
Validated: 1
EndChar

StartChar: Euro
Encoding: 8364 8364 148
Width: 677
Flags: W
HStem: -21 179<275.168 456.416> 248 54<22 75.7076 272.354 381.06> 364 54<22 74.2008 309.381 424.007> 554 161<312.405 430.2>
LayerCount: 2
Fore
SplineSet
483 544 m 1
 307 554 l 1
 309.380859375 419.323242188 l 1
 442.259765625 420 l 1
 424.006835938 368 l 1
 270.309570312 366.76953125 l 1
 271.428710938 303.484375 l 1
 399.311523438 304 l 1
 381.059570312 252 l 1
 272.353515625 251.123046875 l 1
 274 158 l 1
 461 156 l 5
 471 275 l 5
 667 265 l 1
 667 265 664 -21 385 -21 c 0
 179.312800098 -21 104.178147268 113.967367504 81.9616409664 248.667985437 c 1
 22 248 l 1
 20 302 l 1
 75.7075635857 302.293729877 l 1
 74.5178424233 318.907948825 74 335.23281264 74 351 c 0
 74 355.469966547 74.0664312561 359.97835117 74.2008335192 364.519402446 c 1
 22 364 l 1
 20 418 l 1
 78.8904782831 418.278930095 l 1
 99.6971930767 561.785016919 189.194561477 715 391 715 c 0
 665 715 666 420 666 420 c 1
 496 422 l 1
 483 544 l 1
EndSplineSet
Validated: 1
EndChar

StartChar: currency
Encoding: 164 164 149
Width: 549
Flags: W
HStem: 98 151<226.778 341.428> 98 142<194.09 316.222> 459 140<196.783 341>
VStem: 15 176<241.886 444.173> 352 182<252.788 382.636>
LayerCount: 2
Fore
SplineSet
187 453 m 1xb8
 191 240 l 1x78
 352 249 l 1
 341 459 l 1
 187 453 l 1xb8
376 666 m 1
 521 636 l 1
 428.194483769 553.355671677 l 1
 428.194483769 553.355671677 534 479.269944318 534 349 c 0
 534 201.96797098 414.384986255 130.227913147 414.384986255 130.227913147 c 1
 515 20 l 1
 361 24 l 1
 341.45408379 103.186019517 l 1
 341.45408379 103.186019517 305.772914276 98 286 98 c 0xb8
 252.396064728 98 194.047375203 107.371532485 194.047375203 107.371532485 c 1
 181 28 l 1
 22 12 l 1
 126.080800623 131.764208936 l 1
 126.080800623 131.764208936 15 199.786569065 15 336 c 0
 15 477.953284393 112.696264878 551.347590524 112.696264878 551.347590524 c 1
 76.7913402365 579.155920249 34 612.419534939 34 613 c 0
 34 614 181 662 181 662 c 1
 196.745790414 589.569364093 l 1
 196.745790414 589.569364093 248.518798621 599 278 599 c 0
 301.991811452 599 344.849721369 591.239331287 344.849721369 591.239331287 c 1
 376 666 l 1
EndSplineSet
Validated: 1
EndChar

StartChar: ordfeminine
Encoding: 170 170 150
Width: 387
VWidth: 1009
Flags: W
HStem: 452.396 65.5049<164.572 252.985> 567.4 86.2998<166.31 242.347>
VStem: 10.5 153.012<391.255 452.12>
LayerCount: 2
Fore
SplineSet
162.969726562 452.395507812 m 25
 162.969726562 452.395507812 163.024414062 414.3984375 163.51171875 389.725585938 c 25
 163.51171875 389.725585938 225.359375 390.530273438 264.974609375 390.760742188 c 25
 264.974609375 390.760742188 262.884765625 426.1484375 261.047851562 448.846679688 c 25
 261.047851562 448.846679688 201.220703125 451.356445312 162.969726562 452.395507812 c 25
17.5 542.400390625 m 17
 17.5 542.400390625 24.5 653.700195312 196.700195312 653.700195312 c 0
 314.561523438 653.700195312 371 590 371 532.599609375 c 0
 371 481.5 366.099609375 444.400390625 366.099609375 408.700195312 c 0
 366.099609375 356.900390625 389.900390625 305.099609375 389.900390625 305.099609375 c 1
 256 307 l 25
 245 335.200195312 l 1
 245 335.200195312 208.599609375 293.900390625 118.299804688 293.900390625 c 0
 49 293.900390625 10.5 344.299804688 10.5 398.900390625 c 0
 10.5 487.87890625 127.365234375 517.900390625 190.400390625 517.900390625 c 0
 232.400390625 517.900390625 253 517 253 517 c 1
 247 560 l 1
 161 567.400390625 l 1
 158.200195312 531.200195312 l 1
 17.5 542.400390625 l 17
EndSplineSet
Validated: 1
EndChar

StartChar: ordmasculine
Encoding: 186 186 151
Width: 391
VWidth: 1009
Flags: W
HStem: 292.5 95.9004<149.6 249.412> 555 101.5<161.675 248.3>
VStem: 10.5 139.1<391.276 545.368> 254.1 126.7<388.904 551.959>
LayerCount: 2
Fore
SplineSet
254.099609375 388.400390625 m 1
 248.299804688 555 l 1
 149.299804688 547 l 1
 149.599609375 390.5 l 1
 254.099609375 388.400390625 l 1
380.799804688 479.400390625 m 0
 380.799804688 373 307.200195312 292.5 186.799804688 292.5 c 0
 66.3994140625 292.5 10.5 384 10.5 471.700195312 c 0
 10.5 550 76.599609375 656.5 199.099609375 656.5 c 0
 298 656.5 380.799804688 585.799804688 380.799804688 479.400390625 c 0
EndSplineSet
EndChar

StartChar: gravecomb
Encoding: 768 768 152
Width: 0
Flags: W
HStem: 442.55 212.45
VStem: 0 168
AnchorPoint: "Anchor-8" 113 635 mark 0
AnchorPoint: "Anchor-0" 141 454 mark 0
LayerCount: 2
Fore
SplineSet
116 655 m 1
 126.056640625 591.75 146.545898438 525.577148438 168 457 c 9
 121.922851562 442.549804688 l 1
 74.3486328125 494.122070312 28.6494140625 578.836914062 0 633 c 0
 116 655 l 1
EndSplineSet
Validated: 1
EndChar

StartChar: acutecomb
Encoding: 769 769 153
Width: 0
Flags: W
HStem: 452.55 212.45<52 71.3333>
VStem: 0 168
AnchorPoint: "Anchor-8" 53 645 mark 0
AnchorPoint: "Anchor-0" 31 454 mark 0
LayerCount: 2
Fore
SplineSet
52 665 m 1
 168 623 l 0
 146.78515625 567.592773438 112.1328125 502.703125 56.0771484375 452.549804688 c 1
 0 467 l 17
 29.6015625 534.201171875 49.5791015625 600.459960938 52 665 c 1
EndSplineSet
Validated: 1
EndChar

StartChar: uni0302
Encoding: 770 770 154
Width: 0
Flags: W
HStem: 450 203
VStem: 0 284
AnchorPoint: "Anchor-8" 135 655 mark 0
AnchorPoint: "Anchor-0" 141 454 mark 0
LayerCount: 2
Fore
SplineSet
90 648 m 1
 177 653 l 1
 206.14307198 585.776699365 245.102539062 516.413085938 284 457 c 9
 176 454 l 1
 127 546 l 1
 89 450 l 1
 0 454 l 1
 35.930422481 519.819479886 67.7366087718 584.837250616 90 648 c 1
EndSplineSet
Validated: 1
EndChar

StartChar: tildecomb
Encoding: 771 771 155
Width: 0
Flags: W
HStem: 453.932 89.1396<208.377 243.329> 468.386 21G<0 89.6768> 555.844 86.0049<93.6781 132.75>
AnchorPoint: "Anchor-8" 173 655 mark 0
AnchorPoint: "Anchor-0" 171 454 mark 0
LayerCount: 2
Fore
SplineSet
0 472 m 17x60
 9.63671875 596.073242188 39.751953125 641.848632812 109.255859375 641.848632812 c 0
 179 641.848632812 201.382220839 591.21394509 212.009765625 543.071289062 c 9
 243.329101562 540.662109375 l 1
 245.73828125 622.575195312 l 25
 334.87890625 620.166015625 l 1
 330.598336633 544.017627788 325 453.931640625 231.284179688 453.931640625 c 0xa0
 155 453.931640625 139.990502276 493.829373842 128.892578125 555.84375 c 9
 91.5498046875 558.252929688 l 25
 89.140625 468.385742188 l 25
 0 472 l 17x60
EndSplineSet
Validated: 1
EndChar

StartChar: uni0304
Encoding: 772 772 156
Width: 0
Flags: W
HStem: 510 80<6 245>
VStem: 0 251
AnchorPoint: "Anchor-8" 123 707 mark 0
AnchorPoint: "Anchor-0" 124 494 mark 0
LayerCount: 2
Fore
SplineSet
6 590 m 1
 245 595 l 25
 251 505 l 25
 0 510 l 25
 6 590 l 1
EndSplineSet
Validated: 1
EndChar

StartChar: uni0306
Encoding: 774 774 157
Width: 0
Flags: W
HStem: 453.932 78.1396<107.533 162.004>
VStem: 0 269.879
AnchorPoint: "Anchor-8" 138 655 mark 0
AnchorPoint: "Anchor-0" 135 444 mark 0
LayerCount: 2
Fore
SplineSet
107 618 m 1
 104.009765625 532.071289062 l 1
 165.329101562 529.662109375 l 1
 167.73828125 622.575195312 l 25
 269.87890625 620.166015625 l 1
 265.598632812 544.017578125 237 453.931640625 135.284179688 453.931640625 c 0
 29 453.931640625 6 536 0 615 c 9
 107 618 l 1
EndSplineSet
Validated: 1
EndChar

StartChar: uni0308
Encoding: 776 776 158
Width: 0
Flags: W
HStem: 484.303 170.064<29.2975 141.467 216.173 328.342>
VStem: 0 166.971<513.703 626.533> 186.875 166.971<513.703 626.533>
AnchorPoint: "Anchor-8" 173 655 mark 0
AnchorPoint: "Anchor-0" 176 474 mark 0
LayerCount: 2
Fore
SplineSet
271.775390625 654.3671875 m 0
 324.129882812 654.3671875 353.845703125 615.990234375 353.845703125 570.83984375 c 8
 353.845703125 525.690429688 327.66796875 484.302734375 273.897460938 484.302734375 c 8
 220.127929688 484.302734375 186.875 527.947265625 186.875 570.087890625 c 0
 186.875 612.227539062 219.419921875 654.3671875 271.775390625 654.3671875 c 0
84.900390625 654.3671875 m 0
 137.254882812 654.3671875 166.970703125 615.990234375 166.970703125 570.83984375 c 8
 166.970703125 525.690429688 140.79296875 484.302734375 87.0224609375 484.302734375 c 8
 33.2529296875 484.302734375 0 527.947265625 0 570.087890625 c 0
 0 612.227539062 32.544921875 654.3671875 84.900390625 654.3671875 c 0
EndSplineSet
Validated: 1
EndChar

StartChar: uni0307
Encoding: 775 775 159
Width: 0
Flags: W
HStem: 484.303 170.064<29.4623 142.298>
VStem: 0 166.971<513.64 625.691>
AnchorPoint: "Anchor-8" 89 675 mark 0
AnchorPoint: "Anchor-0" 90 474 mark 0
LayerCount: 2
Fore
SplineSet
81.900390625 654.3671875 m 0
 134.254882812 654.3671875 166.970703125 621.990234375 166.970703125 576.83984375 c 8
 166.970703125 531.690429688 143.79296875 484.302734375 90.0224609375 484.302734375 c 8
 36.2529296875 484.302734375 0 523.947265625 0 566.087890625 c 0
 0 608.227539062 29.544921875 654.3671875 81.900390625 654.3671875 c 0
EndSplineSet
Validated: 1
EndChar

StartChar: hookabovecomb
Encoding: 777 777 160
Width: 0
HStem: 584 81<110.561 158.061>
VStem: 160 96<538 581.74>
AnchorPoint: "Anchor-8" 139 625 mark 0
AnchorPoint: "Anchor-0" 146 425 mark 0
LayerCount: 2
Fore
SplineSet
10 554 m 9
 107 552 l 25
 110 584 l 25
 160 584 l 25
 158 538 l 25
 94 533 l 25
 108 430 l 25
 181 439 l 1
 172 494 l 25
 172 494 256 496 256 577 c 0
 256 628 209 665 139 665 c 0
 69 665 16 627 10 554 c 9
EndSplineSet
Validated: 9
EndChar

StartChar: uni030A
Encoding: 778 778 161
Width: 0
Flags: W
HStem: 432.85 78.2002<105.828 177.69> 616.05 82.7998<107.25 171.757>
VStem: 0 102.385<512.216 614.499> 178.85 101.1<516.663 616.871>
AnchorPoint: "Anchor-8" 139 715 mark 0
AnchorPoint: "Anchor-0" 141 411 mark 0
LayerCount: 2
Fore
SplineSet
104.849609375 616.049804688 m 1
 102.384765625 511.049804688 l 1
 178.849609375 515.049804688 l 1
 172.849609375 619.049804688 l 1
 104.849609375 616.049804688 l 1
0 573 m 0
 4.451171875 662.649414062 69.4638671875 697.797851562 139.5 698.849609375 c 0
 219.384765625 700.049804688 276.346679688 652.611328125 279.94921875 565.485351562 c 0
 282.665039062 499.815429688 242.384765625 430.049804688 137.049804688 432.849609375 c 0
 49.4755859375 435.177734375 -4.615234375 480.049804688 0 573 c 0
EndSplineSet
Validated: 33
EndChar

StartChar: uni030B
Encoding: 779 779 162
Width: 0
Flags: W
AnchorPoint: "Anchor-8" 181 665 mark 0
AnchorPoint: "Anchor-0" 89 454 mark 0
LayerCount: 2
Fore
SplineSet
215.268554688 645 m 1
 192.518554688 580.459960938 162.395507812 524.201171875 111.627929688 457 c 1
 149 425 l 1
 220.852539062 475.153320312 274.333007812 528.592773438 313 584 c 0
 215.268554688 645 l 1
43.51953125 658 m 1
 43.1796875 593.459960938 27.4345703125 524.201171875 0 457 c 1
 46 436 l 5
 100.438476562 486.153320312 143.219726562 567.592773438 162.6484375 623 c 0
 43.51953125 658 l 1
EndSplineSet
Validated: 9
EndChar

StartChar: uni030C
Encoding: 780 780 163
Width: 0
Flags: W
HStem: 454 186
VStem: 0 278
AnchorPoint: "Anchor-8" 159 674 mark 0
AnchorPoint: "Anchor-0" 160 454 mark 0
LayerCount: 2
Fore
SplineSet
194 459 m 1
 107 454 l 1
 77.8564453125 521.223632812 38.8974609375 580.586914062 0 640 c 1
 117 638 l 1
 154 550 l 1
 196 642 l 1
 278 642 l 1
 242.069335938 576.180664062 216.263671875 522.163085938 194 459 c 1
EndSplineSet
Validated: 1
EndChar

StartChar: uni030F
Encoding: 783 783 164
Width: 0
Flags: W
HStem: 442.55 220.45 458 21G<230 299.502>
VStem: 0 299.502
AnchorPoint: "Anchor-8" 139 675 mark 0
AnchorPoint: "Anchor-0" 230 454 mark 0
LayerCount: 2
Fore
SplineSet
285 663 m 1xa0
 278.9468426 599.978719667 282.364615792 536.387712832 299.501953125 471 c 1
 249 458 l 1x60
 211 509 174.775390625 593.940429688 163 652 c 0
 285 663 l 1xa0
112.654296875 655 m 1
 137.654296875 591.75 167.465820312 533.577148438 212 465 c 9
 176.85546875 442.549804688 l 1xa0
 109 484 44.2724609375 538.836914062 0 593 c 0
 112.654296875 655 l 1
EndSplineSet
Validated: 33
EndChar

StartChar: uni0311
Encoding: 785 785 165
Width: 0
Flags: W
HStem: 462.932 21G<0 111.742> 545.436 77.1396<110.57 169.173>
VStem: 0 269.879
AnchorPoint: "Anchor-8" 139 645 mark 0
AnchorPoint: "Anchor-0" 135 444 mark 0
LayerCount: 2
Fore
SplineSet
166.87890625 457.506835938 m 1
 171.869140625 545.435546875 l 1
 110.549804688 542.844726562 l 1
 112.140625 462.931640625 l 25
 0 466.340820312 l 1
 5 536 39.87890625 622.575195312 141.594726562 622.575195312 c 0
 247.87890625 622.575195312 263.87890625 540.506835938 269.87890625 461.506835938 c 9
 166.87890625 457.506835938 l 1
EndSplineSet
Validated: 1
EndChar

StartChar: uni0327
Encoding: 807 807 166
Width: 0
Flags: W
HStem: -206 62<77.1683 132.094>
VStem: 135 81.1211<-143.141 -69.7448>
AnchorPoint: "Anchor-2" 107 -34 mark 0
LayerCount: 2
Fore
SplineSet
148.12109375 30 m 1
 133 -22 l 1
 133 -22 216.12109375 -29 216.12109375 -111 c 0
 216.12109375 -152 180.12109375 -206 106.12109375 -206 c 0
 -7.87890625 -206 0.12109375 -96 0.12109375 -96 c 25
 79.12109375 -97 l 1
 77 -144 l 5
 135 -144 l 5
 134 -69 l 1
 70.12109375 -73 l 1
 76.12109375 35 l 1
 148.12109375 30 l 1
EndSplineSet
Validated: 33
EndChar

StartChar: uni0328
Encoding: 808 808 167
Width: 0
Flags: W
HStem: -206 86<84.827 160.983>
VStem: 0.121094 84.1211<-119.75 -86>
AnchorPoint: "Anchor-3" 84 -3 mark 0
LayerCount: 2
Fore
SplineSet
68.12109375 30 m 1
 141 12 l 1
 82 -86 l 1
 84.2421875 -120 l 1
 163 -121 l 1
 161 -200 l 1
 161 -200 136.998055034 -205.67665294 110.12109375 -206 c 0
 27 -207 0.121100642833 -157.557404097 0.12109375 -111 c 0
 0.121081609884 -29 68.12109375 30 68.12109375 30 c 1
EndSplineSet
Validated: 33
EndChar

StartChar: uni0326
Encoding: 806 806 168
Width: 0
Flags: W
HStem: -116.135 133.152<17.8336 78.9915>
VStem: 78.9277 57.8398<-142.043 -112.52>
AnchorPoint: "Anchor-2" 67 26 mark 0
LayerCount: 2
Fore
SplineSet
0 -54.6796875 m 0
 0 -1.66015625 40.3681640625 17.017578125 68.0830078125 17.017578125 c 0
 95.7978515625 17.017578125 136.767578125 -2.2626953125 136.767578125 -78.177734375 c 0
 136.767578125 -220.3671875 16.8701171875 -198.075195312 16.8701171875 -198.075195312 c 25
 13.8583984375 -142.64453125 l 25
 78.927734375 -143.849609375 l 1
 79.5302734375 -112.51953125 l 1
 79.5302734375 -112.51953125 68.869140625 -116.134765625 53.623046875 -116.134765625 c 0
 22.29296875 -116.134765625 0 -96.0810546875 0 -54.6796875 c 0
EndSplineSet
Validated: 33
EndChar

StartChar: dotbelowcomb
Encoding: 803 803 169
Width: 0
Flags: W
HStem: -175.697 170.064<29.4623 142.298>
VStem: 0 166.971<-146.36 -34.3088>
AnchorPoint: "Anchor-2" 83 26 mark 0
LayerCount: 2
Fore
SplineSet
81.900390625 -5.6328125 m 0
 134.254882812 -5.6328125 166.970703125 -38.009765625 166.970703125 -83.16015625 c 8
 166.970703125 -128.309570312 143.79296875 -175.697265625 90.0224609375 -175.697265625 c 8
 36.2529296875 -175.697265625 0 -136.052734375 0 -93.912109375 c 0
 0 -51.7724609375 29.544921875 -5.6328125 81.900390625 -5.6328125 c 0
EndSplineSet
Validated: 1
EndChar

StartChar: dotlessi
Encoding: 305 305 170
Width: 227
Flags: W
HStem: 0 21G<22 207>
VStem: 21 186
AnchorPoint: "Anchor-0" 109 499 basechar 0
LayerCount: 2
Fore
SplineSet
25 446 m 25
 90 450 191 455 191 455 c 25
 197 278 207 0 207 0 c 17
 21 0 l 25
 23 174 25 446 25 446 c 25
EndSplineSet
Validated: 1
EndChar

StartChar: Oslash
Encoding: 216 216 224
Width: 712
Flags: W
HStem: -37 185.514<309.066 483.339> 507.07 187.93<255.469 402.704>
VStem: 15 222.088<182.878 451.897> 475.038 221.962<246.951 473.127>
AnchorPoint: "Anchor-0" 375 709 basechar 0
LayerCount: 2
Fore
SplineSet
201.125976562 -79.4453125 m 2
 116.848632812 -40.2119140625 l 1
 116.848632812 -40.2119140625 129.594717549 -17.1291193544 149.811661943 19.6444441003 c 1
 70.4217890467 71.3907849464 15 162.854704893 15 311 c 0
 15 595 225 695 375 695 c 0
 412.634622047 695 447.50733278 689.830268565 479.324958257 680.077153579 c 1
 493.44136013 713.686729388 501.962890625 734.663085938 501.962890625 734.663085938 c 1
 593.801757812 692.633789062 l 1
 593.801757812 692.633789062 582.372249381 672.275937836 563.812782708 638.733387695 c 1
 648.982770642 578.136082644 697 472.981972891 697 345 c 0
 697 141 579 -37 365 -37 c 0
 318.981336808 -37 272.822779484 -31.1244464787 229.817195509 -17.5974109071 c 1
 212.390495404 -55.0027516909 201.125976562 -79.4453125 201.125976562 -79.4453125 c 2
308.10525925 148.514303681 m 1
 359.239916212 148.898018696 428.798953479 149.449009348 485 150 c 1
 475.037609719 476.041863756 l 1
 444.185323448 418.66211487 411.089889332 356.121581445 380.711914062 296.696289062 c 0
 360.153920238 256.481347841 334.024487931 202.751301949 308.10525925 148.514303681 c 1
404.050399488 507.070121657 m 1
 354.635116329 504.992529497 288.48749398 502.195108434 238 500 c 1
 237.088189675 179.042765649 l 1
 261.690471752 224.177267321 287.375732165 271.497004681 311.31640625 315.967773438 c 0
 341.252509867 371.575310965 374.14216429 440.915774516 404.050399488 507.070121657 c 1
EndSplineSet
EndChar

StartChar: oslash
Encoding: 248 248 225
Width: 559
Flags: W
HStem: -25 146.49<259.349 354.395> 356.343 138.657<196.213 276.088>
VStem: 15 171.703<138.087 303.114> 361 183<140.587 205.5>
AnchorPoint: "Anchor-0" 284 519 basechar 0
LayerCount: 2
Fore
SplineSet
15 248 m 0
 15 400 113 495 285 495 c 0
 299.557703853 495 313.506505157 493.946956767 326.845191295 491.953037282 c 1
 338.813478047 524.320656477 346.354492188 544.986328125 346.354492188 544.986328125 c 1
 434 514 l 1
 434 514 424.778844754 496.058444989 409.438802241 464.489609421 c 1
 498.897420688 415.663073325 544 317.481548077 544 239 c 0
 544 130 461 -25 286 -25 c 0
 256.886441037 -25 229.95934235 -21.6511178066 205.296978504 -15.3677481839 c 1
 190.520376453 -54.421816717 182 -78 182 -78 c 1
 86.5595703125 -44.9541015625 l 1
 86.5595703125 -44.9541015625 102.190299205 -23.969872723 126.805104021 18.9649186309 c 1
 53.7198842234 67.4376545734 15 151.467179313 15 248 c 0
276.08752458 356.343016733 m 1
 196 358 l 1
 186.703497335 135.813586313 l 1
 200.596380097 165.878947902 215.255733859 199.785702609 230.215820312 237.6015625 c 0
 244.991515275 274.951470762 260.912810114 316.347668373 276.08752458 356.343016733 c 1
258.630413751 121.490185614 m 1
 361 125 l 1
 343.751362928 323.359326331 l 1
 330.220265037 293.050604978 315.847922008 260.051458941 301.13671875 225.060546875 c 0
 285.975205948 188.998418775 271.687746767 154.050228032 258.630413751 121.490185614 c 1
EndSplineSet
EndChar

StartChar: germandbls
Encoding: 223 223 226
Width: 606
Flags: W
HStem: -7 156<304 406.619> 0 21G<84 259> 311.146 118.465<25 87.2471> 598 131<254.968 367.282>
VStem: 84 175<0 311.146> 101.482 150.518<429.61 597.551> 408 183<144.854 299.656>
LayerCount: 2
Fore
SplineSet
103 555 m 2x76
 104.478534182 677.163648922 200 729 310 729 c 0
 423.171875 729 530 663.005859375 530 550 c 0
 530 436 425 415 425 415 c 1
 425 415 591 385 591 210 c 0
 591 57.1240234375 472.338867188 -5.2529296875 304 -7 c 1
 294 149 l 1
 408 143 l 1
 406 305 l 1
 307 303 l 1
 299 471 l 1
 379 472 l 1
 371 594 l 1
 252 598 l 1xb6
 259 0 l 1
 84 0 l 1x7a
 87.2470703125 311.145507812 l 1
 20 307 l 1
 25 436 l 1
 101.482421875 429.610351562 l 1
 103 555 l 2x76
EndSplineSet
Validated: 1
EndChar

StartChar: AE
Encoding: 198 198 227
Width: 933
Flags: W
HStem: 0 148<573 912> 163.96 145.41<260.24 347.839> 282 143<571 848.834> 670 20G<901 901>
VStem: 349.787 161.213<425 534.69>
AnchorPoint: "Anchor-0" 574 709 basechar 0
LayerCount: 2
Fore
SplineSet
349.787109375 534.690429688 m 1xd8
 260.240234375 309.370117188 l 1
 347.838867188 308.059570312 l 1
 349.787109375 534.690429688 l 1xd8
401.1953125 0 m 5
 400 167.889648438 l 5
 230.719726562 163.959960938 l 1xd8
 185.83984375 -13.7197265625 l 1
 -10 16.2802734375 l 1
 275.759765625 686.650390625 l 1
 485.759765625 686.650390625 901 690 901 690 c 1
 901 637 901 542 901 542 c 1
 775 542 511 544 511 544 c 1
 511 497 511 425 511 425 c 1
 620 423 849 423 849 423 c 1
 849 278 l 1
 571 282 l 1xb8
 573 148 l 1
 913 151 l 1
 912 0 l 1
 696 0 401.1953125 0 401.1953125 0 c 5
EndSplineSet
Validated: 1
EndChar

StartChar: Eth
Encoding: 208 208 228
Width: 736
Flags: W
HStem: 0 165<307.071 476.263> 281.761 128.601<308.673 398.604> 287.958 130.149<30.8457 81.3672 308.673 390.839> 502 183<418.261 487.32>
VStem: 81.3672 169.096<417.063 524.965> 491 230<221.06 496.855>
LayerCount: 2
Fore
SplineSet
80 679 m 1xbc
 80 679 145 685 317 685 c 0
 489 685 723 655 721 355 c 0
 719 55 460 0 325 0 c 0
 190 0 84 -1 84 -1 c 1
 83.3466796875 85.5419921875 82.693359375 198.08203125 82.1103515625 296.94140625 c 5
 20 297.958007812 l 5
 30.845703125 408.107421875 l 5
 81.3671875 407.063476562 l 5
 80.552734375 554.334960938 80 679 80 679 c 1xbc
308.672851562 293.723632812 m 5
 308.094726562 252.259765625 307.513671875 200.987304688 307 165 c 1
 307 165 405 166 487 167 c 1
 487 167 489 375 491 502 c 1
 252 525 l 1
 252 525 251.354492188 467.671875 250.462890625 402.950195312 c 5
 405.80078125 400.361328125 l 5
 398.603515625 291.760742188 l 5xdc
 308.672851562 293.723632812 l 5
EndSplineSet
Validated: 33
EndChar

StartChar: multiply
Encoding: 215 215 229
Width: 472
Flags: W
LayerCount: 2
Fore
SplineSet
30 466 m 1
 169 345 l 1
 20 241 l 1
 168 147 l 1
 244 282 l 1
 317 146 l 1
 452 218 l 1
 312 357 l 1
 447 457 l 1
 320 551 l 1
 244 420 l 1
 161 555 l 1
 30 466 l 1
EndSplineSet
Validated: 9
EndChar

StartChar: Thorn
Encoding: 222 222 230
Width: 623
Flags: W
HStem: 0 21G<20 218.317> 115 176<220.023 419.625> 446.12 157.88<232.95 414.372> 671 20G<234 234>
VStem: 20 198<0 126> 418.71 189.29<292.799 438.547>
LayerCount: 2
Fore
SplineSet
220.330078125 446.120117188 m 5
 220.330078125 446.120117188 214.879882812 339.959960938 211.610351562 284.280273438 c 5
 211.610351562 284.280273438 340.23046875 288.120117188 423.0703125 291 c 1
 423.0703125 291 420.889648438 389.48046875 418.709960938 440.360351562 c 1
 418.709960938 440.360351562 297.719726562 444.200195312 220.330078125 446.120117188 c 5
20 680 m 1
 103 685 234 691 234 691 c 1
 234 666.695906013 233.5625 621.516601562 232.923828125 597.70703125 c 1
 232.923828125 597.70703125 269.305664062 604 324 604 c 0
 479 604 608 570 608 360 c 0
 608 162.473632812 434.163085938 115.934570312 321 115 c 0
 250.834960938 114.419921875 220 126 220 126 c 1
 218 0 l 1
 22 0 l 1
 20 0 l 1
 21.9605615719 10.3746383177 l 1
 20.9738790407 271.944681958 20 680 20 680 c 1
EndSplineSet
Validated: 33
EndChar

StartChar: ae
Encoding: 230 230 231
Width: 855
Flags: W
HStem: -26 106<554.782 660.679> -23 135.411<194.108 326.653> 187 84<553 642> 191.604 101.396<192.061 321.983> 349 127<489.545 639.537> 373 118<190.591 318.068>
VStem: 15 179.108<112.461 189.521>
AnchorPoint: "Anchor-0" 442 499 basechar 0
LayerCount: 2
Fore
SplineSet
25 322 m 1x56
 25 322 35 491 281 491 c 0x56
 365.671480124 491 413.738336958 470.010229285 440.603604178 436.169750238 c 1
 473.629482079 461.133302928 519.502905859 476 582 476 c 0
 804 476 835 316 840 198 c 1
 553 187 l 1
 554 80 l 1
 663 86 l 1
 666 154 l 1
 838 152 l 1
 838 152 834 -26 601 -26 c 0xaa
 504.970046979 -26 446.98270162 6.22432648971 412.535139053 53.3119336404 c 1
 389.87445847 31.654411611 322.441035413 -23 219 -23 c 0
 80 -23 15 49 15 127 c 0
 15 254.11328125 127 293 239 293 c 0
 299 293 322 290 322 290 c 1
 320 373 l 1
 186 371 l 1
 181 317 l 1
 25 322 l 1x56
190.231445312 191.604492188 m 1
 194.108398438 112.411132812 l 1
 356 117 l 1
 358 198 l 1
 190.231445312 191.604492188 l 1
488 349 m 1x2a
 487 270 l 1
 487 270 574 271 642 271 c 1
 643 354 l 1
 488 349 l 1x2a
EndSplineSet
Validated: 1
EndChar

StartChar: eth
Encoding: 240 240 232
Width: 534
Flags: W
HStem: -23 155<193.713 337.784> 329 120<194.7 319.107> 490 21G<173.986 292.123>
VStem: 15 178<138.249 322.792> 342 177<153.473 321.003>
LayerCount: 2
Fore
SplineSet
220 664 m 1
 373 690 l 1
 422.764612729 598.334579733 l 1
 493 608 l 1
 502 534 l 1
 455.132952045 527.654922738 l 1
 488.347751045 448.947611837 519 353.225133152 519 268 c 0
 519 104.306640625 409 -23 245 -23 c 0
 151 -23 15 21 15 221 c 0
 15 421 149 449 220 449 c 0
 301 449 332 418 332 418 c 1
 292.123471335 505.585946888 l 1
 177 490 l 1
 166 563 l 1
 260.088720432 575.94798905 l 1
 220 664 l 1
194 329 m 1
 193 132 l 1
 342 127 l 1
 344 323 l 1
 194 329 l 1
EndSplineSet
Validated: 1
EndChar

StartChar: thorn
Encoding: 254 254 233
Width: 550
Flags: W
HStem: -14 140<209.023 340.18> 322 165<227.374 338>
VStem: 20 170<297.444 319 589.8 705> 26 179<-211 8 449 537> 26 155<125 275.889> 344 191<127.01 319.763>
LayerCount: 2
Fore
SplineSet
190 319 m 1xe4
 181 125 l 25xcc
 344 126 l 1
 338 322 l 25
 190 319 l 1xe4
20 705 m 25xe4
 65 708 196 713 196 713 c 25
 205 449 l 29
 205 449 238 487 326 487 c 16
 414 487 535 422 535 233 c 16
 535 44 367 -14 304 -14 c 16
 241 -14 209 8 209 8 c 25
 205 -212 l 25
 26 -211 l 25xd4
 20 705 l 25xe4
EndSplineSet
Validated: 1
EndChar

StartChar: minus
Encoding: 8722 8722 234
Width: 425
Flags: W
HStem: 287.958 130.149<23 398>
LayerCount: 2
Fore
SplineSet
23 287.958007812 m 1
 21.845703125 418.107421875 l 1
 398 421 l 1
 403 290 l 1
 23 287.958007812 l 1
EndSplineSet
Validated: 1
EndChar

StartChar: divide
Encoding: 247 247 235
Width: 425
Flags: W
HStem: 160.249 112.623<139.972 294.712> 287.958 126.149<24 395> 435.091 111.627<133.485 287.04>
VStem: 113.474 192.92<454.997 526.729> 117.864 199.689<183.038 250.283>
LayerCount: 2
Fore
SplineSet
209.086914062 546.717773438 m 4xf0
 271.703125 546.717773438 306.393554688 522.298828125 306.393554688 492.399414062 c 4
 306.393554688 462.499023438 272.547851562 435.090820312 208.2421875 435.090820312 c 4
 143.93359375 435.090820312 113.473632812 462.000976562 113.473632812 489.908203125 c 4
 113.473632812 517.814453125 146.47265625 546.717773438 209.086914062 546.717773438 c 4xf0
221.940429688 272.872070312 m 0
 284.555664062 272.872070312 317.553710938 251.443359375 317.553710938 221.543945312 c 0
 317.553710938 191.643554688 282.862304688 160.249023438 218.555664062 160.249023438 c 0
 154.248046875 160.249023438 117.864257812 183.669921875 117.864257812 217.059570312 c 0xe8
 117.864257812 244.965820312 159.326171875 272.872070312 221.940429688 272.872070312 c 0
24 287.958007812 m 1
 21.845703125 414.107421875 l 1
 395 421 l 1
 397 294 l 1
 24 287.958007812 l 1
EndSplineSet
Validated: 1
EndChar

StartChar: uni0312
Encoding: 786 786 314
Width: 226
VWidth: 854
Flags: W
HStem: 391.357 150.5<127.407 189.51>
VStem: 53.9004 158.199<414.654 528.321>
AnchorPoint: "Anchor-0" 134.4 370.357 mark 0
LayerCount: 2
Fore
SplineSet
212.099609375 471.157226562 m 0
 212.099609375 416.557617188 172.900390625 391.357421875 126.700195312 391.357421875 c 0
 94.5 391.357421875 53.900390625 410.2578125 53.900390625 491.458007812 c 0
 53.900390625 663.657226562 197.400390625 639.157226562 197.400390625 639.157226562 c 25
 196.700195312 573.357421875 l 1
 130.900390625 568.458007812 l 1
 127.400390625 538.357421875 l 1
 127.400390625 538.357421875 136.287109375 541.857421875 154 541.857421875 c 0
 190.400390625 541.857421875 212.099609375 512.258789062 212.099609375 471.157226562 c 0
EndSplineSet
Validated: 33
EndChar

StartChar: uni0313
Encoding: 787 787 315
Width: 226
VWidth: 854
Flags: W
HStem: 488.125 150.5<77.246 138.168>
VStem: 138.75 74.2002<457.196 491.625>
AnchorPoint: "Anchor-1" 26.75 559.525 mark 0
LayerCount: 2
Fore
SplineSet
54.0498046875 558.825195312 m 0
 54.0498046875 620.424804688 104.450195312 638.625 136.650390625 638.625 c 0
 168.849609375 638.625 212.950195312 619.725585938 212.950195312 531.525390625 c 0
 212.950195312 366.325195312 69.4501953125 390.825195312 69.4501953125 390.825195312 c 25
 70.150390625 456.625 l 1
 138.75 455.225585938 l 1
 139.450195312 491.625 l 1
 139.450195312 491.625 130.563476562 488.125 112.849609375 488.125 c 0
 76.4501953125 488.125 54.0498046875 510.724609375 54.0498046875 558.825195312 c 0
EndSplineSet
Validated: 33
EndChar

StartChar: Dcroat
Encoding: 272 272 318
Width: 736
Flags: W
HStem: 0 165<307.071 476.263> 291.761 108.601<308.673 398.604> 297.958 110.149<30.8457 81.3672 308.673 390.839> 502 183<418.261 487.32>
VStem: 81.3672 169.096<407.063 524.958> 491 230<221.06 496.855>
LayerCount: 2
Fore
SplineSet
80 679 m 1xbc
 80 679 145 685 317 685 c 0
 489 685 723 655 721 355 c 0
 719 55 460 0 325 0 c 0
 190 0 84 -1 84 -1 c 1
 83.3466796875 85.5419921875 82.693359375 198.08203125 82.1103515625 296.94140625 c 5
 20 297.958007812 l 5
 30.845703125 408.107421875 l 5
 81.3671875 407.063476562 l 5
 80.552734375 554.334960938 80 679 80 679 c 1xbc
308.672851562 293.723632812 m 5
 308.094726562 252.259765625 307.513671875 200.987304688 307 165 c 1
 307 165 405 166 487 167 c 1
 487 167 489 375 491 502 c 1
 252 525 l 1
 252 525 251.354492188 467.671875 250.462890625 402.950195312 c 5
 405.80078125 400.361328125 l 5
 398.603515625 291.760742188 l 5xdc
 308.672851562 293.723632812 l 5
EndSplineSet
Validated: 33
EndChar

StartChar: dcroat
Encoding: 273 273 319
Width: 553
Flags: W
HStem: -23 147<184.324 320.75> 316 153<200.425 331> 501.152 106.243<268 342.558 522.841 583>
VStem: 15 182<241.333 311.579> 15 164<127.631 198.667>
AnchorPoint: "Anchor-4" 547 546 basechar 0
LayerCount: 2
Fore
SplineSet
341 662 m 1xe8
 523 660 l 1
 522.84059014 607.394746312 l 1
 586 607 l 1
 583 500 l 1
 522.518642503 501.152025857 l 1
 521 0 l 1
 398 -19 l 1
 389 41 l 1
 359.710678119 3.50966799188 300.063925137 -23 245 -23 c 0
 108.399555855 -23 15 84.2064467206 15 241 c 0
 15 374.402879542 112.501418016 469 250 469 c 0
 299.875108319 469 367 436 367 436 c 1
 365.586914062 494.522460938 l 1
 268 496 l 1
 266 609 l 1
 342.557617188 608.521484375 l 1
 341 662 l 1xe8
197 316 m 1xf0
 179 124 l 1xe8
 341 132 l 1
 331 310 l 1
 197 316 l 1xf0
EndSplineSet
Validated: 1
EndChar

StartChar: Hbar
Encoding: 294 294 332
Width: 647
Flags: W
HStem: 0 21G<20 238.072 433.708 627> 278 148<239 429> 494.505 106.674<-42 20.7197 198.345 396.307 621.954 683> 675 20G<21 198.074>
VStem: 20 218<0 278> 430 191.954<0 274 424 494.505>
AnchorPoint: "Anchor-0" 284 709 basechar 0
LayerCount: 2
Fore
SplineSet
21 694 m 1
 198 695 l 1
 198.344726562 602.390625 l 1
 396.306640625 601.793945312 l 1
 395 688 l 1
 620 686 l 1
 620.865234375 601.178710938 l 1
 686 601 l 1
 683 494 l 1
 621.954028489 494.50520804 l 1
 627 0 l 1
 434 0 l 1
 430 274 l 1
 239 278 l 1
 238 0 l 1
 20 0 l 1
 20.7197131705 499.480940305 l 1
 -42 500 l 1
 -44 603 l 1
 20.8681640625 602.822265625 l 1
 21 694 l 1
427.903320312 496.359375 m 5
 178.731697937 498.173254914 l 1
 179 426 l 1
 429 424 l 5
 427.903320312 496.359375 l 5
EndSplineSet
Validated: 1
EndChar

StartChar: hbar
Encoding: 295 295 333
Width: 494
Flags: W
HStem: 0 21G<20 173.74> 513.443 90.3232<208.673 272> 514.721 78.4141<-19 20.7779> 672 20G<91.875 209.699>
VStem: 20 154<6 308> 20.7779 165.222<406 513.443> 300 174<-0.835144 308>
AnchorPoint: "Anchor-0" 114 727 basechar 0
LayerCount: 2
Fore
SplineSet
21 660 m 1xb6
 210 692 l 1
 208.6731816 603.766576369 l 1
 278 604 l 1
 272 513 l 1
 187.314453125 513.443359375 l 1
 186 406 l 1
 186 406 267 478 353 478 c 0
 439 478 474 398 474 312 c 0
 474 226 471 -1 471 -1 c 1
 299 -7 l 1
 300 308 l 1
 170 308 l 1
 174 0 l 1
 20 6 l 1xda
 20.7778603969 514.720699586 l 1
 -20 515 l 1
 -19 596 l 1
 20.9130859375 593.134765625 l 1
 21 660 l 1xb6
EndSplineSet
Validated: 1
EndChar

StartChar: uni0237
Encoding: 567 567 334
Width: 212
Flags: W
HStem: -213 130<-70.9599 27>
VStem: 27 165<-82.9958 448>
AnchorPoint: "Anchor-0" 109 499 basechar 0
LayerCount: 2
Fore
SplineSet
20 448 m 17
 189 457 l 9
 189 457 192 170 192 -16 c 0
 192 -178.02734375 96 -213 40 -213 c 16
 -16 -213 -71 -199 -71 -199 c 25
 -74 -82 l 25
 27 -83 l 25
 20 448 l 17
EndSplineSet
Validated: 1
EndChar

StartChar: kgreenlandic
Encoding: 312 312 339
Width: 519
Flags: W
HStem: 0 21G<32.4286 204 299.563 529> 445 20G<20 174.286>
VStem: 20 155<269 455> 33 171<0 159>
AnchorPoint: "Anchor-2" 263 -2 basechar 0
LayerCount: 2
Fore
SplineSet
20 455 m 17xe0
 175 465 l 17xe0
 168 269 l 1
 329 448 l 17
 491 438 l 1
 347 284 l 17
 529 14 l 1
 327 0 l 5
 233 199 l 1
 200 159 l 1
 204 0 l 17
 33 0 l 17xd0
 20 455 l 17xe0
EndSplineSet
Validated: 1
EndChar

StartChar: Lslash
Encoding: 321 321 348
Width: 596
Flags: W
HStem: 0 21G<73.8803 576> 462 20G<308.68 384.583>
VStem: 71.5146 215.654<455.968 658.379> 72.085 194.709<152 319.995>
AnchorPoint: "Anchor-2" 328 -14 basechar 0
AnchorPoint: "Anchor-0" 174 709 basechar 0
LayerCount: 2
Fore
SplineSet
70 658 m 1xe0
 155 666 288 679 288 679 c 1
 287.168945312 455.967773438 l 1xe0
 380 482 l 1
 402 386 l 1
 266.793945312 346.205078125 l 1
 266 152 l 1
 570 156 l 5
 576 0 l 1
 576 1 74 1 74 0 c 1
 72.0849609375 319.995117188 l 1xd0
 18 301 l 1
 5 393 l 1
 71.5146484375 404.786132812 l 1
 70 658 l 1xe0
EndSplineSet
Validated: 33
EndChar

StartChar: lslash
Encoding: 322 322 349
Width: 350
Flags: W
HStem: 0 21G<73 252> 462 20G<249.967 337.083> 665 20G<78.8248 249>
VStem: 75.7969 164.602<143.805 319.31> 76.6309 173.328<0 188.059 461.998 679>
AnchorPoint: "Anchor-2" 169 -14 basechar 0
AnchorPoint: "Anchor-0" 166 709 basechar 0
LayerCount: 2
Fore
SplineSet
79 685 m 1xe8
 249 679 l 1
 249.958984375 461.998046875 l 1xe8
 335 482 l 1
 345 386 l 1
 240.3984375 362.563476562 l 1
 252 0 l 1
 73 0 l 1
 75.796875 319.309570312 l 1xf0
 14 304 l 1
 5 410 l 1
 76.630859375 414.533203125 l 1
 79 685 l 1xe8
EndSplineSet
Validated: 1
EndChar

StartChar: Eng
Encoding: 330 330 352
Width: 692
Flags: W
HStem: 0 21G<21 199> 673 20G<251 303>
VStem: 21 178<0.157181 380> 518 155<-77.8016 -7.62149>
AnchorPoint: "Anchor-2" 358 -14 basechar 0
AnchorPoint: "Anchor-0" 375 709 basechar 0
LayerCount: 2
Fore
SplineSet
20 690 m 1
 110 691 251 693 251 693 c 1
 355 535 507 319 507 319 c 5
 501 473 492 685 492 685 c 1
 555 686 664 687 664 687 c 1
 664 687 673 150 673 -36 c 0
 673 -198.02734375 577 -213 521 -213 c 0
 465 -213 399 -195 399 -195 c 1
 409 -72 l 1
 518 -78 l 1
 516.175517613 -5.02070451356 l 1
 475.624940716 -6.1413060662 446 -7 446 -7 c 1
 341 160 200 380 200 380 c 1
 200 216 199 0 199 0 c 1
 138 0 21 0 21 0 c 1
 21 261 20 690 20 690 c 1
EndSplineSet
Validated: 1
EndChar

StartChar: eng
Encoding: 331 331 353
Width: 532
Flags: W
HStem: 0 21G<25.7363 196> 442 44G<20 156.143 303 411>
VStem: 26 170<0 321> 345 167<-27.3831 327.302>
AnchorPoint: "Anchor-2" 268 -14 basechar 0
AnchorPoint: "Anchor-0" 284 499 basechar 0
LayerCount: 2
Fore
SplineSet
20 455 m 1
 144 462 l 1
 178 406 l 1
 178 406 249 486 357 486 c 0
 465 486 512 418 512 307 c 16
 512 196 508 122 508 0 c 0
 508 -82.710337927 478 -176 368 -176 c 0
 303.501953125 -176 250 -150 250 -150 c 1
 265 -23 l 5
 344 -30 l 1
 345 329 l 1
 190 321 l 1
 196 0 l 25
 26 0 l 25
 20 455 l 1
EndSplineSet
Validated: 1
EndChar

StartChar: OE
Encoding: 338 338 354
Width: 1093
Flags: W
HStem: -37 187<242.353 469.634> 0.989253 169.011<683 1067> 284 150<739 1015> 522 183<393.8 481.565> 554 136<761.031 1061>
VStem: 15 215<295.5 460.773>
AnchorPoint: "Anchor-0" 535 709 basechar 0
LayerCount: 2
Fore
SplineSet
503.885942817 0.989253084278 m 1x6c
 460.610331141 -23.393432827 407.799981368 -37 345 -37 c 0
 171 -37 15 67 15 331 c 0
 15 615 245 705 375 705 c 4xb4
 457.270507812 705 553 680 553 680 c 1
 1061 690 l 1
 1061 637 1061 554 1061 554 c 1
 935 548 739 540 739 540 c 1
 739 493 739 434 739 434 c 1
 848 432 1019 430 1019 430 c 1
 1017 379 1015 280 1015 280 c 1
 884 282 679 284 679 284 c 1
 683 170 l 1
 1067 170 l 1
 1069 100 1073 0 1073 0 c 1
 870.199786179 0 543.10606952 0.881514204519 503.885942817 0.989253084278 c 1x6c
230 502 m 1
 242 148 l 1
 242 148 369 149 471 150 c 1
 482 522 l 1
 230 502 l 1
EndSplineSet
EndChar

StartChar: oe
Encoding: 339 339 355
Width: 885
Flags: W
HStem: -26 113<535.787 665> -25 133<197.981 350.508> 187 88<556 691> 345 160<189.548 353.954> 358 118<560.066 687.214>
VStem: 15 172<160.667 340.396>
AnchorPoint: "Anchor-0" 454 519 basechar 0
LayerCount: 2
Fore
SplineSet
15 248 m 0x64
 15 400 113 505 285 505 c 0x74
 370.684171843 505 427.829120119 468.519427266 463.60526266 418.429442124 c 1
 503.693933256 453.558294069 561.05768493 476 640 476 c 0
 792 476 870 384 870 186 c 1
 533 187 l 1
 534 87 l 1
 665 90 l 1
 668 146 l 1
 858 144 l 1
 858 144 856 -26 646 -26 c 0xac
 551.396576467 -26 487.893734845 1.74440400676 447.236321222 44.1096340057 c 1
 408.825646708 2.45921803812 350.858371497 -25 266 -25 c 0
 91 -25 15 96 15 248 c 0x64
187 345 m 1
 196 108 l 1
 351 115 l 1
 354 345 l 1
 187 345 l 1
558 358 m 1x2c
 556 275 l 1
 691 274 l 1
 690 359 l 1
 558 358 l 1x2c
EndSplineSet
Validated: 1
EndChar

StartChar: Tbar
Encoding: 358 358 374
Width: 616
Flags: W
HStem: 246 100<130.58 213.057 411.305 450.622> 482 21G<20 21.5> 674 20G<27 138>
VStem: 213.057 195.141<345.168 497.95> 220.445 190.859<2.69688 243.783>
AnchorPoint: "Anchor-0" 316 709 basechar 0
AnchorPoint: "Anchor-2" 318 -34 basechar 0
LayerCount: 2
Fore
SplineSet
27 694 m 1xf0
 249 691 596 686 596 686 c 1
 593 626 588 532 588 532 c 1
 524 531 404 530 404 530 c 1
 405.315429688 475.815429688 406.768554688 407.53515625 408.197265625 345.16796875 c 1xf0
 520 353 l 1
 526 243 l 5
 411.3046875 243.783203125 l 5
 413.96484375 124.926757812 416 1 416 1 c 1
 326 -2 206 -7 206 -7 c 1
 207.35546875 59.7802734375 218.94140625 174.31640625 220.4453125 250.286132812 c 5xe8
 125 246 l 5
 131 346 l 1
 213.056640625 341.65625 l 1
 214.771484375 428.94921875 216 498 216 498 c 1
 140 492 20 482 20 482 c 1
 23 565 27 694 27 694 c 1xf0
EndSplineSet
Validated: 1
EndChar

StartChar: tbar
Encoding: 359 359 375
Width: 433
Flags: W
HStem: -22 125<224.877 297.92> 224 71.6621<216 374.198> 334 135<231 387> 346 105<6 77>
VStem: 55 166<104.902 219.382> 301 124<102.915 189>
AnchorPoint: "Anchor-1" 308 556 basechar 0
AnchorPoint: "Anchor-2" 232 -38 basechar 0
LayerCount: 2
Fore
SplineSet
129 573 m 1xdc
 232 576 l 1
 231 469 l 1
 387 475 l 1
 388 329 l 1
 203 334 l 1xec
 202.66796875 295.662109375 l 1
 379 294 l 1
 374.198242188 220 l 1
 216 224 l 1
 221 103 l 1
 301 100 l 1
 303 189 l 1
 420 190 l 1
 420 190 425 152 425 126 c 0
 425 23 363 -22 231 -22 c 0
 99 -22 55 56 55 134 c 0
 55 159.38015847 57.3291015625 188.689453125 60.4716796875 219.381835938 c 1
 10.1591796875 218 l 1
 15 303 l 1
 69.732421875 297.2890625 l 1
 73.7412109375 326.15234375 77 346 77 346 c 1
 2 346 l 1
 6 451 l 1
 98 447 l 1
 129 573 l 1xdc
EndSplineSet
Validated: 1
EndChar

StartChar: Ohorn
Encoding: 416 416 519
Width: 753
Flags: W
HStem: -37 187<244.618 483.339> 500 195<255.469 473.895> 664 20G<650.857 793>
VStem: 15 222<171.601 451.897> 474 223<280.909 480.866>
AnchorPoint: "Anchor-2" 368 -34 basechar 0
AnchorPoint: "Anchor-3" 368 28 basechar 0
AnchorPoint: "Anchor-0" 375 709 basechar 0
LayerCount: 2
Fore
SplineSet
238 500 m 1xd8
 237 148 l 1
 237 148 383 149 485 150 c 1
 474 510 l 1
 474 510 330 504 238 500 c 1xd8
675.805634849 482.820179356 m 1
 689.721486422 441.195297295 697 394.827787121 697 345 c 0
 697 141 579 -37 365 -37 c 0
 191 -37 15 47 15 311 c 0
 15 595 225 695 375 695 c 0xd8
 474.277646689 695 554.335993671 659.025413368 609.793370353 597.839581285 c 1
 644 600 l 1
 653 684 l 1xb8
 793 679 l 1
 792.360622307 554.960727478 741.219599001 501.737537223 675.805634849 482.820179356 c 1
EndSplineSet
Validated: 1
EndChar

StartChar: ohorn
Encoding: 417 417 520
Width: 620
Flags: W
HStem: -25 144<189.28 354.395> 355 140<196.213 341> 464 20G<507.758 660>
VStem: 15 181<190.7 356.348> 361 183<140.587 205.5>
AnchorPoint: "Anchor-2" 286 -34 basechar 0
AnchorPoint: "Anchor-3" 288 28 basechar 0
AnchorPoint: "Anchor-0" 284 519 basechar 0
LayerCount: 2
Fore
SplineSet
15 248 m 0xb8
 15 400 113 495 285 495 c 0xd8
 377.939925816 495 446.061857652 452.079469234 489.050257543 395.425669406 c 1
 514 393 l 1
 506 484 l 1
 660 476 l 1
 646.800204652 362.481760004 602.2381818 312.123561507 538.100719205 290.140006489 c 1
 542.031303737 272.653273661 544 255.39669167 544 239 c 0
 544 130 461 -25 286 -25 c 0
 111 -25 15 96 15 248 c 0xb8
196 358 m 1
 186 119 l 1
 361 125 l 1
 341 355 l 1
 196 358 l 1
EndSplineSet
Validated: 1
EndChar

StartChar: Uhorn
Encoding: 431 431 541
Width: 753
Flags: W
HStem: -30 188<244.982 409.25>
VStem: 20 216<159.334 658.291> 434 178<166.172 477.912> 660 133<591.945 676>
AnchorPoint: "Anchor-2" 308 -34 basechar 0
AnchorPoint: "Anchor-3" 308 28 basechar 0
AnchorPoint: "Anchor-0" 338 709 basechar 0
LayerCount: 2
Fore
SplineSet
32 676 m 1
 113 678 240 682 240 682 c 1
 236 158 l 1
 434 166 l 1
 428 670 l 1
 626 666 l 1
 626 666 627.109375 638.998046875 628.375 590.084960938 c 1
 660 588 l 1
 666 676 l 1
 793 679 l 1
 782.308604002 522.376395825 694.338867188 481.091796875 610.6640625 476.0234375 c 1
 611.44140625 423.533203125 612 361.5859375 612 292 c 0
 612 113 550 -30 308 -30 c 0
 66 -30 20 142 20 278 c 0
 20 414 32 676 32 676 c 1
EndSplineSet
Validated: 1
EndChar

StartChar: uhorn
Encoding: 432 432 542
Width: 663
Flags: W
HStem: 0 21G<351.213 489> 251.26 113.317<505.795 552.738> 439 20G<26 194.708 329.308 505 550.816 703>
VStem: 20 170<118.986 455.908> 334 152.791<134 252.854> 554 149<369 459>
AnchorPoint: "Anchor-2" 258 -34 basechar 0
AnchorPoint: "Anchor-3" 408 28 basechar 0
AnchorPoint: "Anchor-0" 268 499 basechar 0
LayerCount: 2
Fore
SplineSet
26 456 m 1
 195 459 l 1
 190 117 l 1
 334 134 l 1
 329 459 l 1
 505 455 l 1
 505.794921875 364.577148438 l 1
 554 369 l 1
 550 467 l 1
 703 459 l 1
 697.788541554 305.261975846 611.853515625 260.916015625 486.791015625 251.259765625 c 1
 489 0 l 1
 361 0 l 1
 338 47 l 1
 338 47 267 -35 173 -35 c 0
 79 -35 20 16 20 173 c 0
 20 330 26 456 26 456 c 1
EndSplineSet
Validated: 1
EndChar

StartChar: uni00AD
Encoding: 173 173 630
Width: 291
Flags: W
HStem: 190 130<26 265>
VStem: 20 251<190 320>
LayerCount: 2
Fore
SplineSet
26 320 m 5
 265 325 l 29
 271 185 l 29
 20 190 l 29
 26 320 l 5
EndSplineSet
Validated: 1
EndChar

StartChar: logicalnot
Encoding: 172 172 631
Width: 421
Flags: W
HStem: 203 117<28 226.481> 211.641 96.3594<180.167 273>
LayerCount: 2
Fore
SplineSet
26 320 m 1x80
 396 308 l 25
 401 115 l 1
 267 118 l 1
 273 211.640625 l 5x40
 28 203 l 9
 26 320 l 1x80
EndSplineSet
Validated: 1
EndChar

StartChar: plusminus
Encoding: 177 177 632
Width: 425
Flags: W
HStem: 96 120<33 165.858> 286.409 119.304<275.651 395.801> 287.958 130.149<30 159.446>
VStem: 159.446 116.205<416.559 512.776> 170.15 100.854<214.256 286.409>
LayerCount: 2
Fore
SplineSet
153.249023438 551.806640625 m 1xb0
 284.948242188 547.90625 l 1
 275.651367188 405.712890625 l 1xd0
 395.80078125 410.361328125 l 1
 409.603515625 281.760742188 l 1
 271.00390625 286.409179688 l 1
 274.782226562 214.255859375 l 1
 400 221 l 1
 406 101 l 1
 33 96 l 1
 33 216 l 1
 165.858398438 212.459960938 l 5
 170.150390625 286.409179688 l 5xc8
 30 287.958007812 l 1
 20.845703125 418.107421875 l 1
 159.446289062 416.55859375 l 1
 153.249023438 551.806640625 l 1xb0
EndSplineSet
Validated: 1
EndChar

StartChar: uni2015
Encoding: 8213 8213 633
Width: 600
Flags: W
HStem: 187 107<22 577>
LayerCount: 2
Fore
SplineSet
20 296 m 1
 580 294 l 25
 577 187 l 25
 22 193 l 25
 20 296 l 1
EndSplineSet
Validated: 1
EndChar

StartChar: uni2010
Encoding: 8208 8208 634
Width: 291
Flags: W
HStem: 190 130<26 265>
VStem: 20 251<190 320>
LayerCount: 2
Fore
SplineSet
26 320 m 5
 265 325 l 29
 271 185 l 29
 20 190 l 29
 26 320 l 5
EndSplineSet
Validated: 1
EndChar

StartChar: uni2011
Encoding: 8209 8209 635
Width: 291
Flags: W
HStem: 190 130<26 265>
VStem: 20 251<190 320>
LayerCount: 2
Fore
SplineSet
26 320 m 5
 265 325 l 29
 271 185 l 29
 20 190 l 29
 26 320 l 5
EndSplineSet
Validated: 1
EndChar

StartChar: figuredash
Encoding: 8210 8210 636
Width: 520
Flags: W
HStem: 183 117<20 489>
LayerCount: 2
Fore
SplineSet
20 300 m 1
 489 301 l 29
 497 187 l 1
 12 183 l 25
 20 300 l 1
EndSplineSet
Validated: 1
EndChar

StartChar: endash
Encoding: 8211 8211 637
Width: 520
Flags: W
HStem: 187 107<22 577>
LayerCount: 2
Fore
SplineSet
20 300 m 1
 489 301 l 29
 497 187 l 1
 12 183 l 25
 20 300 l 1
EndSplineSet
Validated: 1
EndChar

StartChar: ellipsis
Encoding: 8230 8230 638
Width: 828
HStem: 0 226<71.9028 211.474 346.491 484.734 618.729 762.538>
VStem: 20 236<51.0358 178.495> 299 233<48.39 178.205> 572 236<44.2871 177.778>
LayerCount: 2
Fore
SplineSet
140 226 m 0
 214 226 256 175 256 115 c 8
 256 55 219 0 143 0 c 8
 67 0 20 58 20 114 c 0
 20 170 66 226 140 226 c 0
421 226 m 0
 487 226 532 178 532 118 c 8
 532 58 490 0 414 0 c 8
 338 0 299 54 299 110 c 0
 299 166 339 226 421 226 c 0
686 226 m 0
 762 226 808 180 808 120 c 8
 808 60 775 0 699 0 c 8
 623 0 572 43 572 104 c 0
 572 170 615 226 686 226 c 0
EndSplineSet
Validated: 1
EndChar

StartChar: paragraph
Encoding: 182 182 639
Width: 706
Flags: W
HStem: -12 21G<249.741 412.6 449 619.401>
VStem: 20 392.6<329.284 542.344> 257 155.6<17 206> 449 171<-5 221.583> 459.899 143.361<312.989 546.572>
LayerCount: 2
Fore
SplineSet
686 694 m 1xc0
 678 544 l 1
 603.260742188 546.572265625 l 1xc8
 620 -12 l 1
 449 -5 l 5x90
 459.899414062 577.748046875 l 5
 412.599609375 578 l 5
 412.599609375 -5 l 5
 249 -10 l 1
 257 206 l 1xa8
 257 206 20 200 20 440 c 0
 20 650 232 704 413 704 c 0
 517 704 686 694 686 694 c 1xc0
EndSplineSet
EndChar

StartChar: periodcentered
Encoding: 183 183 640
Width: 276
Flags: W
HStem: 260 226<73.134 211.273>
VStem: 20 236<313.02 438.271>
LayerCount: 2
Fore
SplineSet
143 486 m 0
 217 486 256 431 256 371 c 12
 256 311 219 260 143 260 c 8
 67 260 20 321 20 377 c 0
 20 433 69 486 143 486 c 0
EndSplineSet
Validated: 1
EndChar

StartChar: bullet
Encoding: 8226 8226 641
Width: 360
VWidth: 1250
Flags: W
HStem: 212.8 318.4<99.3917 267.774>
VStem: 15 330.4<293.953 449.064>
LayerCount: 2
Fore
SplineSet
180 531.200195312 m 0
 283.600585938 531.200195312 345.400390625 459.799804688 345.400390625 375.799804688 c 8
 345.400390625 291.799804688 290.600585938 212.799804688 184.200195312 212.799804688 c 8
 77.7998046875 212.799804688 15 293 15 371.400390625 c 0
 15 449.799804688 76.400390625 531.200195312 180 531.200195312 c 0
EndSplineSet
Validated: 1
EndChar

StartChar: florin
Encoding: 402 402 642
Width: 453
Flags: W
HStem: 316 139<305.444 433> 614 114<255.236 332.908>
VStem: 101 153<535.6 612.064> 124 170<-89.0226 134.615> 337 148<506 613.676>
AnchorPoint: "Anchor-0" 314 757 basechar 0
LayerCount: 2
Fore
SplineSet
294 -59 m 0xd8
 294 84 285 314 285 314 c 9
 433 316 l 25
 433 455 l 1
 269 446 l 1
 254 614 l 1
 337 614 l 1
 342 506 l 1
 480 497 l 1
 480 497 485 535 485 563 c 0
 485 591 482 728 318 728 c 0
 154 728 101 634 101 556 c 8xe8
 101 478 107 445 107 445 c 25
 20 446 l 9
 20 326 l 25
 111 328 l 1
 124 -91 l 1
 -10 -103 l 1
 -6 -230 l 1
 -6 -230 38.091796875 -255 129 -255 c 0
 261 -255 294 -168 294 -59 c 0xd8
EndSplineSet
Validated: 9
EndChar

StartChar: quotesinglbase
Encoding: 8218 8218 643
Width: 267
Flags: W
HStem: -4 221<70.4237 138.989>
VStem: 141 106<-45.582 2>
LayerCount: 2
Fore
SplineSet
20 90 m 0
 20 178 87 217 133 217 c 0
 179 217 247 194 247 68 c 0
 247 -168 48 -140 48 -140 c 1
 43 -48 l 25
 141 -50 l 1
 139 2 l 1
 139 2 124.3046875 -4 99 -4 c 0
 47 -4 20 21.2841796875 20 90 c 0
EndSplineSet
Validated: 33
EndChar

StartChar: quotedblbase
Encoding: 8222 8222 644
Width: 513
Flags: W
HStem: -4 221<70.4237 138.989 304.065 389.999>
VStem: 20 227<17.3822 164.674>
LayerCount: 2
Fore
SplineSet
266 101 m 0
 266 189 323 217 369 217 c 0
 415 217 493 194 493 68 c 0
 493 -168 294 -140 294 -140 c 1
 289 -48 l 1
 390 -40 l 1
 392 0 l 1
 392 0 380.3046875 -4 355 -4 c 0
 303 -4 266 32.2841796875 266 101 c 0
20 90 m 0
 20 178 87 217 133 217 c 0
 179 217 247 194 247 68 c 0
 247 -168 48 -140 48 -140 c 1
 36 -51 l 1
 142 -54 l 5
 139 2 l 1
 139 2 124.3046875 -4 99 -4 c 0
 47 -4 20 21.2841796875 20 90 c 0
EndSplineSet
Validated: 33
EndChar

StartChar: trademark
Encoding: 8482 8482 645
Width: 593
Flags: W
HStem: 416.5 277.2 664.5 20G<377.6 385.8>
LayerCount: 2
Fore
SplineSet
22.7998046875 693.700195312 m 29x80
 111.599609375 692.5 250.399414062 690.5 250.399414062 690.5 c 29
 249.200195312 666.5 247.200195312 628.900390625 247.200195312 628.900390625 c 29
 221.599609375 628.5 177.599609375 628.099609375 177.599609375 628.099609375 c 29
 179.599609375 545.700195312 182.399414062 416.5 182.399414062 416.5 c 29
 146.399414062 415.299804688 98.3994140625 413.299804688 98.3994140625 413.299804688 c 29
 100 492.099609375 102.399414062 615.299804688 102.399414062 615.299804688 c 29
 72 612.900390625 20 608.900390625 20 608.900390625 c 29
 21.2001953125 642.099609375 22.7998046875 693.700195312 22.7998046875 693.700195312 c 29x80
277.599609375 683.299804688 m 29
 316.799804688 683.700195312 377.599609375 684.5 377.599609375 684.5 c 29
 394 620.099609375 420 518.900390625 420 518.900390625 c 29
 436.799804688 584.5 463.200195312 686.900390625 463.200195312 686.900390625 c 29
 502 686.099609375 562.399414062 684.5 562.399414062 684.5 c 29x40
 566.799804688 579.700195312 573.599609375 416.099609375 573.599609375 416.099609375 c 29
 544 416.099609375 497.200195312 416.099609375 497.200195312 416.099609375 c 29
 496.399414062 484.099609375 495.200195312 590.5 495.200195312 590.5 c 29
 476.799804688 522.5 447.599609375 416.099609375 447.599609375 416.099609375 c 29
 420.799804688 416.099609375 379.200195312 416.099609375 379.200195312 416.099609375 c 29
 360.799804688 479.299804688 332.399414062 578.5 332.399414062 578.5 c 29
 332.399414062 515.299804688 332.799804688 416.099609375 332.799804688 416.099609375 c 29
 305.599609375 416.099609375 263.200195312 416.099609375 263.200195312 416.099609375 c 29
 268.799804688 520.5 277.599609375 683.299804688 277.599609375 683.299804688 c 29
EndSplineSet
Validated: 1
EndChar

StartChar: T_H
Encoding: 65561 -1 646
Width: 1077
Flags: W
HStem: 0 21G<489.643 658 844 1057> 232 168<671 823.75> 240 170<739.4 848> 492 21G<28.9561 227.302> 550 136<425.157 670.886> 674 20G<17.71 19.855>
VStem: 481 190<400 504> 490 168<0 232> 844 213<0 240> 899 151<410 684>
AnchorPoint: "Anchor-0" 316 709 basechar 0
AnchorPoint: "Anchor-2" 318 -34 basechar 0
LayerCount: 2
Fore
SplineSet
481 504 m 1xd2
 673 507 l 1
 671 400 l 1xd2
 899 410 l 1
 895 684 l 1
 1050 686 l 1xba40
 1057 0 l 25
 844 0 l 1
 848 240 l 1xb880
 654 232 l 1
 658 0 l 1
 490 0 l 25xd180
 481 504 l 1xd2
17.7099609375 694 m 25x96
 17.7099609375 694 421 689 679 686 c 25
 679 686 674 596 671 552 c 25
 671 552 514 551 414 550 c 25x9a
 414 550 421 223 426 1 c 25
 426 1 290 -4 203.073242188 -7 c 25
 203.073242188 -7 218 301 227.301757812 498 c 25
 28.9560546875 492 l 9
 28.9560546875 492 22 611 17.7099609375 694 c 25x96
EndSplineSet
Validated: 1
LCarets2: 1 0
Ligature2: "'dlig' Discretionary Ligatures in Latin lookup 0-1" T.ss01 H.ss01
Ligature2: "'dlig' Discretionary Ligatures in Latin lookup 0-1" T.ss01 H
Ligature2: "'dlig' Discretionary Ligatures in Latin lookup 0-1" T H.ss01
Ligature2: "'dlig' Discretionary Ligatures in Latin lookup 0-1" T H
EndChar

StartChar: T_h
Encoding: 65562 -1 647
Width: 1005
Flags: W
HStem: -16 21G<788.719 945.5> -3 21G<216.333 416 531 684.689 788.719 945.5> 458 20G<806 897> 472 222<31 217.468>
VStem: 216 200<1 417.875> 224 200<65.875 478> 531 154<6 322> 531.768 173.232<426 520.801> 800 185<123.167 316.027>
AnchorPoint: "Anchor-2" 318 -34 basechar 0
AnchorPoint: "Anchor-0" 316 709 basechar 0
LayerCount: 2
Fore
SplineSet
531.767578125 520.80078125 m 1xa180
 424 520 l 1xa580
 416 1 l 1
 216 -3 l 1x4880
 224 478 l 1x6480
 30 472 l 1
 31 694 l 1
 253 691 714 673 714 673 c 1
 705 426 l 1x1580
 705 426 768 478 844 478 c 0
 950 478 985 398 985 312 c 0
 985 226 977 8 977 8 c 1
 788 -16 l 1
 800 318 l 1
 680 322 l 1
 685 0 l 1
 531 6 l 1xa280
 531.767578125 520.80078125 l 1xa180
EndSplineSet
Validated: 1
LCarets2: 1 0
Ligature2: "'dlig' Discretionary Ligatures in Latin lookup 0-1" T.ss01 h.ss01
Ligature2: "'dlig' Discretionary Ligatures in Latin lookup 0-1" T h.ss01
Ligature2: "'dlig' Discretionary Ligatures in Latin lookup 0-1" T.ss01 h
Ligature2: "'dlig' Discretionary Ligatures in Latin lookup 0-1" T h
EndChar

StartChar: uni0259
Encoding: 601 601 648
Width: 545
Flags: W
HStem: -26 123<220.082 346.015> 165 91<213 341> 346 130<196.061 351.866>
AnchorPoint: "Anchor-2" 294 -54 basechar 0
AnchorPoint: "Anchor-0" 274 499 basechar 0
LayerCount: 2
Fore
SplineSet
530 228 m 0
 530 104 463 -26 273 -26 c 0
 71 -26 20 124 15 242 c 1
 360 256 l 1
 353 346 l 1
 188 346 l 1
 189 286 l 1
 17 288 l 25
 17 288 41 476 274 476 c 0
 457 476 530 352 530 228 c 0
347 101 m 1
 341 171 l 9
 213 165 l 1
 216 97 l 9
 347 101 l 1
EndSplineSet
Validated: 1
EndChar

StartChar: uni018F
Encoding: 399 399 649
Width: 699
Flags: W
HStem: -21 151<249.486 424.975> 261 135<286.435 444.556> 548 167<281.267 438.037>
VStem: 444.556 240.07<396 472.604>
AnchorPoint: "Anchor-0" 347.642 739 basechar 0
AnchorPoint: "Anchor-2" 356.642 -54 basechar 0
LayerCount: 2
Fore
SplineSet
247.641601562 130 m 1
 475.641601562 139 l 1
 466.015625 266.875 l 1
 252.641601562 261 l 1
 247.641601562 130 l 1
444.555664062 396 m 1
 438.037109375 548 l 1
 236.475585938 539 l 1
 216.614257812 429 l 1
 17.6142578125 429 l 1
 17.6142578125 429 49.4541015625 715 358.454101562 715 c 0
 589.454101562 715 684.625976562 503.01171875 684.625976562 333 c 0
 684.625976562 170 599.543945312 -21 355.543945312 -21 c 0
 -8.4560546875 -21 15.37109375 377 15.37109375 377 c 1
 444.555664062 396 l 1
EndSplineSet
Validated: 33
EndChar

StartChar: estimated
Encoding: 8494 8494 650
Width: 698
Flags: W
HStem: -21 152<280.385 374> 293.835 113.29<268.372 394.873> 544 171<281.444 439.741>
AnchorPoint: "Anchor-0" 372 739 basechar 0
AnchorPoint: "Anchor-2" 368 -54 basechar 0
LayerCount: 2
Fore
SplineSet
451 544 m 1
 233 535 l 1
 235.625976562 407.125 l 1
 448.5546875 416.1484375 l 1
 451 544 l 1
268.372070312 293.834960938 m 1
 272 131 l 1
 476 145 l 1
 489 255 l 1
 688 255 l 1
 688 255 685 -21 376 -21 c 0
 97 -21 15 173 15 331 c 0
 15 509 128 715 352 715 c 0
 696 715 687 317 687 317 c 1
 268.372070312 293.834960938 l 1
EndSplineSet
Validated: 33
EndChar

StartChar: t.ss02
Encoding: 65563 -1 651
Width: 348
Flags: W
HStem: 317 135<6 77> 332 127<241 327>
VStem: 65 164<118.185 283.778>
AnchorPoint: "Anchor-0" 184 604 basechar 0
AnchorPoint: "Anchor-1" 308 556 basechar 0
AnchorPoint: "Anchor-2" 232 -38 basechar 0
LayerCount: 2
Fore
SplineSet
136 579 m 1xa0
 246 565 l 1
 241 459 l 1
 327 465 l 1
 328 329 l 1
 220 332 l 1x60
 229 115 l 1
 322 120 l 1
 326 -6 l 1
 326 -6 293 -22 211 -22 c 0
 99 -22 65 18 65 134 c 0
 65 212 77 317 77 317 c 5
 2 317 l 5
 6 452 l 5
 98 458 l 5
 136 579 l 1xa0
EndSplineSet
Validated: 1
EndChar

StartChar: uni2047
Encoding: 8263 8263 652
Width: 1094
HStem: 0 200<158.475 307.056 703.124 850.569> 232 200<724 856> 232 184<164 304 312 312> 487 26G<10 191.626 565 724> 594 134<192.812 348.146 737 882>
VStem: 114 235<43.8911 160.661> 347 185<423.676 586.577> 661 235<42.579 158.981> 900 179<429.028 489.722>
LayerCount: 2
Fore
SplineSet
787 201 m 0x9980
 856 201 896 159 896 105 c 0
 896 51 854 0 776 0 c 8
 698 0 661 38 661 98 c 0
 661 158 708 201 787 201 c 0x9980
557 492 m 1
 573 689 723 728 839 728 c 0
 955 728 1079 653 1079 477 c 0
 1079 336.704101562 977.883789062 298 912.55078125 298 c 0
 865.55078125 298 848.125976562 312 848.125976562 312 c 1
 856 231 l 1
 711 232 l 1xb980
 724 432 l 1xd980
 900 424 l 1
 882 593 l 1
 737 594 l 1
 737 594 729 536 724 499 c 25
 557 492 l 1
230 200 m 0
 299 200 349 159 349 105 c 0
 349 51 314 0 236 0 c 8
 158 0 114 48 114 108 c 0x9d80
 114 168 161 200 230 200 c 0
10 492 m 17
 26 689 166 728 282 728 c 0
 398 728 532 683 532 507 c 0
 532 346.704101562 415.333007812 308 350 308 c 0
 323 308 304 312 304 312 c 1
 312 238 l 1
 164 232 l 1
 148 416 l 1
 347 420 l 25xbb80
 351 592 l 25
 190 594 l 25
 192 487 l 25
 10 492 l 17
EndSplineSet
Validated: 1
Ligature2: "'liga' Standard Ligatures in Latin lookup 0-1" question question
EndChar

StartChar: uni2048
Encoding: 8264 8264 653
Width: 802
HStem: -13 207<606.767 738.007> 0 200<158.475 307.056> 232 184<164 304> 487 21G<10 191.626> 592 136<192.812 348.146>
VStem: 114 235<43.8911 160.661> 347 185<423.676 586.577> 566 216<25.5025 150.987> 602 151.584<315.258 673.856>
LayerCount: 2
Fore
SplineSet
662 194 m 0xb9
 744.873046875 194 782 137.081054688 782 96 c 0
 782 42.8349609375 758.665039062 -13 685 -13 c 0
 611.334960938 -13 566 28.8369140625 566 82 c 0
 566 159.331054688 605.434570312 194 662 194 c 0xb9
572 712 m 1
 744.583984375 700 l 1
 744.583984375 700 753.583984375 622 753.583984375 501 c 0
 753.583984375 379.760742188 713.698242188 239.719726562 713.698242188 239.719726562 c 1
 585.583984375 251 l 1
 585.583984375 251 602 320.73828125 602 468 c 0x3880
 602 591 572 712 572 712 c 1
230 200 m 0x7c
 299 200 349 159 349 105 c 0
 349 51 314 0 236 0 c 8
 158 0 114 48 114 108 c 0
 114 168 161 200 230 200 c 0x7c
10 492 m 17
 26 689 166 728 282 728 c 0
 398 728 532 683 532 507 c 0
 532 346.704101562 415.333007812 308 350 308 c 0
 323 308 304 312 304 312 c 1
 312 238 l 1
 164 232 l 1
 148 416 l 1
 347 420 l 25x3a
 351 592 l 25
 190 594 l 25
 192 487 l 25
 10 492 l 17
EndSplineSet
Validated: 1
Ligature2: "'liga' Standard Ligatures in Latin lookup 0-1" question exclam
EndChar

StartChar: uni2049
Encoding: 8265 8265 654
Width: 802
HStem: -8.22363 197.489<56.4437 197.568> 0 201<413.336 558.569> 232 200<432 564> 492 21G<273 432> 594 134<445 590>
VStem: 20 215.466<28.5196 151.696> 63.5303 163.054<320.931 666.899> 369 235<42.579 158.981> 608 179<429.028 489.722>
LayerCount: 2
Fore
SplineSet
127.075195312 189.265625 m 0xbd80
 209.948242188 189.265625 235.465820312 128.977539062 235.465820312 87.896484375 c 0
 235.465820312 34.7314453125 203.37109375 -8.2236328125 129.706054688 -8.2236328125 c 0
 56.041015625 -8.2236328125 20 37.1484375 20 90.3115234375 c 0
 20 167.642578125 70.509765625 189.265625 127.075195312 189.265625 c 0xbd80
34.01953125 700 m 1
 207.583984375 711 l 1
 207.583984375 711 226.583984375 622 226.583984375 501 c 0
 226.583984375 379.760742188 186.698242188 249.719726562 186.698242188 249.719726562 c 1
 48.583984375 230 l 1
 48.583984375 230 63.5302734375 323.73828125 63.5302734375 471 c 0x3b80
 63.5302734375 594 34.01953125 700 34.01953125 700 c 1
495 201 m 4x7980
 564 201 604 159 604 105 c 4
 604 51 562 0 484 0 c 12
 406 0 369 38 369 98 c 4
 369 158 416 201 495 201 c 4x7980
265 492 m 5
 281 689 431 728 547 728 c 4
 663 728 787 653 787 477 c 4
 787 336.704101562 685.883789062 298 620.55078125 298 c 4
 573.55078125 298 556.125976562 312 556.125976562 312 c 5
 564 231 l 5
 419 232 l 5
 432 432 l 5
 608 424 l 5
 590 593 l 5
 445 594 l 5
 445 594 437 536 432 499 c 29
 265 492 l 5
EndSplineSet
Validated: 1
Ligature2: "'liga' Standard Ligatures in Latin lookup 0-1" exclam question
EndChar

StartChar: lira
Encoding: 8356 8356 655
Width: 600
Flags: W
HStem: 0 168<243 570> 265.105 45.7608<30 89.5898 259.167 399> 362 54<32 88> 599 136<279.111 365.467>
VStem: 81 173<466.8 588.194>
LayerCount: 2
Fore
SplineSet
89.58984375 265.10546875 m 1
 30 264 l 1
 26 310 l 1
 91.3179103643 310.866285283 l 1
 91.8068329804 343.723318775 90 364 90 364 c 1
 27 362 l 1
 32 416 l 1
 88 418 l 1
 88 418 81 476 81 542 c 0
 81 608 128 735 318 735 c 0
 589 735 568 475 568 475 c 1
 382 483 l 1
 367 599 l 1
 254 590 l 1
 264 414 l 1
 400 418 l 1
 400 418 402 368 402 366 c 0
 402 364 265 364 265 364 c 1
 259.166837314 313.092398373 l 1
 403 315 l 1
 399 265 l 1
 253.8847028 266.993769887 l 1
 243 168 l 1
 570 163 l 1
 576 0 l 1
 15 0 l 1
 67.5106952823 91.4702433951 84.6337890625 191.692382812 89.58984375 265.10546875 c 1
EndSplineSet
Validated: 33
EndChar

StartChar: franc
Encoding: 8355 8355 656
Width: 536
Flags: W
HStem: 150 40<-20 20.0967 197.359 281> 293 135<227 466.919> 681 20G<509.456 510>
VStem: 20.1416 176.75<0 146.303 193.661 293>
AnchorPoint: "Anchor-0" 284 709 basechar 0
LayerCount: 2
Fore
SplineSet
21 695 m 1
 231 697 510 701 510 701 c 1
 506 554 l 1
 359 556 228 558 228 558 c 1
 228 499 227 428 227 428 c 1
 356 428 467 427 467 427 c 1
 467 364 467 295 467 295 c 1
 196 293 l 5
 196.25 268.231445312 196.5625 226.829101562 196.891601562 193.661132812 c 5
 285 195 l 5
 281 145 l 5
 197.359375 146.302734375 l 5
 198.200195312 60.9873046875 199 -1 199 -1 c 5
 110 -1 20 0 20 0 c 1
 20 52.1616586447 20.037109375 89.9912109375 20.0966796875 149.375 c 1
 -20 150 l 1
 -24 190 l 1
 20.1416015625 190.670898438 l 1
 20.41796875 428.083984375 21 695 21 695 c 1
EndSplineSet
Validated: 1
EndChar

StartChar: peseta
Encoding: 8359 8359 657
Width: 737
Flags: W
HStem: -22 125<601 650.298> 0 21G<20 238> 334 133<611 707> 551 163<169 298.028>
VStem: 20 218<0 189> 20 210<27 216> 20 145<366 550.912> 436 52<346 453> 460 141<103.349 332.289> 651 78<102.137 189>
AnchorPoint: "Anchor-2" 297 -18 basechar 0
AnchorPoint: "Anchor-0" 310 742 basechar 0
LayerCount: 2
Fore
SplineSet
549 603 m 17xb140
 612 606 l 25
 611 467 l 25
 707 467 l 25
 708 331 l 25
 603 334 l 25
 601 103 l 25
 651 100 l 25
 653 189 l 1
 714 190 l 1
 714 190 729 152 729 106 c 0
 729 23 693 -22 601 -22 c 0
 489 -22 460 47 460 125 c 16xb0c0
 460 203 477 346 477 346 c 25
 436 346 l 25
 436 453 l 25
 498 454 l 25
 549 603 l 17xb140
169 551 m 25
 169 551 167 430 165 366 c 25x3240
 165 366 223 365 311 365 c 29
 311 365 305 487 301 553 c 29
 301 553 252 552 169 551 c 25
20 708 m 17
 20 708 120 714 224 714 c 0
 328 714 488 670 488 460 c 0
 488 170 230 216 230 216 c 25x7540
 238 0 l 0
 20 0 l 25x7840
 20 708 l 17
EndSplineSet
Validated: 37
EndChar

StartChar: c.ss01
Encoding: 65564 -1 658
Width: 543
Flags: W
HStem: -20 136<208.42 329> 349 140<241.2 336.561>
VStem: 15 183<165.556 337.394>
AnchorPoint: "Anchor-2" 265 -54 basechar 0
AnchorPoint: "Anchor-0" 291 529 basechar 0
LayerCount: 2
Fore
SplineSet
198 339 m 9
 207 116 l 1
 329 114 l 9
 331 207 l 9
 523 207 l 9
 523 207 521 -20 263 -20 c 0
 85 -20 15 112 15 234 c 0
 15 346 83 489 291 489 c 8
 499 489 529 274 529 274 c 25
 349 268 l 25
 342 349 l 1
 198 339 l 9
EndSplineSet
EndChar

StartChar: longs
Encoding: 383 383 659
Width: 372
Flags: W
HStem: 0 21G<28 215> 506 222<241 331.812>
VStem: 20 152<509.86 608.56> 236 165<507.028 612.032>
AnchorPoint: "Anchor-0" 233 757 basechar 0
LayerCount: 2
Fore
SplineSet
28 0 m 1
 28 0 20 428 20 506 c 0
 20 632 73 728 237 728 c 0
 401 728 401 601 401 573 c 16
 401 545 391 507 391 507 c 1
 241 506 l 29
 236 614 l 29
 172 609 l 5
 215 0 l 5
 28 0 l 1
EndSplineSet
Validated: 1
EndChar

StartChar: uni0256
Encoding: 598 598 660
Width: 553
Flags: W
HStem: -211 125<521.276 617> -23 162<187.375 313.935> 326 153<184 324>
VStem: 15 168<141.74 326> 355 166<-80 20.9564> 394.876 138.124<436 662>
AnchorPoint: "Anchor-0" 454 727 basechar 0
AnchorPoint: "Anchor-2" 245 -32 basechar 0
AnchorPoint: "Anchor-4" 547 546 basechar 0
LayerCount: 2
Fore
SplineSet
184 326 m 13xf0
 183 139 l 13
 332 134 l 13
 324 330 l 13
 184 326 l 13xf0
390.760742188 662 m 1
 533 668 l 9xf4
 521 -80 l 1
 617 -86 l 1
 619 -211 l 0
 549 -225 355 -256 355 -90 c 0xf8
 355 -38.8857421875 359 21 359 21 c 1
 359 21 297 -23 205 -23 c 0
 111 -23 15 51 15 221 c 0
 15 441 169 479 240 479 c 0
 321 479 394.875976562 436 394.875976562 436 c 1xf4
 390.760742188 662 l 1
EndSplineSet
Validated: 33
EndChar

StartChar: uni0191
Encoding: 401 401 661
Width: 586
Flags: W
HStem: -213 140<-84 27> 553.915 147.085<223.351 560>
VStem: 27 187.007<-71.333 242.895>
AnchorPoint: "Anchor-0" 284 709 basechar 0
LayerCount: 2
Fore
SplineSet
21 695 m 1
 21 695 350 699 560 701 c 1
 560 701 561 604 561.373046875 554.4375 c 1
 561.373046875 554.4375 363 554 223.350585938 553.915039062 c 1
 223.350585938 553.915039062 229 466 232.788085938 403.09375 c 1
 232.788085938 403.09375 402 413 522.322265625 420.123046875 c 1
 522.322265625 420.123046875 520 307 519.280273438 235 c 1
 519.280273438 235 312 240 207.177734375 243 c 1
 207.177734375 243 214 98 214 -1 c 0
 214.00390625 -6.1904296875 214.006835938 -11.314453125 214.006835938 -16.3642578125 c 0
 214.006835938 -178.391601562 106 -213 50 -213 c 0
 -16 -213 -89 -196 -89 -196 c 5
 -84 -69 l 5
 27 -73 l 1
 21 695 l 1
EndSplineSet
Validated: 1
EndChar

StartChar: uni0194
Encoding: 404 404 662
Width: 596
Flags: W
HStem: -167.47 105.989<272.675 343.197>
VStem: 345.85 119.65<-57.7503 27.6797>
LayerCount: 2
Fore
SplineSet
284.799804688 32.3203125 m 9
 270 -61.48046875 l 25
 345.849609375 -59.740234375 l 25
 340.299804688 27.6796875 l 25
 284.799804688 32.3203125 l 9
-9.244140625 698.22265625 m 1
 -9.244140625 698.22265625 117 684 199.451171875 677.38671875 c 1
 199 666 332 273 332 273 c 1
 448 683 l 1
 448 683 550 683 616 683 c 1
 399.188476562 119.92578125 l 1
 399.188476562 119.92578125 465.5 40.0205078125 465.5 -34.41015625 c 0
 465.5 -95.7900390625 416.259765625 -167.469726562 316.459960938 -167.469726562 c 0
 216.66015625 -167.469726562 156.719726562 -109.76953125 156.719726562 -34.5302734375 c 0
 156.719726562 32.884765625 222.698242188 118.744140625 222.698242188 118.744140625 c 1
 193.737304688 198.981445312 -9.244140625 698.22265625 -9.244140625 698.22265625 c 1
EndSplineSet
Validated: 33
EndChar

StartChar: uni0263
Encoding: 611 611 663
Width: 470
Flags: W
HStem: -188.589 102.528<218.369 261.167> 464 20G<144.5 182>
VStem: 96.541 120.077<-83.7416 -14.6695> 261.167 125.688<-84.0632 -29.5197> 270.078 116.776<-70.6238 -15.1415>
LayerCount: 2
Fore
SplineSet
210.678710938 -12.9921875 m 1xe8
 216.618164062 -86.060546875 l 25
 261.166992188 -86.060546875 l 25xf0
 270.078125 -14.0830078125 l 25
 210.678710938 -12.9921875 l 1xe8
-10 476 m 17
 -10 476 107 481 182 484 c 25
 182 484 227 283 255 154 c 25
 255 154 300 344 328 466 c 25
 328 466 421 467 480 467 c 25
 480 467 396 227 342.134765625 67.7685546875 c 17
 342.134765625 67.7685546875 386.854492188 -2.259765625 386.854492188 -65.583984375 c 0
 386.854492188 -147.639648438 315.877929688 -188.588867188 240.82421875 -188.588867188 c 0
 159.05078125 -188.588867188 96.541015625 -146.236328125 96.541015625 -65.5302734375 c 0
 96.541015625 -7.8095703125 143.34765625 67.7685546875 143.34765625 67.7685546875 c 9
 143.34765625 67.7685546875 50 313 -10 476 c 17
EndSplineSet
Validated: 1
EndChar

StartChar: uni0186
Encoding: 390 390 664
Width: 698
Flags: W
HStem: -21 166<262.871 349.462> 534 181<242 443.256>
VStem: 446 237<331.077 490.052>
AnchorPoint: "Anchor-0" 346 739 basechar 0
AnchorPoint: "Anchor-2" 330 -54 basechar 0
LayerCount: 2
Fore
SplineSet
242 534 m 1
 232 412 l 9
 11 420 l 1
 11 420 32 715 346 715 c 0
 600 715 683 509 683 351 c 8
 683 193 611 -21 332 -21 c 0
 13 -21 10 265 10 265 c 0
 247 265 l 5
 252 145 l 1
 433 158 l 1
 446 533 l 1
 446 533 322 534 242 534 c 1
EndSplineSet
Validated: 1
EndChar

StartChar: uni0254
Encoding: 596 596 665
Width: 543
Flags: W
HStem: -20 150<187.134 294.2> 350 149<196 329.449>
VStem: 341 187<142.003 273.636>
AnchorPoint: "Anchor-2" 258 -54 basechar 0
AnchorPoint: "Anchor-0" 272 529 basechar 0
LayerCount: 2
Fore
SplineSet
330 350 m 1
 196 353 l 1
 188 280 l 25
 14 278 l 25
 14 278 44 499 272 499 c 0
 460 499 528 336 528 244 c 16
 528 152 478 -20 260 -20 c 0
 12 -20 10 197 10 197 c 1
 195 209 l 1
 185 130 l 1
 341 140 l 1
 330 350 l 1
EndSplineSet
Validated: 1
EndChar

StartChar: uni01B2
Encoding: 434 434 666
Width: 672
Flags: W
HStem: -30 188<245.099 446.114> 485 176<327 443>
VStem: 20 216<161.901 639.998> 454 198<158.985 365.364>
AnchorPoint: "Anchor-2" 318 -34 basechar 0
AnchorPoint: "Anchor-3" 318 28 basechar 0
AnchorPoint: "Anchor-0" 338 709 basechar 0
LayerCount: 2
Fore
SplineSet
32 676 m 17
 240 662 l 25
 236 158 l 25
 454 156 l 17
 443 485 l 1
 327 479 l 5
 318 646 l 1
 318 646 361.1796875 661 436 661 c 0
 625.40234375 661 652 490 652 292 c 0
 652 113 580 -30 318 -30 c 0
 76 -30 20 122 20 258 c 16
 20 394 32 676 32 676 c 17
EndSplineSet
Validated: 1
EndChar

StartChar: uni028B
Encoding: 651 651 667
Width: 539
Flags: W
HStem: -35 152<204.954 339.484> 313 150<268.5 349>
VStem: 20 180<118.986 455.908> 344 175<125.848 310.798>
AnchorPoint: "Anchor-2" 258 -34 basechar 0
AnchorPoint: "Anchor-3" 408 28 basechar 0
AnchorPoint: "Anchor-0" 268 499 basechar 0
LayerCount: 2
Fore
SplineSet
26 456 m 17
 195 459 l 25
 200 117 l 25
 344 124 l 1
 349 313 l 1
 257 321 l 1
 262 456 l 1
 262 456 289.59765625 463 342 463 c 0
 497 463 519 342 519 210 c 0
 519 6 373.094726562 -35 253 -35 c 0
 139 -35 20 16 20 173 c 16
 20 330 26 456 26 456 c 17
EndSplineSet
Validated: 1
EndChar

StartChar: uni0190
Encoding: 400 400 668
Width: 631
Flags: W
HStem: -17 150<252.917 389.858> 280 150<243 359.083> 458 21G<370 611.5> 571 147<223.996 368.192>
VStem: 15 229<137.099 277.186> 44 174<440.45 568.426>
LayerCount: 2
Fore
SplineSet
616 458 m 9xf4
 370 463 l 25
 371 571 l 25
 218 569 l 25xf4
 222 430 l 5
 439 420 l 5
 442 292 l 1
 243 280 l 1
 244 133 l 1
 394 130 l 1
 402 244 l 25
 621 252 l 25
 621 252 616 -17 312 -17 c 0
 88 -17 15 104 15 195 c 0xf8
 15 346 155 372 155 372 c 25
 155 372 44 397 44 527 c 0
 44 627 143 718 324 718 c 0
 485 718 607 621 616 458 c 9xf4
EndSplineSet
Validated: 1
EndChar

StartChar: uni025B
Encoding: 603 603 669
Width: 493
Flags: W
HStem: -16.7305 123.5<169.869 277.063> 191 103.7<204.729 320.1> 377.61 112.81<213.073 302.238>
VStem: 15 153.01<107.968 189.15> 35.0098 176.96<297.451 374.797>
LayerCount: 2
Fore
SplineSet
479.689453125 321.01953125 m 9xe8
 306.849609375 324.469726562 l 25
 302.540039062 378.990234375 l 25
 211.969726562 377.610351562 l 25xe8
 204.729492188 294.700195312 l 1
 322.099609375 301 l 1
 320.099609375 189 l 1
 175.099609375 191 l 1
 168.009765625 106.76953125 l 1
 286.509765625 104.700195312 l 1
 284.029296875 163.360351562 l 25
 483.139648438 168.879882812 l 25
 483.139648438 168.879882812 479.689453125 -16.73046875 233.729492188 -16.73046875 c 0
 85.369140625 -16.73046875 15 51.759765625 15 134.549804688 c 0xf0
 15 218.740234375 101.599609375 256.6796875 101.599609375 256.6796875 c 25
 101.599609375 256.6796875 35.009765625 281.9296875 35.009765625 353.629882812 c 0
 35.009765625 430.629882812 113.319335938 490.419921875 258.209960938 490.419921875 c 0
 379.299804688 490.419921875 473.479492188 433.490234375 479.689453125 321.01953125 c 9xe8
EndSplineSet
Validated: 1
EndChar

StartChar: uni0189
Encoding: 393 393 670
Width: 736
Flags: W
HStem: 0 165<307.071 476.263> 281.761 128.601<308.673 398.604> 287.958 130.149<30.8457 81.3672 308.673 390.839> 502 183<418.261 487.32>
VStem: 81.3672 169.096<417.063 524.965> 491 230<221.06 496.855>
LayerCount: 2
Fore
SplineSet
80 679 m 1xbc
 80 679 145 685 317 685 c 0
 489 685 723 655 721 355 c 0
 719 55 460 0 325 0 c 0
 190 0 84 -1 84 -1 c 1
 83.3466796875 85.5419921875 82.693359375 198.08203125 82.1103515625 296.94140625 c 5
 20 297.958007812 l 5
 30.845703125 408.107421875 l 5
 81.3671875 407.063476562 l 5
 80.552734375 554.334960938 80 679 80 679 c 1xbc
308.672851562 293.723632812 m 5
 308.094726562 252.259765625 307.513671875 200.987304688 307 165 c 1
 307 165 405 166 487 167 c 1
 487 167 489 375 491 502 c 1
 252 525 l 1
 252 525 251.354492188 467.671875 250.462890625 402.950195312 c 5
 405.80078125 400.361328125 l 5
 398.603515625 291.760742188 l 5xdc
 308.672851562 293.723632812 l 5
EndSplineSet
Validated: 33
EndChar

StartChar: uni0186_tildecomb
Encoding: 65565 -1 671
Width: 698
Flags: W
HStem: -21 166<262.871 349.462> 534 181<242 443.256> 728.932 89.1396<402.377 437.329> 743.386 21G<194 283.677> 830.844 86.0049<287.678 326.75>
VStem: 446 237<331.077 490.052>
AnchorPoint: "Anchor-0" 346 739 basechar 0
AnchorPoint: "Anchor-2" 330 -54 basechar 0
LayerCount: 2
Fore
SplineSet
242 534 m 1xcc
 232 412 l 9
 11 420 l 1
 11 420 32 715 346 715 c 0
 600 715 683 509 683 351 c 8
 683 193 611 -21 332 -21 c 0
 13 -21 10 265 10 265 c 0
 247 265 l 1
 252 145 l 1
 433 158 l 1
 446 533 l 1
 446 533 322 534 242 534 c 1xcc
EndSplineSet
Refer: 155 771 N 1 0 0 1 194 275 2
Validated: 1
Ligature2: "'liga' Standard Ligatures in Latin lookup 0-1" uni0186 tildecomb
EndChar

StartChar: uni0254_tildecomb
Encoding: 65566 -1 672
Width: 543
Flags: W
HStem: -20 150<196.535 290.2> 350 149<206 313.89> 518.932 89.1396<311.377 346.329> 533.386 21G<103 192.677> 620.844 86.0049<196.678 235.75>
VStem: 331 197<142.003 273.636>
AnchorPoint: "Anchor-2" 258 -54 basechar 0
AnchorPoint: "Anchor-0" 272 529 basechar 0
LayerCount: 2
Fore
SplineSet
320 350 m 1xcc
 206 353 l 1
 198 280 l 25
 14 278 l 25
 14 278 44 499 272 499 c 0
 460 499 528 336 528 244 c 16
 528 152 478 -20 260 -20 c 0
 12 -20 10 197 10 197 c 1
 205 209 l 1
 195 130 l 1
 331 140 l 1
 320 350 l 1xcc
EndSplineSet
Refer: 155 771 S 1 0 0 1 103 65 2
Validated: 1
LCarets2: 1 0
Ligature2: "'liga' Standard Ligatures in Latin lookup 0-1" uni0254 tildecomb
EndChar

StartChar: alpha
Encoding: 945 945 673
Width: 587
Flags: W
HStem: -25 149<196 313.882> 344 161<185.859 328.001> 472 20G<410.519 555.741>
VStem: 15 167<234 340.396>
AnchorPoint: "Anchor-3" 228 28 basechar 0
AnchorPoint: "Anchor-2" 226 -54 basechar 0
AnchorPoint: "Anchor-0" 246 518 basechar 0
LayerCount: 2
Fore
SplineSet
15 248 m 0xb0
 15 400 113 505 245 505 c 0xd0
 336.522980339 505 399.998046875 427.263671875 399.998046875 427.263671875 c 1
 415.22265625 492 l 1
 597.896484375 466 l 1
 492.317382812 242 l 1
 581.76953125 2 l 1
 398.086914062 -34 l 1
 377.348632812 42.7333984375 l 1
 377.348632812 42.7333984375 317.008789062 -25 226 -25 c 0
 91 -25 15 96 15 248 c 0xb0
182 344 m 1
 196 124 l 1
 338 120 l 1
 356 347 l 1
 182 344 l 1
EndSplineSet
Validated: 1
EndChar

StartChar: beta
Encoding: 946 946 674
Width: 549
Flags: W
HStem: -13 149.86<213.506 334.09> 577.04 151.96<180.838 300.089>
VStem: 20 157.16<143.604 571.679> 27 185<-210 6.00977> 304.12 168.88<457.569 573.085> 334.09 199.91<138.839 289.659>
LayerCount: 2
Fore
SplineSet
20 555 m 2xe0
 24.171875 676.861328125 143 729 253 729 c 0
 366.171875 729 473 663.005859375 473 540 c 0xe8
 473 426 378 388 378 388 c 1
 378 388 534 365 534 190 c 0
 534 60.8251953125 451.138671875 -13 355 -13 c 0
 283 -13 213.455078125 6.009765625 213.455078125 6.009765625 c 1
 212 -210 l 1
 27 -210 l 1xd4
 20 555 l 2xe0
174.466796875 143.604492188 m 1
 334.08984375 136.860351562 l 1xe4
 337.330078125 290.33984375 l 1
 224.990234375 299.740234375 l 1
 226.610351562 439.799804688 l 1
 302.5 447.3203125 l 1
 304.120117188 577.040039062 l 1
 177.16015625 575.16015625 l 1
 174.466796875 143.604492188 l 1
EndSplineSet
Validated: 1
EndChar

StartChar: gamma
Encoding: 947 947 675
Width: 510
Flags: W
HStem: 468.256 20G<95.1016 182.081 361.993 367.065>
LayerCount: 2
Fore
SplineSet
-10.9931640625 440.358398438 m 1
 171.162109375 488.255859375 l 1
 193 447 247 332 285 164 c 9
 367.065429688 487.580078125 l 9
 367.065429688 487.580078125 460 483 518.907226562 480.588867188 c 25
 359.307617188 10.1572265625 l 1
 382.198242188 -205.24609375 l 0
 178.978515625 -213.701171875 l 0
 178.978515625 -213.701171875 190.278320312 -147.541992188 190.278320312 -59.8427734375 c 0
 190.278320312 41 108 247 -10.9931640625 440.358398438 c 1
EndSplineSet
Validated: 1
EndChar

StartChar: delta
Encoding: 948 948 676
Width: 559
Flags: W
HStem: -25 144<189.28 367.367> 333 132<201.69 352> 577 136<197.5 304.706>
VStem: 15 171<121.564 223.5> 37 163.481<456.601 573.419> 368 176<129.41 212.062>
AnchorPoint: "Anchor-2" 286 -34 basechar 0
AnchorPoint: "Anchor-3" 288 28 basechar 0
AnchorPoint: "Anchor-0" 284 519 basechar 0
LayerCount: 2
Fore
SplineSet
200 328 m 1xf4
 186 119 l 1
 368 118 l 1
 352 333 l 1
 200 328 l 1xf4
200.481445312 454.551757812 m 1xec
 226.229492188 461.37109375 254.447265625 465 285 465 c 0
 457 465 544 348 544 239 c 0
 544 91 441 -25 286 -25 c 0
 111 -25 15 66 15 218 c 0xf4
 15 294.857421875 61 358 122 394 c 1
 60 435 37 477.44140625 37 539 c 0
 37 649 137 713 267 713 c 0
 397 713 472 683 472 683 c 1
 460 560 l 1
 196 577 l 1
 200.481445312 454.551757812 l 1xec
EndSplineSet
Validated: 1
EndChar

StartChar: epsilon
Encoding: 949 949 677
Width: 493
Flags: W
HStem: -16.7305 123.5<200.382 306> 204 86<261.938 314> 379 111.42<178.257 280.584>
VStem: 15 183.01<107.968 188> 35.0098 138.99<318.349 378.957>
AnchorPoint: "Anchor-0" 260 499 basechar 0
LayerCount: 2
Fore
SplineSet
479.689453125 321.01953125 m 9xe8
 275.849609375 324.469726562 l 1
 283 385 l 1
 174 379 l 1xe8
 183.729492188 294.700195312 l 1
 317 290 l 1
 314 204 l 1
 195 188 l 1
 198.009765625 106.76953125 l 1
 306 108 l 1
 314.029296875 163.360351562 l 1
 483.139648438 168.879882812 l 25
 483.139648438 168.879882812 479.689453125 -16.73046875 233.729492188 -16.73046875 c 0
 85.369140625 -16.73046875 15 51.759765625 15 134.549804688 c 0xf0
 15 218.740234375 93 249 93 249 c 25
 93 249 35.009765625 271.9296875 35.009765625 343.629882812 c 0
 35.009765625 420.629882812 113.319335938 490.419921875 258.209960938 490.419921875 c 0
 379.299804688 490.419921875 473.479492188 433.490234375 479.689453125 321.01953125 c 9xe8
EndSplineSet
Validated: 1
EndChar

StartChar: zeta
Encoding: 950 950 678
Width: 501
Flags: W
HStem: -211 281<342.562 452.864> 516 145<45 292> 519 149<45 292>
VStem: 15 184<62.0137 167>
LayerCount: 2
Fore
SplineSet
45 668 m 17xb0
 471 661 l 25
 472 542 l 1
 196 167 l 1
 199 57 l 5
 199 57 307 70 378 70 c 4
 457 70 486 27 486 -45 c 4
 486 -126.024414062 463 -209 463 -209 c 5
 341 -211 l 5
 330 -97 l 5
 194.381835938 -117.459960938 15 -118 15 80 c 4
 15 308 292 516 292 516 c 1xd0
 37 519 l 25
 45 668 l 17xb0
EndSplineSet
Validated: 33
EndChar

StartChar: eta
Encoding: 951 951 679
Width: 532
Flags: W
HStem: 330 150<260.307 343>
VStem: 26 180<0 325> 343 169<-209 327.235>
AnchorPoint: "Anchor-2" 268 -14 basechar 0
AnchorPoint: "Anchor-0" 284 499 basechar 0
LayerCount: 2
Fore
SplineSet
20 448 m 1
 152 449 l 1
 164 399 l 1
 164 399 249 480 357 480 c 0
 465 480 512 418 512 307 c 16
 512 196 508 -210 508 -210 c 29
 339 -209 l 29
 343 330 l 25
 201 325 l 25
 206 -7 l 25
 26 0 l 25
 20 448 l 1
EndSplineSet
Validated: 1
EndChar

StartChar: theta
Encoding: 952 952 680
Width: 545
Flags: W
HStem: -7 165<188.043 363.311> 286.815 130.764<196.093 271.906> 300.997 118.474<274.032 343.525> 544 162<199.475 332>
VStem: 15 172<164.528 286.815>
LayerCount: 2
Fore
SplineSet
15 327 m 0x98
 15 552 98 706 276 706 c 0
 414 706 530 584 530 364 c 0
 530 124 448 -7 276 -7 c 0
 104 -7 15 102 15 327 c 0x98
343.525390625 419.470703125 m 1xb8
 332 550 l 1
 199 544 l 1
 196.092773438 417.579101562 l 1xd8
 343.525390625 419.470703125 l 1xb8
355.965820312 300.997070312 m 1xb8
 189.97265625 286.815429688 l 1xd8
 187 158 l 1
 369 156 l 1
 355.965820312 300.997070312 l 1xb8
EndSplineSet
Validated: 1
EndChar

StartChar: iota
Encoding: 953 953 681
Width: 291
Flags: W
HStem: 0 134<182.295 275.001> 445 20G<23.001 179.82>
VStem: 20.001 157<134 463.869>
AnchorPoint: "Anchor-0" 108.001 499 basechar 0
LayerCount: 2
Fore
SplineSet
23.0009765625 464 m 21
 180.000976562 465 l 5
 177.000976562 134 l 1
 275.000976562 134 l 1
 276.000976562 0 l 17
 104.709960938 -32.9541015625 19.7294921875 -6.7421875 20.0009765625 110 c 0
 20.404296875 284.00390625 23.0009765625 464 23.0009765625 464 c 21
EndSplineSet
Validated: 33
EndChar

StartChar: kappa
Encoding: 954 954 682
Width: 519
Flags: W
HStem: 0 21G<32.4286 204 317.553 529> 445 20G<20 174.286>
VStem: 20 155<269 455> 33 171<0 159>
AnchorPoint: "Anchor-2" 263 -2 basechar 0
LayerCount: 2
Fore
SplineSet
20 455 m 17xe0
 175 465 l 17xe0
 168 269 l 1
 329 448 l 17
 491 438 l 1
 347 284 l 17
 529 14 l 1
 327 0 l 5
 233 199 l 1
 200 159 l 1
 204 0 l 17
 33 0 l 17xd0
 20 455 l 17xe0
EndSplineSet
Validated: 1
EndChar

StartChar: B.ss01
Encoding: 65567 -1 683
Width: 652
Flags: W
HStem: -11 132.015<253.939 392.625> 562.531 141.469<227.859 347.559>
VStem: 42 187<420.444 562.531> 393.757 250.243<121.015 229.338>
AnchorPoint: "Anchor-2" 305 -24 basechar 0
AnchorPoint: "Anchor-0" 310 742 basechar 0
LayerCount: 2
Fore
SplineSet
190.411132812 257.4375 m 1
 181.844726562 110.405273438 l 1
 393.756835938 121.014648438 l 1
 384 272 l 9
 190.411132812 257.4375 l 1
223.69140625 562.53125 m 1
 229 414 l 1
 231.471679688 413.399414062 412.428710938 423.657226562 412.428710938 423.657226562 c 1
 412.098632812 422.198242188 413.623046875 573.264648438 413.623046875 573.264648438 c 9
 223.69140625 562.53125 l 1
42 688 m 17
 42 688 164 704 316 704 c 0
 488 704 600 642 600 510 c 0
 600 398 494 350 494 350 c 0
 494 350 644 335 644 202 c 0
 644 19 439 -11 304 -11 c 16
 169 -11 24 0 24 0 c 1
 42 688 l 17
EndSplineSet
Validated: 37
EndChar

StartChar: lambda
Encoding: 955 955 684
Width: 478
Flags: W
HStem: 1 21G<-1.93246 179>
AnchorPoint: "Anchor-2" 266 -9 basechar 0
AnchorPoint: "Anchor-0" 143 749 basechar 0
LayerCount: 2
Fore
SplineSet
-10 1 m 1
 205 534 l 1
 70 550 l 1
 63 662 l 1
 63 662 104 698 176 700 c 0
 276.438476562 702.790039062 323.96484375 651.958984375 363 478 c 0
 409 273 488 14 488 14 c 1
 338 -6 l 1
 266 334 l 1
 179 5 l 1
 -10 1 l 1
EndSplineSet
Validated: 33
EndChar

StartChar: uni03BC
Encoding: 956 956 685
Width: 529
Flags: W
HStem: -20 139<219.5 319.079> 443 20G<31.645 195>
VStem: 20 172<-209 20.6709> 349 156<339 449>
LayerCount: 2
Fore
SplineSet
188.772460938 20.6708984375 m 1
 192 -209 l 1
 20 -213 l 1
 32 463 l 1
 195 459 l 1
 204 127 l 1
 328 119 l 1
 349 449 l 1
 505 455 l 1
 509 0 l 1
 367 -9 l 1
 348 37 l 1
 348 37 318 -20 264 -20 c 0
 218.36328125 -20 188.772460938 20.6708984375 188.772460938 20.6708984375 c 1
EndSplineSet
Validated: 1
EndChar

StartChar: nu
Encoding: 957 957 686
Width: 470
Flags: W
HStem: 0 21G<146.807 333.552> 464 20G<44.8571 186.727 333.155 480>
LayerCount: 2
Fore
SplineSet
-10 456 m 21
 182 484 l 29
 260 154 l 25
 338 476 l 29
 480 467 l 29
 327 0 l 25
 154 0 l 25
 -10 456 l 21
EndSplineSet
Validated: 1
EndChar

StartChar: xi
Encoding: 958 958 687
Width: 501
Flags: W
HStem: -205 275<353.565 452.864> 203 164<247.5 384> 521 150<58 122 369.625 461>
VStem: 15 184<64.9447 188.22>
LayerCount: 2
Fore
SplineSet
45 668 m 1
 461 671 l 1
 472 521 l 1
 238 505 l 1
 228 375 l 1
 384 367 l 1
 390 203 l 1
 206 197 l 5
 199 57 l 1
 199 57 307 70 378 70 c 0
 457 70 486 27 486 -45 c 0
 486 -126.024414062 463 -209 463 -209 c 1
 328 -205 l 1
 350 -96 l 1
 214.381835938 -116.459960938 15 -98 15 100 c 0
 15 251.631835938 164 285 164 285 c 1
 164 285 46 293 46 407 c 0
 46 497 122 518 122 518 c 1
 58 517 l 1
 45 668 l 1
EndSplineSet
Validated: 33
EndChar

StartChar: omicron
Encoding: 959 959 688
Width: 559
Flags: W
HStem: -25 144<189.28 354.395> 358 137<196.213 338.384>
VStem: 15 181<190.7 356.348> 361 183<140.587 205.5>
AnchorPoint: "Anchor-2" 286 -34 basechar 0
AnchorPoint: "Anchor-3" 288 28 basechar 0
AnchorPoint: "Anchor-0" 284 519 basechar 0
LayerCount: 2
Fore
SplineSet
196 358 m 9
 186 119 l 25
 361 125 l 25
 341 355 l 25
 196 358 l 9
15 248 m 0
 15 400 113 495 285 495 c 0
 457 495 544 348 544 239 c 16
 544 130 461 -25 286 -25 c 16
 111 -25 15 96 15 248 c 0
EndSplineSet
Validated: 1
EndChar

StartChar: pi
Encoding: 960 960 689
Width: 591
Flags: W
HStem: 0 134<485.735 553.588> 319.634 139.366<26 89.9932 257.242 328.469 478.895 565>
VStem: 89.9932 168.402<99.8811 322.018> 326.678 158.91<134 319.634>
AnchorPoint: "Anchor-0" 294 499 basechar 0
LayerCount: 2
Fore
SplineSet
26 454 m 1
 565 459 l 1
 571 319 l 1
 478.89453125 319.633789062 l 1
 485.587890625 134 l 1
 553.587890625 134 l 1
 560.672851562 0 l 1
 443.397460938 -38 333.170898438 -33 326.677734375 110 c 4
 323.241210938 185.682617188 328.46875 321.115234375 328.46875 321.115234375 c 5
 258.395507812 322.017578125 l 5
 250.19921875 165.22265625 241.741210938 0 241.741210938 0 c 5
 58.7412109375 0 l 1
 68.4951171875 98.8623046875 81.005859375 229.362304688 89.9931640625 323.6328125 c 1
 20 324 l 1
 26 454 l 1
EndSplineSet
Validated: 33
EndChar

StartChar: rho
Encoding: 961 961 690
Width: 550
Flags: W
HStem: -14 151.175<205.026 364.708> 322.7 154.3<205.317 357.812>
VStem: 15.6582 181.691<137.909 317.935> 30 175<-224.926 -2.45449> 367.075 167.925<137.571 323.318>
AnchorPoint: "Anchor-0" 324 519 basechar 0
AnchorPoint: "Anchor-2" 326 -54 basechar 0
LayerCount: 2
Fore
SplineSet
199.540039062 322.700195312 m 5xe8
 197.349609375 135.125 l 5
 367.075195312 137.174804688 l 5
 361.599609375 324.75 l 5
 199.540039062 322.700195312 l 5xe8
30 -24 m 0xd8
 30 67 15.658203125 171.697265625 15.658203125 220 c 0xe8
 15.658203125 331 68.7734375 477 276 477 c 0
 374 477 535 412 535 223 c 0
 535 34 397 -14 304 -14 c 0
 241 -14 205 0 205 0 c 1
 211 -226 l 1
 20 -225 l 1
 20 -225 30 -124 30 -24 c 0xd8
EndSplineSet
Validated: 1
EndChar

StartChar: sigma1
Encoding: 962 962 691
Width: 539
Flags: W
HStem: -112 241<369.886 490.864> 351 148<203.479 340.147>
VStem: 15 187<115.693 339.515> 369 155<-105.935 -6>
AnchorPoint: "Anchor-2" 265 -54 basechar 0
AnchorPoint: "Anchor-0" 291 529 basechar 0
LayerCount: 2
Fore
SplineSet
233 -20 m 0
 55 -20 15 112 15 234 c 0
 15 346 83 499 291 499 c 0
 517 499 529 278 529 278 c 25
 349 272 l 1
 349 351 l 1
 198 353 l 1
 202 113 l 1
 202 113 345 129 416 129 c 0
 495 129 524 86 524 14 c 0
 524 -37.0244140625 501 -110 501 -110 c 1
 369 -112 l 1
 369 -6 l 1
 369 -6 318.109378056 -20 233 -20 c 0
EndSplineSet
Validated: 1
EndChar

StartChar: sigma
Encoding: 963 963 692
Width: 619
Flags: W
HStem: -25 133<197.981 349.314> 345 160<189.548 354> 364 130<480 591>
VStem: 15 172<160.667 340.396> 351 193<115.725 305.949>
AnchorPoint: "Anchor-3" 268 28 basechar 0
AnchorPoint: "Anchor-2" 266 -54 basechar 0
AnchorPoint: "Anchor-0" 284 519 basechar 0
LayerCount: 2
Fore
SplineSet
187 345 m 1xd8
 196 108 l 1
 351 115 l 1
 354 345 l 1
 187 345 l 1xd8
480 364 m 5xb8
 480 364 544 306 544 219 c 0
 544 90 461 -25 266 -25 c 0
 91 -25 15 96 15 248 c 0
 15 400 113 505 285 505 c 0xd8
 291.60868013 505 298.091875353 504.782984924 304.449472222 504.35944852 c 2
 599 494 l 1
 591 368 l 1
 480 364 l 5xb8
EndSplineSet
Validated: 1
EndChar

StartChar: dong
Encoding: 8363 8363 693
Width: 611
Flags: W
HStem: -3 107<17 542> 127 147<189.324 325.75> 406 133<202 336> 571.152 36.2422<273 347.558 527.841 588>
AnchorPoint: "Anchor-4" 552 546 basechar 0
LayerCount: 2
Fore
SplineSet
15 106 m 1
 545 104 l 25
 542 -3 l 25
 17 3 l 25
 15 106 l 1
346 662 m 1
 528 660 l 1
 527.840820312 607.39453125 l 1
 591 607 l 1
 588 570 l 1
 527.518554688 571.15234375 l 1
 526 150 l 1
 403 131 l 1
 394 191 l 1
 364.7109375 153.509765625 305.063476562 127 250 127 c 0
 113.399414062 127 20 224.206054688 20 331 c 0
 20 444.403320312 117.500976562 539 255 539 c 0
 304.875 539 372 506 372 506 c 1
 370.586914062 564.522460938 l 1
 273 566 l 1
 271 609 l 1
 347.557617188 608.521484375 l 1
 346 662 l 1
202 406 m 5
 184 274 l 1
 346 282 l 1
 336 400 l 5
 202 406 l 5
EndSplineSet
Validated: 1
EndChar

StartChar: tau
Encoding: 964 964 694
Width: 456
Flags: W
HStem: 0 134<300.295 393.001> 346 135<24 141.001 298.001 435>
VStem: 138.001 157<134 453.876>
AnchorPoint: "Anchor-0" 226.001 499 basechar 0
LayerCount: 2
Fore
SplineSet
141.000976562 454 m 17
 298.000976562 455 l 1
 295.000976562 134 l 1
 393.000976562 134 l 1
 394.000976562 0 l 17
 222.709960938 -32.9541015625 137.729492188 -6.7421875 138.000976562 110 c 0
 138.404296875 284.00390625 141.000976562 454 141.000976562 454 c 17
20 346 m 1
 24 481 l 1
 435 475 l 5
 436 349 l 5
 20 346 l 1
EndSplineSet
Validated: 37
EndChar

StartChar: upsilon
Encoding: 965 965 695
Width: 539
Flags: W
HStem: -35 152<204.954 339.484> 313 150<268.5 349>
VStem: 20 180<118.986 455.908> 344 175<125.848 310.798>
AnchorPoint: "Anchor-2" 258 -34 basechar 0
AnchorPoint: "Anchor-3" 408 28 basechar 0
AnchorPoint: "Anchor-0" 268 499 basechar 0
LayerCount: 2
Fore
SplineSet
26 456 m 17
 195 459 l 25
 200 117 l 25
 344 124 l 1
 349 313 l 1
 257 321 l 1
 262 456 l 1
 262 456 289.59765625 463 342 463 c 0
 497 463 519 342 519 210 c 0
 519 6 373.094726562 -35 253 -35 c 0
 139 -35 20 16 20 173 c 16
 20 330 26 456 26 456 c 17
EndSplineSet
Validated: 1
EndChar

StartChar: phi
Encoding: 966 966 696
Width: 639
Flags: W
HStem: 338 137.078<174.07 240> 341.763 145.088<386.697 461>
VStem: 15 161<156.73 336.566> 241 166<-200 -22.7785> 243.078 156.66<-197.224 -16.0029> 265.563 117.639<150.699 340.124> 471 153<145.692 285>
AnchorPoint: "Anchor-2" 326 -226 basechar 0
AnchorPoint: "Anchor-3" 328 -164 basechar 0
AnchorPoint: "Anchor-0" 324 519 basechar 0
LayerCount: 2
Fore
SplineSet
383.202148438 141.223632812 m 1x66
 471 145 l 1
 461 345 l 1
 384.159179688 341.762695312 l 1
 383.202148438 141.223632812 l 1x66
422.290039062 486.850585938 m 0
 548 486.850585938 624 379 624 249 c 0
 624 15.6552734375 399.73828125 -16.0029296875 399.73828125 -16.0029296875 c 1x6a
 407 -204 l 1
 241 -200 l 1x72
 243.078125 -10.3896484375 l 1
 243.078125 -10.3896484375 15 7.3037109375 15 258 c 0
 15 401 106 475.078125 189.852539062 475.078125 c 0
 224 475.078125 242 466 242 466 c 1
 240 341 l 1
 174 338 l 1xaa
 176 149 l 1
 265.563476562 150.69921875 l 1
 236 419 326 486.850585938 422.290039062 486.850585938 c 0
EndSplineSet
Validated: 33
EndChar

StartChar: phi1
Encoding: 981 981 697
Width: 639
Flags: W
HStem: -25 144<189.28 354.395> 358 137<196.213 338.384>
VStem: 15 181<190.7 356.348> 361 183<140.587 205.5>
AnchorPoint: "Anchor-2" 326 -226 basechar 0
AnchorPoint: "Anchor-3" 328 -164 basechar 0
AnchorPoint: "Anchor-0" 324 519 basechar 0
LayerCount: 2
Fore
SplineSet
238 678 m 1
 391 675 l 1
 402.290039062 486.850585938 l 1
 402.290039062 486.850585938 624 452.7265625 624 249 c 0
 624 35.6552734375 405.73828125 -16.0029296875 405.73828125 -16.0029296875 c 1
 407 -200 l 1
 241 -210 l 1
 238.078125 -10.3896484375 l 1
 238.078125 -10.3896484375 15 17.3037109375 15 238 c 0
 15 435.97265625 230.881835938 481.143554688 230.881835938 481.143554688 c 1
 238 678 l 1
196 338 m 1
 186 129 l 1
 275.563476562 130.69921875 l 1
 270.653320312 337.283203125 l 1
 196 338 l 1
363.202148438 141.223632812 m 1
 451 145 l 1
 431 345 l 1
 354.159179688 341.762695312 l 1
 363.202148438 141.223632812 l 1
EndSplineSet
Validated: 1
EndChar

StartChar: chi
Encoding: 967 967 698
Width: 547
Flags: W
LayerCount: 2
Fore
SplineSet
12 459 m 9
 171 133 l 29
 171 133 -10 -199 -10 -200 c 8
 -10 -201 140 -236 140 -236 c 25
 244 27 l 29
 340 -214 l 25
 557 -200 l 25
 390 152 l 29
 532 464 l 25
 394 474 l 25
 291 232 l 29
 203 496 l 17
 12 459 l 9
EndSplineSet
Validated: 9
EndChar

StartChar: psi
Encoding: 968 968 699
Width: 633
Flags: W
VStem: 15 164<117.678 451.954> 240.865 154.376<-204 -30.4902 138.605 675> 456 162<145.033 442>
AnchorPoint: "Anchor-3" 465 -142 basechar 0
AnchorPoint: "Anchor-2" 315 -224 basechar 0
AnchorPoint: "Anchor-0" 325 499 basechar 0
LayerCount: 2
Fore
SplineSet
35 452 m 1
 174 455 l 1
 179 117 l 1
 240.865234375 117.403320312 l 1
 237.16015625 675 l 1
 395.959960938 679 l 1
 395.241210938 138.60546875 l 1
 456 139 l 5
 455 442 l 5
 601 453 l 1
 601 453 618 379 618 240 c 0
 618 8.326171875 395.036132812 -29.0810546875 395.036132812 -29.0810546875 c 1
 394.799804688 -210 l 1
 243.080078125 -204 l 1
 241.93359375 -30.490234375 l 1
 241.93359375 -30.490234375 15 -12.0751953125 15 233 c 0
 15 390 35 452 35 452 c 1
EndSplineSet
Validated: 1
EndChar

StartChar: omega
Encoding: 969 969 700
Width: 712
Flags: W
HStem: 1 154<193 280.306 442.577 526.643> 467 20G<64 214.92 518.193 640.92>
VStem: 15 178<157.782 256.913> 283 158<157 348> 530 167<160.245 245.116>
AnchorPoint: "Anchor-2" 351 -17 basechar 0
AnchorPoint: "Anchor-0" 357 456 basechar 0
LayerCount: 2
Fore
SplineSet
697 220 m 0
 697 66 613.25 1 507 1 c 0
 393 1 354 87 354 87 c 1
 354 87 309 -5 199 -5 c 0
 59 -5 15 106.922851562 15 221 c 0
 15 329 64 487 64 487 c 1
 214.919921875 472 l 25
 193 156 l 1
 283 157 l 0
 278 355 l 25
 447 348 l 25
 441 155 l 25
 530 155 l 1
 505.919921875 465 l 1
 640.919921875 487 l 1
 640.919921875 487 697 376 697 220 c 0
EndSplineSet
Validated: 1
EndChar

StartChar: tonos
Encoding: 900 900 703
Width: 0
Flags: W
HStem: 452.55 212.45<52 71.3333>
VStem: 0 168
AnchorPoint: "Anchor-8" 53 645 mark 0
AnchorPoint: "Anchor-0" 31 454 mark 0
LayerCount: 2
Fore
SplineSet
52 665 m 1
 168 623 l 0
 146.78515625 567.592773438 112.1328125 502.703125 56.0771484375 452.549804688 c 1
 0 467 l 17
 29.6015625 534.201171875 49.5791015625 600.459960938 52 665 c 1
EndSplineSet
Validated: 1
EndChar

StartChar: dieresistonos
Encoding: 901 901 711
Width: 0
Flags: W
HStem: 458.55 21G<74 150.539> 500.313 102.464<209.713 292.251> 520.313 102.464<10.1212 92.6582>
VStem: 0 100.6<530.377 613.405> 199.592 100.601<510.377 593.405>
AnchorPoint: "Anchor-8" 173 655 mark 0
AnchorPoint: "Anchor-0" 156 474 mark 0
LayerCount: 2
Fore
SplineSet
126 671 m 1x98
 224 654 l 0
 204 579 171 506 130.077148438 458.549804688 c 1
 74 473 l 17
 103.6015625 540.201171875 123.579101562 606.459960938 126 671 c 1x98
250.745117188 602.77734375 m 0xd8
 282.288085938 602.77734375 300.192382812 579.655273438 300.192382812 552.452148438 c 8
 300.192382812 525.25 284.419921875 500.313476562 252.0234375 500.313476562 c 8
 219.626953125 500.313476562 199.591796875 526.609375 199.591796875 552 c 0
 199.591796875 577.388671875 219.200195312 602.77734375 250.745117188 602.77734375 c 0xd8
51.15234375 622.77734375 m 0xb8
 82.6962890625 622.77734375 100.599609375 599.655273438 100.599609375 572.452148438 c 8
 100.599609375 545.25 84.828125 520.313476562 52.4306640625 520.313476562 c 8
 20.03515625 520.313476562 0 546.609375 0 572 c 0
 0 597.388671875 19.6083984375 622.77734375 51.15234375 622.77734375 c 0xb8
EndSplineSet
Validated: 1
EndChar

StartChar: C.ss01
Encoding: 65568 -1 748
Width: 698
Flags: W
HStem: -21 179<249.865 471.424> 546 169<244.734 472.816>
VStem: 15 233<194.261 457.656>
AnchorPoint: "Anchor-0" 372 739 basechar 0
AnchorPoint: "Anchor-2" 368 -54 basechar 0
LayerCount: 2
Fore
SplineSet
478 546 m 1
 241 553 l 1
 248 158 l 1
 475 155 l 1
 481 281 l 1
 688 285 l 0
 688 285 685 -21 366 -21 c 0
 87 -21 15 173 15 331 c 16
 15 489 118 715 372 715 c 0
 676 715 687 420 687 420 c 5
 481 424 l 5
 478 546 l 1
EndSplineSet
Validated: 1
EndChar

StartChar: D.ss01
Encoding: 65569 -1 749
Width: 676
Flags: W
HStem: -10 185<228.906 441.794> 515 170<226.106 426.917>
VStem: 24 199<175 515> 443 218<200.301 468.55>
AnchorPoint: "Anchor-2" 305 -24 basechar 0
AnchorPoint: "Anchor-0" 302 709 basechar 0
LayerCount: 2
Fore
SplineSet
222 515 m 5
 223 175 l 9
 443 172 l 1
 439 511 l 13
 222 515 l 5
30 669 m 17
 30 669 85 685 257 685 c 0
 429 685 661 635.006666593 661 335 c 0
 661 58 460 -10 285 -10 c 0
 150 -10 24 9 24 9 c 17
 30 669 l 17
EndSplineSet
Validated: 1
EndChar

StartChar: F.ss01
Encoding: 65570 -1 750
Width: 586
Flags: W
HStem: -1 21G<204.012 205.006> 243 168<248.199 516.302> 548 153<245.201 561.054>
VStem: 20 184.012<0 242.892> 31 217.199<411 547.94>
AnchorPoint: "Anchor-0" 284 709 basechar 0
LayerCount: 2
Fore
SplineSet
31 695 m 9xe8
 31 695 352 699 564.375976562 701 c 25
 564.375976562 701 562 611 561.053710938 554 c 25
 245.201171875 548 l 9
 245.201171875 548 247 466 248.19921875 411 c 25xe8
 516.301757812 407 l 9
 516.301757812 407 518 308 518.3203125 245 c 25
 208.3359375 243 l 9
 208.3359375 243 206 94 204.01171875 -1 c 25
 204.01171875 -1 92 -0 20 0 c 25xf0
 31 695 l 9xe8
EndSplineSet
Validated: 1
EndChar

StartChar: G.ss01
Encoding: 65571 -1 751
Width: 715
Flags: W
HStem: -34 178<253.633 436.181> 240 114<391 469> 544 166<257.444 469.109>
VStem: 15 232<173.642 455.111>
AnchorPoint: "Anchor-2" 368 -44 basechar 0
AnchorPoint: "Anchor-0" 372 739 basechar 0
LayerCount: 2
Fore
SplineSet
476 544 m 17
 256 544 l 25
 247 144 l 1
 473 149 l 1
 469 234 l 1
 391 240 l 1
 388 354 l 25
 685 352 l 25
 695 6 l 0
 563 -4 l 25
 547 68 l 25
 547 68 469 -34 327 -34 c 0
 85 -34 15 166 15 310 c 16
 15 454 70 710 370 710 c 16
 670 710 672 438 672 438 c 17
 475 445 l 17
 476 544 l 17
EndSplineSet
Validated: 1
EndChar

StartChar: M.ss01
Encoding: 65572 -1 752
Width: 796
Flags: W
HStem: -5 21G<10 196.955 309 475.459 593 786>
VStem: 10 187<5 352.888>
AnchorPoint: "Anchor-2" 386 -14 basechar 0
AnchorPoint: "Anchor-0" 402 709 basechar 0
LayerCount: 2
Fore
SplineSet
36 658 m 17
 296 651 l 25
 337 490 402 257 402 257 c 25
 444 421 510 667 510 667 c 17
 758 671 l 25
 769 409 786 5 786 5 c 17
 594 -5 l 25
 592 165 589 426 589 426 c 17
 470 -10 l 17
 309 0 l 17
 196 436 l 1
 197 -5 l 17
 10 5 l 25
 24 266 36 658 36 658 c 17
EndSplineSet
Validated: 1
EndChar

StartChar: U.ss01
Encoding: 65573 -1 753
Width: 632
Flags: W
HStem: -30 198<244.982 425.918>
VStem: 20 221<168.212 644.681> 429 183<170.415 672>
AnchorPoint: "Anchor-2" 308 -34 basechar 0
AnchorPoint: "Anchor-3" 308 28 basechar 0
AnchorPoint: "Anchor-0" 338 709 basechar 0
LayerCount: 2
Fore
SplineSet
42 676 m 17
 242 664 l 25
 241 168 l 25
 429 166 l 25
 430 672 l 29
 606 678 l 29
 606 678 612 500 612 272 c 0
 612 93 550 -30 308 -30 c 16
 66 -30 20 122 20 258 c 16
 20 394 42 676 42 676 c 17
EndSplineSet
Validated: 1
EndChar

StartChar: d.ss01
Encoding: 65574 -1 754
Width: 553
Flags: W
HStem: -23 155<193.885 328.043> -10 21G<399.941 521> 309 169<184.735 333.462>
VStem: 15 169<171.333 307.274> 342 179<137 291>
AnchorPoint: "Anchor-0" 454 727 basechar 0
AnchorPoint: "Anchor-2" 245 -32 basechar 0
AnchorPoint: "Anchor-4" 547 546 basechar 0
LayerCount: 2
Fore
SplineSet
184 309 m 9xb8
 193 132 l 13
 342 137 l 9
 334 313 l 9
 184 309 l 9xb8
370 668 m 17
 533 669 l 25
 521 0 l 25
 407 -10 l 25x78
 389 41 l 25
 389 41 329 -23 235 -23 c 16
 141 -23 15 31 15 231 c 0
 15 411 159 478 250 478 c 0
 321 478 377 436 377 436 c 17
 370 668 l 17
EndSplineSet
EndChar

StartChar: nine.ss01
Encoding: 65575 -1 755
Width: 578
Flags: W
HStem: -18 150<205.5 360.194> 248 158<223 332.617> 566 159<217.228 373.319>
LayerCount: 2
Fore
SplineSet
371 402 m 1
 378 566 l 1
 212 564 l 1
 223 406 l 1
 371 402 l 1
268 -18 m 0
 23 -18 29 207 29 207 c 25
 207 201 l 25
 201 132 l 25
 365 131 l 25
 360 285 l 25
 360 285 311 248 222 248 c 0
 133 248 15 318 15 470 c 16
 15 622 135 725 285 725 c 0
 495 725 563 539 563 356 c 16
 563 173 513 -18 268 -18 c 0
EndSplineSet
Validated: 33
EndChar

StartChar: six.ss01
Encoding: 65576 -1 756
Width: 591
Flags: W
HStem: -18 155<220 370.034> 300 160<231.76 382.297> 491 21G<372.533 560> 570 156<202.348 369.897>
VStem: 15 181<420 512.401>
LayerCount: 2
Fore
SplineSet
371 141 m 9
 383 300 l 1
 209 306 l 25
 220 137 l 1
 371 141 l 9
15 331 m 0
 15 593 116 726 308 726 c 0
 549 726 560 493 560 493 c 25
 372 491 l 25
 374 566 l 29
 202 570 l 25
 196 420 l 25
 196 420 254 460 346 460 c 0
 438 460 576 413 576 239 c 8
 576 65 452 -18 302 -18 c 0
 152 -18 15 69 15 331 c 0
EndSplineSet
Validated: 1
EndChar

StartChar: uni0410
Encoding: 1040 1040 757
Width: 611
Flags: W
HStem: 163.96 145.41<220.24 344>
AnchorPoint: "Anchor-2" 288 6 basechar 0
AnchorPoint: "Anchor-3" 438 28 basechar 0
AnchorPoint: "Anchor-0" 306 709 basechar 0
LayerCount: 2
Fore
SplineSet
285.439453125 534.690429688 m 1
 220.240234375 309.370117188 l 0
 344 308.059570312 l 1
 285.439453125 534.690429688 l 1
215.759765625 686.650390625 m 9
 411.040039062 682.719726562 l 25
 621.83984375 6.2802734375 l 0
 406.16015625 -13.7197265625 l 0
 361.279296875 167.889648438 l 25
 210.719726562 163.959960938 l 1
 165.83984375 -13.7197265625 l 0
 -10 6.2802734375 l 0
 215.759765625 686.650390625 l 9
EndSplineSet
Validated: 1
EndChar

StartChar: uni0412
Encoding: 1042 1042 758
Width: 652
Flags: W
HStem: -11 124<234.291 414.078> 571 133<179 372.253>
VStem: 20 154<404 570.926> 422 222<117.612 266.118>
AnchorPoint: "Anchor-2" 305 -24 basechar 0
AnchorPoint: "Anchor-0" 310 742 basechar 0
LayerCount: 2
Fore
SplineSet
239 286 m 25
 229 112 l 9
 229 112 344 113 417 113 c 25
 417 113 420 217 422 284 c 25
 422 284 310 285 239 286 c 25
179 571 m 25
 179 571 176 469 174 404 c 25
 174 404 293 418 369 427 c 25
 369 427 374 515 378 572 c 25
 378 572 257 571 179 571 c 25
20 686 m 17
 79 696 164 704 346 704 c 0
 488 704 600 660 600 528 c 16
 600 396 483 362 483 362 c 0
 483 362 644 325 644 192 c 0
 644 9 439 -11 304 -11 c 16
 169 -11 24 0 24 0 c 25
 20 686 l 17
EndSplineSet
Validated: 1
EndChar

StartChar: uni0411
Encoding: 1041 1041 759
Width: 622
Flags: W
HStem: 551.283 152.717<319.875 536>
VStem: 42 177<420.444 542.531> 383.757 230.243<132.543 246.513>
AnchorPoint: "Anchor-2" 305 -24 basechar 0
AnchorPoint: "Anchor-0" 310 742 basechar 0
LayerCount: 2
Fore
SplineSet
190.411132812 277.4375 m 1
 181.844726562 120.405273438 l 1
 383.756835938 131.014648438 l 5
 374 292 l 5
 190.411132812 277.4375 l 1
42 688 m 1
 536 704 l 1
 560.547851562 551.283203125 l 1
 223.69140625 542.53125 l 1
 219 404 l 17
 219 404 291 422 380 422 c 0
 519.669921875 422 614 355 614 222 c 0
 614 39 439 -11 304 -11 c 0
 169 -11 24 0 24 0 c 1
 42 688 l 1
EndSplineSet
Validated: 1
EndChar

StartChar: uni0413
Encoding: 1043 1043 760
Width: 586
Flags: W
HStem: -1 21G<233.691 234.012> 548 153<225.201 561.054>
VStem: 20 214.012<0 435.182> 31 194.201<252.727 548>
AnchorPoint: "Anchor-0" 284 709 basechar 0
LayerCount: 2
Fore
SplineSet
31 695 m 1xd0
 31 695 352 699 564.375976562 701 c 1
 564.375976562 701 562 601 561.053710938 544 c 5
 225.201171875 548 l 1xd0
 234.01171875 -1 l 1
 234.01171875 -1 92 -0 20 0 c 1xe0
 31 695 l 1xd0
EndSplineSet
Validated: 1
EndChar

StartChar: uni0414
Encoding: 1044 1044 761
Width: 836
Flags: W
HStem: -135 287<24.0189 153.919> 4.18848 177.812<395.117 502.168> 534.69 151.96<345.439 495>
VStem: 495 206.04<190.295 536> 502.168 194.5<182 527.705>
AnchorPoint: "Anchor-2" 378 6 basechar 0
AnchorPoint: "Anchor-0" 396 709 basechar 0
LayerCount: 2
Fore
SplineSet
502.16796875 182 m 1x68
 495 536 l 1x70
 345.439453125 534.690429688 l 1
 349.23828125 172 l 1
 502.16796875 182 l 1x68
165.759765625 686.650390625 m 1
 701.040039062 682.719726562 l 1xb0
 696.66796875 182 l 1
 795 182 l 1
 826 -128 l 1
 654 -138 l 1
 656.256835938 4.1884765625 l 1x68
 207.006835938 -7.6044921875 l 1
 216 -138 l 1
 10 -135 l 1
 24 157 l 1
 24 157 50 152 73.7841796875 152 c 0xa8
 217.25390625 152 203 249 165.759765625 686.650390625 c 1
EndSplineSet
Validated: 33
EndChar

StartChar: uni041B
Encoding: 1051 1051 762
Width: 711
Flags: W
HStem: -13.7197 197.72<27 153> 524.69 161.96<335.439 475>
VStem: 456.16 235.68<-3.71973 186.815>
AnchorPoint: "Anchor-2" 388 6 basechar 0
AnchorPoint: "Anchor-0" 406 709 basechar 0
LayerCount: 2
Fore
SplineSet
175.759765625 686.650390625 m 1
 671.040039062 682.719726562 l 1
 691.83984375 -3.7197265625 l 1
 456.16015625 -13.7197265625 l 5
 475 526 l 5
 335.439453125 524.690429688 l 1
 361 54 289 -13.7197265625 155.83984375 -13.7197265625 c 0
 74 -13.7197265625 20 6.2802734375 20 6.2802734375 c 1
 27 182 l 1
 153 184 l 1
 175.759765625 686.650390625 l 1
EndSplineSet
Validated: 33
EndChar

StartChar: uni0415
Encoding: 1045 1045 763
Width: 593
Flags: W
HStem: 0 170<183 567> 284 150<239 515> 554 135<239 560.761> 670 20G<561 561>
VStem: 20 163<170 284>
AnchorPoint: "Anchor-2" 298 -14 basechar 0
AnchorPoint: "Anchor-3" 498 28 basechar 0
AnchorPoint: "Anchor-0" 284 709 basechar 0
LayerCount: 2
Fore
SplineSet
22 689 m 25xe8
 232 689 561 690 561 690 c 25xd8
 561 637 561 554 561 554 c 25
 435 554 239 554 239 554 c 25
 239 507 239 434 239 434 c 25
 348 432 519 430 519 430 c 25
 517 379 515 280 515 280 c 25
 384 282 179 284 179 284 c 1
 183 170 l 17
 567 170 l 1
 569 100 573 0 573 0 c 25
 357 0 20 1 20 1 c 25
 21 269 22 689 22 689 c 25xe8
EndSplineSet
Validated: 1
EndChar

StartChar: uni041A
Encoding: 1050 1050 764
Width: 679
Flags: W
HStem: 0 1G<23 24 435.078 445> 458 212<502 642>
VStem: 24 218<1 230>
AnchorPoint: "Anchor-0" 344 709 basechar 0
AnchorPoint: "Anchor-2" 330 -2 basechar 0
LayerCount: 2
Fore
SplineSet
20 672 m 25
 105 672 217 673 217 673 c 25
 220 573 225 386 225 386 c 1
 304 387 l 1
 382 593 430.016601562 670 570 670 c 0
 622 670 654 647 654 647 c 1
 642 457 l 1
 502 458 l 1
 456 367 l 1
 689 3 l 1
 586 -6 445 -20 445 -20 c 17
 318 236 l 1
 246 230 l 17
 242 1 l 1
 169 1 24 0 24 0 c 25
 22 262 20 672 20 672 c 25
EndSplineSet
Validated: 1
EndChar

